<svg width="123" height="95" viewBox="0 0 123 95" fill="none" xmlns="http://www.w3.org/2000/svg">
<path class="number" d="M39.07 94.56C31.53 94.56 24.8133 92.6967 18.92 88.97C13.0267 85.2433 8.39 79.87 5.01 72.85C1.71667 65.7433 0.0700001 57.2933 0.0700001 47.5C0.0700001 37.7067 1.71667 29.3 5.01 22.28C8.39 15.1733 13.0267 9.75666 18.92 6.03C24.8133 2.30333 31.53 0.439998 39.07 0.439998C46.61 0.439998 53.3267 2.30333 59.22 6.03C65.1133 9.75666 69.7067 15.1733 73 22.28C76.38 29.3 78.07 37.7067 78.07 47.5C78.07 57.2933 76.38 65.7433 73 72.85C69.7067 79.87 65.1133 85.2433 59.22 88.97C53.3267 92.6967 46.61 94.56 39.07 94.56ZM39.07 76.75C44.6167 76.75 48.95 74.3667 52.07 69.6C55.2767 64.8333 56.88 57.4667 56.88 47.5C56.88 37.5333 55.2767 30.1667 52.07 25.4C48.95 20.6333 44.6167 18.25 39.07 18.25C33.61 18.25 29.2767 20.6333 26.07 25.4C22.95 30.1667 21.39 37.5333 21.39 47.5C21.39 57.4667 22.95 64.8333 26.07 69.6C29.2767 74.3667 33.61 76.75 39.07 76.75ZM122.641 1.99999V93H101.581V18.9H83.3807V1.99999H122.641Z" fill="#E61776"/>
</svg>
