<svg width="156" height="95" viewBox="0 0 156 95" fill="none" xmlns="http://www.w3.org/2000/svg">
<mask id="path-1-outside-1_287_786" maskUnits="userSpaceOnUse" x="-1" y="-1" width="158" height="97" fill="black">
<rect fill="white" x="-1" y="-1" width="158" height="97"/>
<path d="M39.07 94.56C31.53 94.56 24.8133 92.6967 18.92 88.97C13.0267 85.2433 8.39 79.87 5.01 72.85C1.71667 65.7433 0.0700001 57.2933 0.0700001 47.5C0.0700001 37.7067 1.71667 29.3 5.01 22.28C8.39 15.1733 13.0267 9.75666 18.92 6.03C24.8133 2.30333 31.53 0.439998 39.07 0.439998C46.61 0.439998 53.3267 2.30333 59.22 6.03C65.1133 9.75666 69.7067 15.1733 73 22.28C76.38 29.3 78.07 37.7067 78.07 47.5C78.07 57.2933 76.38 65.7433 73 72.85C69.7067 79.87 65.1133 85.2433 59.22 88.97C53.3267 92.6967 46.61 94.56 39.07 94.56ZM39.07 76.75C44.6167 76.75 48.95 74.3667 52.07 69.6C55.2767 64.8333 56.88 57.4667 56.88 47.5C56.88 37.5333 55.2767 30.1667 52.07 25.4C48.95 20.6333 44.6167 18.25 39.07 18.25C33.61 18.25 29.2767 20.6333 26.07 25.4C22.95 30.1667 21.39 37.5333 21.39 47.5C21.39 57.4667 22.95 64.8333 26.07 69.6C29.2767 74.3667 33.61 76.75 39.07 76.75ZM155.531 75.84V93H86.7607V79.35L121.861 46.2C125.587 42.6467 128.101 39.6133 129.401 37.1C130.701 34.5 131.351 31.9433 131.351 29.43C131.351 25.79 130.094 23.0167 127.581 21.11C125.154 19.1167 121.557 18.12 116.791 18.12C112.804 18.12 109.207 18.9 106.001 20.46C102.794 21.9333 100.107 24.1867 97.9407 27.22L82.6007 17.34C86.154 12.0533 91.0507 7.93666 97.2907 4.98999C103.531 1.95666 110.681 0.439998 118.741 0.439998C125.501 0.439998 131.394 1.56666 136.421 3.81999C141.534 5.98666 145.477 9.10666 148.251 13.18C151.111 17.1667 152.541 21.89 152.541 27.35C152.541 32.29 151.501 36.9267 149.421 41.26C147.341 45.5933 143.311 50.5333 137.331 56.08L116.401 75.84H155.531Z"/>
</mask>
<path d="M18.92 88.97L19.4545 88.1248L18.92 88.97ZM5.01 72.85L4.10269 73.2705L4.1058 73.2772L4.109 73.2838L5.01 72.85ZM5.01 22.28L4.10692 21.8505L4.10468 21.8553L5.01 22.28ZM18.92 6.03L19.4545 6.87519L18.92 6.03ZM59.22 6.03L58.6855 6.87519L59.22 6.03ZM73 22.28L72.0927 22.7005L72.0958 22.7072L72.099 22.7138L73 22.28ZM73 72.85L72.0969 72.4205L72.0947 72.4253L73 72.85ZM59.22 88.97L58.6855 88.1248L59.22 88.97ZM52.07 69.6L51.2402 69.0418L51.2333 69.0523L52.07 69.6ZM52.07 25.4L51.2332 25.9477L51.2403 25.9582L52.07 25.4ZM26.07 25.4L25.2402 24.8418L25.2333 24.8523L26.07 25.4ZM26.07 69.6L25.2332 70.1477L25.2403 70.1582L26.07 69.6ZM39.07 93.56C31.7032 93.56 25.1749 91.7421 19.4545 88.1248L18.3855 89.8152C24.4518 93.6512 31.3568 95.56 39.07 95.56V93.56ZM19.4545 88.1248C13.7375 84.5097 9.21958 79.2878 5.911 72.4162L4.109 73.2838C7.56042 80.4522 12.3158 85.977 18.3855 89.8152L19.4545 88.1248ZM5.91731 72.4295C2.69833 65.4833 1.07 57.1834 1.07 47.5H-0.93C-0.93 57.4032 0.735006 66.0033 4.10269 73.2705L5.91731 72.4295ZM1.07 47.5C1.07 37.816 2.6985 29.5616 5.91533 22.7047L4.10468 21.8553C0.734839 29.0383 -0.93 37.5973 -0.93 47.5H1.07ZM5.91306 22.7095C9.22266 15.7509 13.7407 10.4883 19.4545 6.87519L18.3855 5.1848C12.3127 9.025 7.55735 14.5958 4.10694 21.8505L5.91306 22.7095ZM19.4545 6.87519C25.1749 3.25788 31.7032 1.44 39.07 1.44V-0.560002C31.3568 -0.560002 24.4518 1.34878 18.3855 5.1848L19.4545 6.87519ZM39.07 1.44C46.4368 1.44 52.9652 3.25788 58.6855 6.87519L59.7545 5.1848C53.6882 1.34878 46.7832 -0.560002 39.07 -0.560002V1.44ZM58.6855 6.87519C64.3968 10.4867 68.8699 15.7461 72.0927 22.7005L73.9073 21.8595C70.5434 14.6006 65.8298 9.02659 59.7545 5.1848L58.6855 6.87519ZM72.099 22.7138C75.3993 29.5683 77.07 37.8193 77.07 47.5H79.07C79.07 37.594 77.3607 29.0317 73.901 21.8462L72.099 22.7138ZM77.07 47.5C77.07 57.1802 75.3995 65.4767 72.0969 72.4205L73.9031 73.2795C77.3605 66.01 79.07 57.4065 79.07 47.5H77.07ZM72.0947 72.4253C68.873 79.2926 64.4 84.5113 58.6855 88.1248L59.7545 89.8152C65.8267 85.9754 70.5404 80.4474 73.9053 73.2747L72.0947 72.4253ZM58.6855 88.1248C52.9652 91.7421 46.4368 93.56 39.07 93.56V95.56C46.7832 95.56 53.6882 93.6512 59.7545 89.8152L58.6855 88.1248ZM39.07 77.75C44.9649 77.75 49.608 75.1874 52.9067 70.1477L51.2333 69.0523C48.292 73.546 44.2684 75.75 39.07 75.75V77.75ZM52.8997 70.1582C56.2724 65.1447 57.88 57.5364 57.88 47.5H55.88C55.88 57.397 54.2809 64.522 51.2403 69.0418L52.8997 70.1582ZM57.88 47.5C57.88 37.4636 56.2724 29.8553 52.8997 24.8418L51.2403 25.9582C54.2809 30.478 55.88 37.603 55.88 47.5H57.88ZM52.9067 24.8523C49.608 19.8126 44.9649 17.25 39.07 17.25V19.25C44.2684 19.25 48.292 21.454 51.2333 25.9477L52.9067 24.8523ZM39.07 17.25C33.2569 17.25 28.6212 19.8161 25.2403 24.8418L26.8997 25.9582C29.9322 21.4505 33.9631 19.25 39.07 19.25V17.25ZM25.2333 24.8523C21.9534 29.8633 20.39 37.4668 20.39 47.5H22.39C22.39 37.5998 23.9466 30.4701 26.9067 25.9477L25.2333 24.8523ZM20.39 47.5C20.39 57.5332 21.9534 65.1367 25.2333 70.1477L26.9067 69.0523C23.9466 64.5299 22.39 57.4002 22.39 47.5H20.39ZM25.2403 70.1582C28.6212 75.1839 33.2569 77.75 39.07 77.75V75.75C33.9631 75.75 29.9322 73.5495 26.8997 69.0418L25.2403 70.1582ZM155.531 75.84H156.531V74.84H155.531V75.84ZM155.531 93V94H156.531V93H155.531ZM86.7607 93H85.7607V94H86.7607V93ZM86.7607 79.35L86.0741 78.623L85.7607 78.919V79.35H86.7607ZM121.861 46.2L122.547 46.927L122.551 46.9237L121.861 46.2ZM129.401 37.1L130.289 37.5595L130.295 37.5472L129.401 37.1ZM127.581 21.11L126.946 21.8827L126.961 21.895L126.976 21.9067L127.581 21.11ZM106.001 20.46L106.418 21.3687L106.428 21.3641L106.438 21.3592L106.001 20.46ZM97.9407 27.22L97.3992 28.0607L98.2005 28.5768L98.7544 27.8012L97.9407 27.22ZM82.6007 17.34L81.7708 16.7822L81.2019 17.6285L82.0592 18.1807L82.6007 17.34ZM97.2907 4.98999L97.7177 5.8943L97.7279 5.88936L97.2907 4.98999ZM136.421 3.81999L136.012 4.7325L136.021 4.73672L136.031 4.74075L136.421 3.81999ZM148.251 13.18L147.424 13.7428L147.431 13.7529L147.438 13.7629L148.251 13.18ZM149.421 41.26L150.322 41.6927L149.421 41.26ZM137.331 56.08L136.651 55.3468L136.644 55.3529L137.331 56.08ZM116.401 75.84L115.714 75.1129L113.885 76.84H116.401V75.84ZM154.531 75.84V93H156.531V75.84H154.531ZM155.531 92H86.7607V94H155.531V92ZM87.7607 93V79.35H85.7607V93H87.7607ZM87.4473 80.077L122.547 46.927L121.174 45.473L86.0741 78.623L87.4473 80.077ZM122.551 46.9237C126.303 43.3458 128.912 40.2211 130.289 37.5594L128.512 36.6406C127.289 39.0055 124.872 41.9475 121.171 45.4763L122.551 46.9237ZM130.295 37.5472C131.654 34.8301 132.351 32.1212 132.351 29.43H130.351C130.351 31.7655 129.748 34.1699 128.506 36.6528L130.295 37.5472ZM132.351 29.43C132.351 25.5318 130.988 22.4398 128.185 20.3133L126.976 21.9067C129.2 23.5935 130.351 26.0482 130.351 29.43H132.351ZM128.215 20.3373C125.538 18.1377 121.674 17.12 116.791 17.12V19.12C121.441 19.12 124.77 20.0956 126.946 21.8827L128.215 20.3373ZM116.791 17.12C112.671 17.12 108.922 17.927 105.563 19.5608L106.438 21.3592C109.493 19.873 112.938 19.12 116.791 19.12V17.12ZM105.583 19.5513C102.209 21.1015 99.389 23.4719 97.127 26.6388L98.7544 27.8012C100.826 24.9014 103.379 22.7651 106.418 21.3687L105.583 19.5513ZM98.4822 26.3793L83.1422 16.4993L82.0592 18.1807L97.3992 28.0607L98.4822 26.3793ZM83.4307 17.8978C86.875 12.7733 91.6267 8.77054 97.7177 5.89424L96.8637 4.08575C90.4747 7.10279 85.433 11.3334 81.7708 16.7822L83.4307 17.8978ZM97.7279 5.88936C103.811 2.93217 110.808 1.44 118.741 1.44V-0.560002C110.554 -0.560002 103.25 0.981162 96.8535 4.09063L97.7279 5.88936ZM118.741 1.44C125.391 1.44 131.139 2.54839 136.012 4.7325L136.83 2.90748C131.649 0.584935 125.61 -0.560002 118.741 -0.560002V1.44ZM136.031 4.74075C140.99 6.84229 144.772 9.84778 147.424 13.7428L149.077 12.6172C146.183 8.36555 142.078 5.13104 136.811 2.89924L136.031 4.74075ZM147.438 13.7629C150.163 17.5606 151.541 22.0744 151.541 27.35H153.541C153.541 21.7056 152.059 16.7727 149.063 12.5971L147.438 13.7629ZM151.541 27.35C151.541 32.1445 150.533 36.6328 148.519 40.8273L150.322 41.6927C152.469 37.2205 153.541 32.4355 153.541 27.35H151.541ZM148.519 40.8273C146.519 44.9952 142.594 49.8344 136.651 55.3468L138.011 56.8132C144.028 51.2322 148.163 46.1915 150.322 41.6927L148.519 40.8273ZM136.644 55.3529L115.714 75.1129L117.087 76.5671L138.017 56.8071L136.644 55.3529ZM116.401 76.84H155.531V74.84H116.401V76.84Z" fill="#E61776" mask="url(#path-1-outside-1_287_786)"/>
</svg>
