<svg width="155" height="95" viewBox="0 0 155 95" fill="none" xmlns="http://www.w3.org/2000/svg">
<mask id="path-1-outside-1_287_791" maskUnits="userSpaceOnUse" x="-1" y="-1" width="157" height="97" fill="black">
<rect fill="white" x="-1" y="-1" width="157" height="97"/>
<path d="M39.07 94.56C31.53 94.56 24.8133 92.6967 18.92 88.97C13.0267 85.2433 8.39 79.87 5.01 72.85C1.71667 65.7433 0.0700001 57.2933 0.0700001 47.5C0.0700001 37.7067 1.71667 29.3 5.01 22.28C8.39 15.1733 13.0267 9.75666 18.92 6.03C24.8133 2.30333 31.53 0.439998 39.07 0.439998C46.61 0.439998 53.3267 2.30333 59.22 6.03C65.1133 9.75666 69.7067 15.1733 73 22.28C76.38 29.3 78.07 37.7067 78.07 47.5C78.07 57.2933 76.38 65.7433 73 72.85C69.7067 79.87 65.1133 85.2433 59.22 88.97C53.3267 92.6967 46.61 94.56 39.07 94.56ZM39.07 76.75C44.6167 76.75 48.95 74.3667 52.07 69.6C55.2767 64.8333 56.88 57.4667 56.88 47.5C56.88 37.5333 55.2767 30.1667 52.07 25.4C48.95 20.6333 44.6167 18.25 39.07 18.25C33.61 18.25 29.2767 20.6333 26.07 25.4C22.95 30.1667 21.39 37.5333 21.39 47.5C21.39 57.4667 22.95 64.8333 26.07 69.6C29.2767 74.3667 33.61 76.75 39.07 76.75ZM129.543 39.05C137.516 40.35 143.626 43.34 147.873 48.02C152.12 52.6133 154.243 58.3333 154.243 65.18C154.243 70.4667 152.856 75.3633 150.083 79.87C147.31 84.29 143.063 87.8433 137.343 90.53C131.71 93.2167 124.776 94.56 116.543 94.56C110.13 94.56 103.803 93.7367 97.5629 92.09C91.4096 90.3567 86.1662 87.93 81.8329 84.81L90.0229 68.69C93.4896 71.29 97.4762 73.3267 101.983 74.8C106.576 76.1867 111.256 76.88 116.023 76.88C121.31 76.88 125.47 75.8833 128.503 73.89C131.536 71.81 133.053 68.9067 133.053 65.18C133.053 57.7267 127.376 54 116.023 54H106.403V40.09L125.123 18.9H86.3829V1.99999H150.083V15.65L129.543 39.05Z"/>
</mask>
<path d="M18.92 88.97L19.4545 88.1248L18.92 88.97ZM5.01 72.85L4.10269 73.2705L4.1058 73.2772L4.109 73.2838L5.01 72.85ZM5.01 22.28L4.10692 21.8505L4.10468 21.8553L5.01 22.28ZM18.92 6.03L19.4545 6.87519L18.92 6.03ZM59.22 6.03L58.6855 6.87519L59.22 6.03ZM73 22.28L72.0927 22.7005L72.0958 22.7072L72.099 22.7138L73 22.28ZM73 72.85L72.0969 72.4205L72.0947 72.4253L73 72.85ZM59.22 88.97L58.6855 88.1248L59.22 88.97ZM52.07 69.6L51.2402 69.0418L51.2333 69.0523L52.07 69.6ZM52.07 25.4L51.2332 25.9477L51.2403 25.9582L52.07 25.4ZM26.07 25.4L25.2402 24.8418L25.2333 24.8523L26.07 25.4ZM26.07 69.6L25.2332 70.1477L25.2403 70.1582L26.07 69.6ZM39.07 93.56C31.7032 93.56 25.1749 91.7421 19.4545 88.1248L18.3855 89.8152C24.4518 93.6512 31.3568 95.56 39.07 95.56V93.56ZM19.4545 88.1248C13.7375 84.5097 9.21958 79.2878 5.911 72.4162L4.109 73.2838C7.56042 80.4522 12.3158 85.977 18.3855 89.8152L19.4545 88.1248ZM5.91731 72.4295C2.69833 65.4833 1.07 57.1834 1.07 47.5H-0.93C-0.93 57.4032 0.735006 66.0033 4.10269 73.2705L5.91731 72.4295ZM1.07 47.5C1.07 37.816 2.6985 29.5616 5.91533 22.7047L4.10468 21.8553C0.734839 29.0383 -0.93 37.5973 -0.93 47.5H1.07ZM5.91306 22.7095C9.22266 15.7509 13.7407 10.4883 19.4545 6.87519L18.3855 5.1848C12.3127 9.025 7.55735 14.5958 4.10694 21.8505L5.91306 22.7095ZM19.4545 6.87519C25.1749 3.25788 31.7032 1.44 39.07 1.44V-0.560002C31.3568 -0.560002 24.4518 1.34878 18.3855 5.1848L19.4545 6.87519ZM39.07 1.44C46.4368 1.44 52.9652 3.25788 58.6855 6.87519L59.7545 5.1848C53.6882 1.34878 46.7832 -0.560002 39.07 -0.560002V1.44ZM58.6855 6.87519C64.3968 10.4867 68.8699 15.7461 72.0927 22.7005L73.9073 21.8595C70.5434 14.6006 65.8298 9.02659 59.7545 5.1848L58.6855 6.87519ZM72.099 22.7138C75.3993 29.5683 77.07 37.8193 77.07 47.5H79.07C79.07 37.594 77.3607 29.0317 73.901 21.8462L72.099 22.7138ZM77.07 47.5C77.07 57.1802 75.3995 65.4767 72.0969 72.4205L73.9031 73.2795C77.3605 66.01 79.07 57.4065 79.07 47.5H77.07ZM72.0947 72.4253C68.873 79.2926 64.4 84.5113 58.6855 88.1248L59.7545 89.8152C65.8267 85.9754 70.5404 80.4474 73.9053 73.2747L72.0947 72.4253ZM58.6855 88.1248C52.9652 91.7421 46.4368 93.56 39.07 93.56V95.56C46.7832 95.56 53.6882 93.6512 59.7545 89.8152L58.6855 88.1248ZM39.07 77.75C44.9649 77.75 49.608 75.1874 52.9067 70.1477L51.2333 69.0523C48.292 73.546 44.2684 75.75 39.07 75.75V77.75ZM52.8997 70.1582C56.2724 65.1447 57.88 57.5364 57.88 47.5H55.88C55.88 57.397 54.2809 64.522 51.2403 69.0418L52.8997 70.1582ZM57.88 47.5C57.88 37.4636 56.2724 29.8553 52.8997 24.8418L51.2403 25.9582C54.2809 30.478 55.88 37.603 55.88 47.5H57.88ZM52.9067 24.8523C49.608 19.8126 44.9649 17.25 39.07 17.25V19.25C44.2684 19.25 48.292 21.454 51.2333 25.9477L52.9067 24.8523ZM39.07 17.25C33.2569 17.25 28.6212 19.8161 25.2403 24.8418L26.8997 25.9582C29.9322 21.4505 33.9631 19.25 39.07 19.25V17.25ZM25.2333 24.8523C21.9534 29.8633 20.39 37.4668 20.39 47.5H22.39C22.39 37.5998 23.9466 30.4701 26.9067 25.9477L25.2333 24.8523ZM20.39 47.5C20.39 57.5332 21.9534 65.1367 25.2333 70.1477L26.9067 69.0523C23.9466 64.5299 22.39 57.4002 22.39 47.5H20.39ZM25.2403 70.1582C28.6212 75.1839 33.2569 77.75 39.07 77.75V75.75C33.9631 75.75 29.9322 73.5495 26.8997 69.0418L25.2403 70.1582ZM129.543 39.05L128.791 38.3903L127.601 39.7466L129.382 40.037L129.543 39.05ZM147.873 48.02L147.132 48.692L147.139 48.6989L147.873 48.02ZM150.083 79.87L150.93 80.4015L150.935 80.3941L150.083 79.87ZM137.343 90.53L136.918 89.6249L136.912 89.6274L137.343 90.53ZM97.5629 92.09L97.2918 93.0525L97.2997 93.0548L97.3077 93.0569L97.5629 92.09ZM81.8329 84.81L80.9414 84.357L80.5533 85.1209L81.2486 85.6215L81.8329 84.81ZM90.0229 68.69L90.6229 67.89L89.6706 67.1758L89.1314 68.237L90.0229 68.69ZM101.983 74.8L101.672 75.7505L101.683 75.754L101.694 75.7573L101.983 74.8ZM128.503 73.89L129.052 74.7257L129.06 74.7203L129.068 74.7147L128.503 73.89ZM106.403 54H105.403V55H106.403V54ZM106.403 40.09L105.653 39.4279L105.403 39.7115V40.09H106.403ZM125.123 18.9L125.872 19.5621L127.341 17.9H125.123V18.9ZM86.3829 18.9H85.3829V19.9H86.3829V18.9ZM86.3829 1.99999V0.999994H85.3829V1.99999H86.3829ZM150.083 1.99999H151.083V0.999994H150.083V1.99999ZM150.083 15.65L150.834 16.3097L151.083 16.0266V15.65H150.083ZM129.382 40.037C137.195 41.3108 143.076 44.2214 147.132 48.692L148.613 47.348C144.177 42.4586 137.837 39.3891 129.704 38.063L129.382 40.037ZM147.139 48.6989C151.198 53.0893 153.243 58.5591 153.243 65.18H155.243C155.243 58.1075 153.041 52.1374 148.607 47.3411L147.139 48.6989ZM153.243 65.18C153.243 70.2814 151.908 74.9967 149.231 79.3459L150.935 80.3941C153.805 75.73 155.243 70.6519 155.243 65.18H153.243ZM149.236 79.3385C146.584 83.5647 142.501 87.0024 136.918 89.6249L137.768 91.4351C143.625 88.6843 148.035 85.0153 150.93 80.4015L149.236 79.3385ZM136.912 89.6274C131.449 92.2329 124.673 93.56 116.543 93.56V95.56C124.88 95.56 131.97 94.2004 137.773 91.4326L136.912 89.6274ZM116.543 93.56C110.216 93.56 103.975 92.7479 97.818 91.1231L97.3077 93.0569C103.63 94.7254 110.043 95.56 116.543 95.56V93.56ZM97.834 91.1275C91.7715 89.4197 86.6391 87.0383 82.4172 83.9985L81.2486 85.6215C85.6933 88.8217 91.0476 91.2936 97.2918 93.0525L97.834 91.1275ZM82.7244 85.263L90.9144 69.143L89.1314 68.237L80.9414 84.357L82.7244 85.263ZM89.4229 69.49C92.9849 72.1615 97.0712 74.2464 101.672 75.7505L102.294 73.8495C97.8812 72.407 93.9942 70.4185 90.6229 67.89L89.4229 69.49ZM101.694 75.7573C106.38 77.1721 111.158 77.88 116.023 77.88V75.88C111.355 75.88 106.772 75.2012 102.272 73.8427L101.694 75.7573ZM116.023 77.88C121.42 77.88 125.797 76.8647 129.052 74.7257L127.954 73.0543C125.142 74.902 121.199 75.88 116.023 75.88V77.88ZM129.068 74.7147C132.378 72.4453 134.053 69.2312 134.053 65.18H132.053C132.053 68.5822 130.694 71.1747 127.937 73.0653L129.068 74.7147ZM134.053 65.18C134.053 61.1554 132.495 58.0276 129.344 55.959C126.267 53.9386 121.777 53 116.023 53V55C121.622 55 125.648 55.9247 128.247 57.631C130.772 59.289 132.053 61.7513 132.053 65.18H134.053ZM116.023 53H106.403V55H116.023V53ZM107.403 54V40.09H105.403V54H107.403ZM107.152 40.7521L125.872 19.5621L124.373 18.2379L105.653 39.4279L107.152 40.7521ZM125.123 17.9H86.3829V19.9H125.123V17.9ZM87.3829 18.9V1.99999H85.3829V18.9H87.3829ZM86.3829 2.99999H150.083V0.999994H86.3829V2.99999ZM149.083 1.99999V15.65H151.083V1.99999H149.083ZM149.331 14.9903L128.791 38.3903L130.294 39.7097L150.834 16.3097L149.331 14.9903Z" fill="#E61776" mask="url(#path-1-outside-1_287_791)"/>
</svg>
