<svg width="172" height="95" viewBox="0 0 172 95" fill="none" xmlns="http://www.w3.org/2000/svg">
<mask id="path-1-outside-1_287_796" maskUnits="userSpaceOnUse" x="-1" y="-1" width="174" height="97" fill="black">
<rect fill="white" x="-1" y="-1" width="174" height="97"/>
<path d="M39.07 94.56C31.53 94.56 24.8133 92.6967 18.92 88.97C13.0267 85.2433 8.39 79.87 5.01 72.85C1.71667 65.7433 0.0700001 57.2933 0.0700001 47.5C0.0700001 37.7067 1.71667 29.3 5.01 22.28C8.39 15.1733 13.0267 9.75666 18.92 6.03C24.8133 2.30333 31.53 0.439998 39.07 0.439998C46.61 0.439998 53.3267 2.30333 59.22 6.03C65.1133 9.75666 69.7067 15.1733 73 22.28C76.38 29.3 78.07 37.7067 78.07 47.5C78.07 57.2933 76.38 65.7433 73 72.85C69.7067 79.87 65.1133 85.2433 59.22 88.97C53.3267 92.6967 46.61 94.56 39.07 94.56ZM39.07 76.75C44.6167 76.75 48.95 74.3667 52.07 69.6C55.2767 64.8333 56.88 57.4667 56.88 47.5C56.88 37.5333 55.2767 30.1667 52.07 25.4C48.95 20.6333 44.6167 18.25 39.07 18.25C33.61 18.25 29.2767 20.6333 26.07 25.4C22.95 30.1667 21.39 37.5333 21.39 47.5C21.39 57.4667 22.95 64.8333 26.07 69.6C29.2767 74.3667 33.61 76.75 39.07 76.75ZM171.632 73.89H156.812V93H136.272V73.89H87.2624V59.72L130.162 1.99999H152.262L112.482 56.73H136.922V39.7H156.812V56.73H171.632V73.89Z"/>
</mask>
<path d="M18.92 88.97L19.4545 88.1248L18.92 88.97ZM5.01 72.85L4.10269 73.2705L4.1058 73.2772L4.109 73.2838L5.01 72.85ZM5.01 22.28L4.10692 21.8505L4.10468 21.8553L5.01 22.28ZM18.92 6.03L19.4545 6.87519L18.92 6.03ZM59.22 6.03L58.6855 6.87519L59.22 6.03ZM73 22.28L72.0927 22.7005L72.0958 22.7072L72.099 22.7138L73 22.28ZM73 72.85L72.0969 72.4205L72.0947 72.4253L73 72.85ZM59.22 88.97L58.6855 88.1248L59.22 88.97ZM52.07 69.6L51.2402 69.0418L51.2333 69.0523L52.07 69.6ZM52.07 25.4L51.2332 25.9477L51.2403 25.9582L52.07 25.4ZM26.07 25.4L25.2402 24.8418L25.2333 24.8523L26.07 25.4ZM26.07 69.6L25.2332 70.1477L25.2403 70.1582L26.07 69.6ZM39.07 93.56C31.7032 93.56 25.1749 91.7421 19.4545 88.1248L18.3855 89.8152C24.4518 93.6512 31.3568 95.56 39.07 95.56V93.56ZM19.4545 88.1248C13.7375 84.5097 9.21958 79.2878 5.911 72.4162L4.109 73.2838C7.56042 80.4522 12.3158 85.977 18.3855 89.8152L19.4545 88.1248ZM5.91731 72.4295C2.69833 65.4833 1.07 57.1834 1.07 47.5H-0.93C-0.93 57.4032 0.735006 66.0033 4.10269 73.2705L5.91731 72.4295ZM1.07 47.5C1.07 37.816 2.6985 29.5616 5.91533 22.7047L4.10468 21.8553C0.734839 29.0383 -0.93 37.5973 -0.93 47.5H1.07ZM5.91306 22.7095C9.22266 15.7509 13.7407 10.4883 19.4545 6.87519L18.3855 5.1848C12.3127 9.025 7.55735 14.5958 4.10694 21.8505L5.91306 22.7095ZM19.4545 6.87519C25.1749 3.25788 31.7032 1.44 39.07 1.44V-0.560002C31.3568 -0.560002 24.4518 1.34878 18.3855 5.1848L19.4545 6.87519ZM39.07 1.44C46.4368 1.44 52.9652 3.25788 58.6855 6.87519L59.7545 5.1848C53.6882 1.34878 46.7832 -0.560002 39.07 -0.560002V1.44ZM58.6855 6.87519C64.3968 10.4867 68.8699 15.7461 72.0927 22.7005L73.9073 21.8595C70.5434 14.6006 65.8298 9.02659 59.7545 5.1848L58.6855 6.87519ZM72.099 22.7138C75.3993 29.5683 77.07 37.8193 77.07 47.5H79.07C79.07 37.594 77.3607 29.0317 73.901 21.8462L72.099 22.7138ZM77.07 47.5C77.07 57.1802 75.3995 65.4767 72.0969 72.4205L73.9031 73.2795C77.3605 66.01 79.07 57.4065 79.07 47.5H77.07ZM72.0947 72.4253C68.873 79.2926 64.4 84.5113 58.6855 88.1248L59.7545 89.8152C65.8267 85.9754 70.5404 80.4474 73.9053 73.2747L72.0947 72.4253ZM58.6855 88.1248C52.9652 91.7421 46.4368 93.56 39.07 93.56V95.56C46.7832 95.56 53.6882 93.6512 59.7545 89.8152L58.6855 88.1248ZM39.07 77.75C44.9649 77.75 49.608 75.1874 52.9067 70.1477L51.2333 69.0523C48.292 73.546 44.2684 75.75 39.07 75.75V77.75ZM52.8997 70.1582C56.2724 65.1447 57.88 57.5364 57.88 47.5H55.88C55.88 57.397 54.2809 64.522 51.2403 69.0418L52.8997 70.1582ZM57.88 47.5C57.88 37.4636 56.2724 29.8553 52.8997 24.8418L51.2403 25.9582C54.2809 30.478 55.88 37.603 55.88 47.5H57.88ZM52.9067 24.8523C49.608 19.8126 44.9649 17.25 39.07 17.25V19.25C44.2684 19.25 48.292 21.454 51.2333 25.9477L52.9067 24.8523ZM39.07 17.25C33.2569 17.25 28.6212 19.8161 25.2403 24.8418L26.8997 25.9582C29.9322 21.4505 33.9631 19.25 39.07 19.25V17.25ZM25.2333 24.8523C21.9534 29.8633 20.39 37.4668 20.39 47.5H22.39C22.39 37.5998 23.9466 30.4701 26.9067 25.9477L25.2333 24.8523ZM20.39 47.5C20.39 57.5332 21.9534 65.1367 25.2333 70.1477L26.9067 69.0523C23.9466 64.5299 22.39 57.4002 22.39 47.5H20.39ZM25.2403 70.1582C28.6212 75.1839 33.2569 77.75 39.07 77.75V75.75C33.9631 75.75 29.9322 73.5495 26.8997 69.0418L25.2403 70.1582ZM171.632 73.89V74.89H172.632V73.89H171.632ZM156.812 73.89V72.89H155.812V73.89H156.812ZM156.812 93V94H157.812V93H156.812ZM136.272 93H135.272V94H136.272V93ZM136.272 73.89H137.272V72.89H136.272V73.89ZM87.2624 73.89H86.2624V74.89H87.2624V73.89ZM87.2624 59.72L86.4598 59.1235L86.2624 59.3891V59.72H87.2624ZM130.162 1.99999V0.999994H129.66L129.36 1.40347L130.162 1.99999ZM152.262 1.99999L153.071 2.58794L154.226 0.999994H152.262V1.99999ZM112.482 56.73L111.674 56.1421L110.519 57.73H112.482V56.73ZM136.922 56.73V57.73H137.922V56.73H136.922ZM136.922 39.7V38.7H135.922V39.7H136.922ZM156.812 39.7H157.812V38.7H156.812V39.7ZM156.812 56.73H155.812V57.73H156.812V56.73ZM171.632 56.73H172.632V55.73H171.632V56.73ZM171.632 72.89H156.812V74.89H171.632V72.89ZM155.812 73.89V93H157.812V73.89H155.812ZM156.812 92H136.272V94H156.812V92ZM137.272 93V73.89H135.272V93H137.272ZM136.272 72.89H87.2624V74.89H136.272V72.89ZM88.2624 73.89V59.72H86.2624V73.89H88.2624ZM88.065 60.3165L130.965 2.59652L129.36 1.40347L86.4598 59.1235L88.065 60.3165ZM130.162 2.99999H152.262V0.999994H130.162V2.99999ZM151.454 1.41205L111.674 56.1421L113.291 57.3179L153.071 2.58794L151.454 1.41205ZM112.482 57.73H136.922V55.73H112.482V57.73ZM137.922 56.73V39.7H135.922V56.73H137.922ZM136.922 40.7H156.812V38.7H136.922V40.7ZM155.812 39.7V56.73H157.812V39.7H155.812ZM156.812 57.73H171.632V55.73H156.812V57.73ZM170.632 56.73V73.89H172.632V56.73H170.632Z" fill="#E61776" mask="url(#path-1-outside-1_287_796)"/>
</svg>
