<svg width="100" height="100" viewBox="0 0 100 100" fill="none" xmlns="http://www.w3.org/2000/svg">
<g clip-path="url(#clip0_1010_2925)">
<path d="M58.0028 0.0265843C62.2856 0.161015 66.356 1.83279 69.5061 4.75749L94.7797 28.2302C99.2923 32.4212 101.244 38.6585 99.879 44.5149L92.2534 77.3989C90.8887 83.2553 86.4109 87.9361 80.5482 89.6166L47.6343 99.0128C45.9082 99.5121 44.1263 99.7329 42.3184 99.6762C38.0356 99.5418 33.9651 97.87 30.8151 94.9453L5.52681 71.4576C1.01418 67.2665 -0.937139 61.0293 0.42755 55.1728L8.05313 22.2889C9.41782 16.4324 13.8956 11.7516 19.7583 10.0712L52.6722 0.674971C54.3981 0.190199 56.1948 -0.0301641 58.0028 0.0265843ZM42.3243 99.2103C44.0878 99.2656 45.8252 99.0434 47.5065 98.5718L80.4204 89.1756C86.1342 87.5487 90.5067 82.9811 91.8249 77.2835L99.4505 44.3995C100.769 38.6873 98.8748 32.612 94.4792 28.5412L69.1908 5.06805C66.1285 2.2335 62.1614 0.594101 57.9972 0.463391C56.2337 0.408037 54.4963 0.63026 52.815 1.10187L19.9011 10.4981C14.1874 12.1249 9.81479 16.6925 8.49661 22.3902L0.871015 55.2742C-0.447354 60.9864 1.44674 67.0616 5.8423 71.1324L31.1308 94.6056C34.1928 97.4547 38.1601 99.0796 42.3243 99.2103Z" fill="#E61776"/>
<path d="M42.3243 99.2103C44.0878 99.2656 45.8252 99.0434 47.5065 98.5718L80.4204 89.1756C86.1342 87.5487 90.5067 82.9811 91.8249 77.2835L99.4505 44.3995C100.769 38.6873 98.8748 32.612 94.4792 28.5412L69.1908 5.06805C66.1285 2.2335 62.1614 0.594101 57.9972 0.463391C56.2337 0.408037 54.4963 0.63026 52.815 1.10187L19.9011 10.4981C14.1874 12.1249 9.81479 16.6925 8.49661 22.3902L0.871015 55.2742C-0.447354 60.9864 1.44674 67.0616 5.8423 71.1324L31.1308 94.6056C34.1928 97.4547 38.1601 99.0796 42.3243 99.2103Z" fill="#E61776"/>
<path opacity="0.1" d="M79.5019 13.1475H38.2636C36.1074 13.1475 34.3574 14.8975 34.3574 17.0537V23.4855C32.3279 21.8451 29.7459 20.8609 26.933 20.8609C20.4039 20.8609 15.1111 26.1537 15.1111 32.6828C15.1111 36.3752 16.8044 39.6711 19.4562 41.8391C18.5597 42.0156 17.8828 42.8049 17.8828 43.7547V88.4149C17.8828 91.6512 20.5058 94.2742 23.7421 94.2742H59.4882C59.4871 94.2742 59.4857 94.2742 59.4845 94.2742H59.617C62.8531 94.2742 65.4763 91.651 65.4763 88.4149V85.325H79.5021C81.6603 85.325 83.4084 83.577 83.4084 81.4188V17.0537C83.4082 14.8975 81.6601 13.1475 79.5019 13.1475Z" fill="#14141C"/>
<path d="M29.7317 57.5439V83.7274C29.7317 86.9635 27.1084 89.5867 23.8723 89.5867H59.6168C62.853 89.5867 65.4762 86.9635 65.4762 83.7274V57.5439H29.7317Z" fill="#FAFAF2"/>
<path d="M83.4082 12.3662V76.7315C83.4082 78.8897 81.6602 80.6377 79.5019 80.6377H38.2637C36.1074 80.6377 34.3574 78.8897 34.3574 76.7315V12.3662C34.3574 10.21 36.1074 8.45996 38.2637 8.45996H79.5019C81.6602 8.45996 83.4082 10.21 83.4082 12.3662Z" fill="#CCCCCC"/>
<path d="M76.3253 29.0808H41.4419C40.3632 29.0808 39.4888 28.2063 39.4888 27.1276V17.5796C39.4888 16.5009 40.3632 15.6265 41.4419 15.6265H76.3255C77.4042 15.6265 78.2786 16.5009 78.2786 17.5796V27.1276C78.2784 28.2063 77.404 29.0808 76.3253 29.0808Z" fill="#FAFAF2"/>
<path d="M45.6855 40.9337H41.3243C40.3104 40.9337 39.4888 40.1118 39.4888 39.0981V35.13C39.4888 34.1161 40.3106 33.2944 41.3243 33.2944H45.6855C46.6993 33.2944 47.521 34.1163 47.521 35.13V39.0981C47.5212 40.1118 46.6993 40.9337 45.6855 40.9337Z" fill="#FAFAF2"/>
<path d="M55.9379 40.9337H51.5768C50.5629 40.9337 49.7412 40.1118 49.7412 39.0981V35.13C49.7412 34.1161 50.5631 33.2944 51.5768 33.2944H55.9379C56.9518 33.2944 57.7734 34.1163 57.7734 35.13V39.0981C57.7734 40.1118 56.9516 40.9337 55.9379 40.9337Z" fill="#FAFAF2"/>
<path d="M66.1903 40.9337H61.8292C60.8153 40.9337 59.9937 40.1118 59.9937 39.0981V35.13C59.9937 34.1161 60.8155 33.2944 61.8292 33.2944H66.1903C67.2042 33.2944 68.0259 34.1163 68.0259 35.13V39.0981C68.0261 40.1118 67.2042 40.9337 66.1903 40.9337Z" fill="#FAFAF2"/>
<path d="M76.4428 40.9337H72.0816C71.0678 40.9337 70.2461 40.1118 70.2461 39.0981V35.13C70.2461 34.1161 71.068 33.2944 72.0816 33.2944H76.4428C77.4566 33.2944 78.2783 34.1163 78.2783 35.13V39.0981C78.2783 40.1118 77.4566 40.9337 76.4428 40.9337Z" fill="#FAFAF2"/>
<path d="M45.6855 51.8946H41.3243C40.3104 51.8946 39.4888 51.0728 39.4888 50.0591V46.0909C39.4888 45.0771 40.3106 44.2554 41.3243 44.2554H45.6855C46.6993 44.2554 47.521 45.0772 47.521 46.0909V50.0589C47.5212 51.0728 46.6993 51.8946 45.6855 51.8946Z" fill="#FAFAF2"/>
<path d="M55.9379 51.8946H51.5768C50.5629 51.8946 49.7412 51.0728 49.7412 50.0591V46.0909C49.7412 45.0771 50.5631 44.2554 51.5768 44.2554H55.9379C56.9518 44.2554 57.7734 45.0772 57.7734 46.0909V50.0589C57.7734 51.0728 56.9516 51.8946 55.9379 51.8946Z" fill="#FAFAF2"/>
<path d="M66.1903 51.8946H61.8292C60.8153 51.8946 59.9937 51.0728 59.9937 50.0591V46.0909C59.9937 45.0771 60.8155 44.2554 61.8292 44.2554H66.1903C67.2042 44.2554 68.0259 45.0772 68.0259 46.0909V50.0589C68.0261 51.0728 67.2042 51.8946 66.1903 51.8946Z" fill="#FAFAF2"/>
<path d="M76.4428 51.8946H72.0816C71.0678 51.8946 70.2461 51.0728 70.2461 50.0591V46.0909C70.2461 45.0771 71.068 44.2554 72.0816 44.2554H76.4428C77.4566 44.2554 78.2783 45.0772 78.2783 46.0909V50.0589C78.2783 51.0728 77.4566 51.8946 76.4428 51.8946Z" fill="#FAFAF2"/>
<path d="M45.6855 62.8556H41.3243C40.3104 62.8556 39.4888 62.0337 39.4888 61.02V57.0519C39.4888 56.038 40.3106 55.2163 41.3243 55.2163H45.6855C46.6993 55.2163 47.521 56.0382 47.521 57.0519V61.02C47.5212 62.0337 46.6993 62.8556 45.6855 62.8556Z" fill="#FAFAF2"/>
<path d="M55.9379 62.8556H51.5768C50.5629 62.8556 49.7412 62.0337 49.7412 61.02V57.0519C49.7412 56.038 50.5631 55.2163 51.5768 55.2163H55.9379C56.9518 55.2163 57.7734 56.0382 57.7734 57.0519V61.02C57.7734 62.0337 56.9516 62.8556 55.9379 62.8556Z" fill="#FAFAF2"/>
<path d="M66.1903 62.8556H61.8292C60.8153 62.8556 59.9937 62.0337 59.9937 61.02V57.0519C59.9937 56.038 60.8155 55.2163 61.8292 55.2163H66.1903C67.2042 55.2163 68.0259 56.0382 68.0259 57.0519V61.02C68.0261 62.0337 67.2042 62.8556 66.1903 62.8556Z" fill="#FAFAF2"/>
<path d="M76.4428 73.8167H72.0816C71.0678 73.8167 70.2461 72.9948 70.2461 71.9812V57.0519C70.2461 56.038 71.068 55.2163 72.0816 55.2163H76.4428C77.4566 55.2163 78.2783 56.0382 78.2783 57.0519V71.9812C78.2783 72.9948 77.4566 73.8167 76.4428 73.8167Z" fill="#FAFAF2"/>
<path d="M55.938 73.817H41.3243C40.3104 73.817 39.4888 72.9951 39.4888 71.9814V68.0133C39.4888 66.9994 40.3106 66.1777 41.3243 66.1777H55.938C56.9519 66.1777 57.7735 66.9996 57.7735 68.0133V71.9814C57.7735 72.9951 56.9517 73.817 55.938 73.817Z" fill="#FAFAF2"/>
<path d="M66.1903 73.817H61.8292C60.8153 73.817 59.9937 72.9951 59.9937 71.9814V68.0133C59.9937 66.9994 60.8155 66.1777 61.8292 66.1777H66.1903C67.2042 66.1777 68.0259 66.9996 68.0259 68.0133V71.9814C68.0261 72.9951 67.2042 73.817 66.1903 73.817Z" fill="#FAFAF2"/>
<path d="M51.8041 12.8817H43.6633C42.5846 12.8817 41.7102 12.0073 41.7102 10.9286V8.46045H53.7573V10.9286C53.7573 12.0073 52.8829 12.8817 51.8041 12.8817Z" fill="#FAFAF2"/>
<path d="M69.3862 21.9887C68.847 21.9887 68.4097 21.5514 68.4097 21.0121V20.4629C68.4097 19.9236 68.847 19.4863 69.3862 19.4863C69.9255 19.4863 70.3628 19.9236 70.3628 20.4629V21.0121C70.3628 21.5514 69.9257 21.9887 69.3862 21.9887Z" fill="#14141C"/>
<path d="M69.3862 25.2211C68.847 25.2211 68.4097 24.7838 68.4097 24.2445V23.6953C68.4097 23.1561 68.847 22.7188 69.3862 22.7188C69.9255 22.7188 70.3628 23.1561 70.3628 23.6953V24.2445C70.3628 24.7838 69.9257 25.2211 69.3862 25.2211Z" fill="#14141C"/>
<path d="M73.665 21.9887C73.1258 21.9887 72.6885 21.5514 72.6885 21.0121V20.4629C72.6885 19.9236 73.1258 19.4863 73.665 19.4863C74.2043 19.4863 74.6416 19.9236 74.6416 20.4629V21.0121C74.6416 21.5514 74.2043 21.9887 73.665 21.9887Z" fill="#14141C"/>
<path d="M73.665 25.2211C73.1258 25.2211 72.6885 24.7838 72.6885 24.2445V23.6953C72.6885 23.1561 73.1258 22.7188 73.665 22.7188C74.2043 22.7188 74.6416 23.1561 74.6416 23.6953V24.2445C74.6416 24.7838 74.2043 25.2211 73.665 25.2211Z" fill="#14141C"/>
<path d="M71.8004 19.5054H71.2512C70.712 19.5054 70.2747 19.0681 70.2747 18.5288C70.2747 17.9896 70.712 17.5522 71.2512 17.5522H71.8004C72.3397 17.5522 72.777 17.9896 72.777 18.5288C72.777 19.0681 72.3397 19.5054 71.8004 19.5054Z" fill="#14141C"/>
<path d="M71.8004 27.1553H71.2512C70.712 27.1553 70.2747 26.718 70.2747 26.1787C70.2747 25.6395 70.712 25.2021 71.2512 25.2021H71.8004C72.3397 25.2021 72.777 25.6395 72.777 26.1787C72.777 26.718 72.3397 27.1553 71.8004 27.1553Z" fill="#14141C"/>
<path d="M43.7797 27.1553H43.2305C42.6912 27.1553 42.2539 26.718 42.2539 26.1787C42.2539 25.6395 42.6912 25.2021 43.2305 25.2021H43.7797C44.3189 25.2021 44.7562 25.6395 44.7562 26.1787C44.7562 26.718 44.3189 27.1553 43.7797 27.1553Z" fill="#14141C"/>
<path d="M43.7797 23.9419H43.2305C42.6912 23.9419 42.2539 23.5046 42.2539 22.9653C42.2539 22.4261 42.6912 21.9888 43.2305 21.9888H43.7797C44.3189 21.9888 44.7562 22.4261 44.7562 22.9653C44.7562 23.5046 44.3189 23.9419 43.7797 23.9419Z" fill="#14141C"/>
<path d="M59.4883 89.5869H23.7422C20.5059 89.5869 17.8828 86.9639 17.8828 83.7275V39.0674C17.8828 37.9873 18.7578 37.1143 19.8359 37.1143H51.6758C52.7539 37.1143 53.6289 37.9873 53.6289 39.0674V83.7275C53.6289 86.9639 56.252 89.5869 59.4883 89.5869Z" fill="#FAFAF2"/>
<path d="M24.186 57.168H38.0179V89.2586H24.186V57.168Z" fill="#CCCCCC"/>
<path d="M46.9889 50.4912H23.8284C23.2891 50.4912 22.8518 50.0539 22.8518 49.5146C22.8518 48.9754 23.2891 48.5381 23.8284 48.5381H46.9891C47.5284 48.5381 47.9657 48.9754 47.9657 49.5146C47.9657 50.0539 47.5282 50.4912 46.9889 50.4912Z" fill="#14141C"/>
<path d="M27.4576 46.207H23.8281C23.2889 46.207 22.8516 45.7697 22.8516 45.2305C22.8516 44.6912 23.2889 44.2539 23.8281 44.2539H27.4576C27.9969 44.2539 28.4342 44.6912 28.4342 45.2305C28.4342 45.7697 27.9969 46.207 27.4576 46.207Z" fill="#14141C"/>
<path d="M38.3951 58.1445H23.8281C23.2889 58.1445 22.8516 57.7072 22.8516 57.168C22.8516 56.6287 23.2889 56.1914 23.8281 56.1914H38.3951C38.9344 56.1914 39.3717 56.6287 39.3717 57.168C39.3717 57.7072 38.9344 58.1445 38.3951 58.1445Z" fill="#14141C"/>
<path d="M38.3951 62.8174H23.8281C23.2889 62.8174 22.8516 62.3801 22.8516 61.8408C22.8516 61.3016 23.2889 60.8643 23.8281 60.8643H38.3951C38.9344 60.8643 39.3717 61.3016 39.3717 61.8408C39.3717 62.3801 38.9344 62.8174 38.3951 62.8174Z" fill="#14141C"/>
<path d="M38.3951 67.4902H23.8281C23.2889 67.4902 22.8516 67.0529 22.8516 66.5137C22.8516 65.9744 23.2889 65.5371 23.8281 65.5371H38.3951C38.9344 65.5371 39.3717 65.9744 39.3717 66.5137C39.3717 67.0529 38.9344 67.4902 38.3951 67.4902Z" fill="#14141C"/>
<path d="M38.3951 72.1636H23.8281C23.2889 72.1636 22.8516 71.7263 22.8516 71.187C22.8516 70.6478 23.2889 70.2104 23.8281 70.2104H38.3951C38.9344 70.2104 39.3717 70.6478 39.3717 71.187C39.3717 71.7263 38.9344 72.1636 38.3951 72.1636Z" fill="#14141C"/>
<path d="M38.3951 76.8364H23.8281C23.2889 76.8364 22.8516 76.3991 22.8516 75.8599C22.8516 75.3206 23.2889 74.8833 23.8281 74.8833H38.3951C38.9344 74.8833 39.3717 75.3206 39.3717 75.8599C39.3717 76.3991 38.9344 76.8364 38.3951 76.8364Z" fill="#14141C"/>
<path d="M46.3595 58.1445H43.9019C43.3626 58.1445 42.9253 57.7072 42.9253 57.168C42.9253 56.6287 43.3626 56.1914 43.9019 56.1914H46.3595C46.8987 56.1914 47.336 56.6287 47.336 57.168C47.336 57.7072 46.8987 58.1445 46.3595 58.1445Z" fill="#14141C"/>
<path d="M46.3595 62.8174H43.9019C43.3626 62.8174 42.9253 62.3801 42.9253 61.8408C42.9253 61.3016 43.3626 60.8643 43.9019 60.8643H46.3595C46.8987 60.8643 47.336 61.3016 47.336 61.8408C47.336 62.3801 46.8987 62.8174 46.3595 62.8174Z" fill="#14141C"/>
<path d="M46.3595 67.4902H43.9019C43.3626 67.4902 42.9253 67.0529 42.9253 66.5137C42.9253 65.9744 43.3626 65.5371 43.9019 65.5371H46.3595C46.8987 65.5371 47.336 65.9744 47.336 66.5137C47.336 67.0529 46.8987 67.4902 46.3595 67.4902Z" fill="#14141C"/>
<path d="M46.3595 72.1636H43.9019C43.3626 72.1636 42.9253 71.7263 42.9253 71.187C42.9253 70.6478 43.3626 70.2104 43.9019 70.2104H46.3595C46.8987 70.2104 47.336 70.6478 47.336 71.187C47.336 71.7263 46.8987 72.1636 46.3595 72.1636Z" fill="#14141C"/>
<path d="M46.3595 76.8364H43.9019C43.3626 76.8364 42.9253 76.3991 42.9253 75.8599C42.9253 75.3206 43.3626 74.8833 43.9019 74.8833H46.3595C46.8987 74.8833 47.336 75.3206 47.336 75.8599C47.336 76.3991 46.8987 76.8364 46.3595 76.8364Z" fill="#14141C"/>
<path d="M26.933 39.8176C33.462 39.8176 38.7548 34.5247 38.7548 27.9957C38.7548 21.4667 33.462 16.1738 26.933 16.1738C20.4039 16.1738 15.1111 21.4667 15.1111 27.9957C15.1111 34.5247 20.4039 39.8176 26.933 39.8176Z" fill="#CCCCCC"/>
<path d="M83.4092 35.9452C83.9485 35.9452 84.3858 35.5079 84.3858 34.9686V12.3667C84.3858 9.67432 82.1953 7.48389 79.5029 7.48389H38.2647C35.5723 7.48389 33.3818 9.67432 33.3818 12.3667V16.9474C31.4867 15.8368 29.2838 15.1972 26.9332 15.1972C19.8762 15.1972 14.1348 20.9386 14.1348 27.9956C14.1348 31.4823 15.5379 34.6462 17.807 36.9567C17.2473 37.497 16.907 38.2524 16.907 39.0669V83.7276C16.907 87.497 19.9736 90.5636 23.743 90.5636H59.4875C59.5098 90.5636 59.5305 90.5585 59.5524 90.5571C59.5742 90.5585 59.5949 90.5636 59.6172 90.5636C63.3865 90.5636 66.4531 87.497 66.4531 83.7276V81.6145H79.5031C82.1955 81.6145 84.386 79.4241 84.386 76.7317V40.1878C84.386 39.6485 83.9486 39.2112 83.4094 39.2112C82.8701 39.2112 82.4328 39.6485 82.4328 40.1878V76.7315C82.4328 78.347 81.1186 79.6612 79.5031 79.6612H54.6045V39.0669C54.6045 37.4515 53.2902 36.1372 51.6748 36.1372H39.859C39.3197 36.1372 38.8824 36.5745 38.8824 37.1138C38.8824 37.653 39.3197 38.0903 39.859 38.0903H51.6748C52.2133 38.0903 52.6514 38.5284 52.6514 39.0669V83.7276C52.6514 85.6386 53.4395 87.3688 54.7076 88.6104H23.7428C21.0504 88.6104 18.86 86.42 18.86 83.7276V39.0669C18.86 38.736 19.0283 38.4345 19.292 38.2565C21.426 39.8497 24.0711 40.794 26.933 40.794C33.99 40.794 39.7314 35.0526 39.7314 27.9956C39.7314 24.152 38.026 20.7013 35.3348 18.3534V12.3667C35.3348 10.7513 36.649 9.43701 38.2645 9.43701H79.5027C81.1182 9.43701 82.4324 10.7513 82.4324 12.3667V34.9686C82.4326 35.5079 82.8697 35.9452 83.4092 35.9452ZM54.6045 83.7274V81.6143H64.4996V83.7274C64.4996 86.4198 62.3092 88.6102 59.6168 88.6102C59.5945 88.6102 59.5738 88.6153 59.552 88.6167C59.5301 88.6153 59.5094 88.6102 59.4871 88.6102C56.7949 88.6102 54.6045 86.4198 54.6045 83.7274ZM37.7785 27.9956C37.7785 33.9759 32.9133 38.8409 26.9332 38.8409C20.9531 38.8409 16.0879 33.9757 16.0879 27.9956C16.0879 22.0155 20.9531 17.1503 26.9332 17.1503C32.9133 17.1503 37.7785 22.0153 37.7785 27.9956Z" fill="#14141C"/>
<path d="M26.933 36.9295C31.8671 36.9295 35.867 32.9296 35.867 27.9955C35.867 23.0614 31.8671 19.0615 26.933 19.0615C21.9989 19.0615 17.999 23.0614 17.999 27.9955C17.999 32.9296 21.9989 36.9295 26.933 36.9295Z" fill="#FAFAF2"/>
<path d="M28.2057 27.0188H27.9096V25.0306H29.7561C30.2954 25.0306 30.7327 24.5933 30.7327 24.054C30.7327 23.5147 30.2954 23.0774 29.7561 23.0774H27.9096V22.5864C27.9096 22.0472 27.4723 21.6099 26.9331 21.6099C26.3938 21.6099 25.9565 22.0472 25.9565 22.5864V23.0774H25.6604C24.0352 23.0774 22.7131 24.3995 22.7131 26.0247C22.7131 27.6499 24.0352 28.972 25.6604 28.972H25.9565V30.9603H24.1102C23.5709 30.9603 23.1336 31.3976 23.1336 31.9368C23.1336 32.4761 23.5709 32.9134 24.1102 32.9134H25.9565V33.4044C25.9565 33.9437 26.3938 34.381 26.9331 34.381C27.4723 34.381 27.9096 33.9437 27.9096 33.4044V32.9134H28.2057C29.8307 32.9134 31.1528 31.5913 31.1528 29.9661C31.1528 28.3409 29.8309 27.0188 28.2057 27.0188ZM25.6606 27.0188C25.1124 27.0188 24.6665 26.5729 24.6665 26.0247C24.6665 25.4765 25.1124 25.0306 25.6606 25.0306H25.9567V27.0188H25.6606ZM28.2057 30.9601H27.9096V28.9718H28.2057C28.7538 28.9718 29.1997 29.4177 29.1997 29.9659C29.1997 30.5142 28.754 30.9601 28.2057 30.9601Z" fill="#CCCCCC"/>
<path d="M46.9888 46.2183C46.4495 46.2183 46.0122 45.781 46.0122 45.2417V45.2193C46.0122 44.68 46.4495 44.2427 46.9888 44.2427C47.528 44.2427 47.9653 44.68 47.9653 45.2193V45.2417C47.9653 45.781 47.528 46.2183 46.9888 46.2183Z" fill="#14141C"/>
<path d="M43.9019 46.2183C43.3626 46.2183 42.9253 45.781 42.9253 45.2417V45.2193C42.9253 44.68 43.3626 44.2427 43.9019 44.2427C44.4411 44.2427 44.8784 44.68 44.8784 45.2193V45.2417C44.8784 45.781 44.4411 46.2183 43.9019 46.2183Z" fill="#14141C"/>
<path d="M21.2783 9.43682C21.0283 9.43682 20.7785 9.3415 20.5877 9.15088L19.5205 8.08369L18.4533 9.15088C18.0718 9.53213 17.4537 9.53213 17.0722 9.15088C16.6908 8.76943 16.6908 8.15107 17.0722 7.76982L18.83 6.01201C19.2115 5.63076 19.8296 5.63076 20.2111 6.01201L21.9689 7.76982C22.3503 8.15127 22.3503 8.76963 21.9689 9.15088C21.7781 9.3415 21.5283 9.43682 21.2783 9.43682Z" fill="#CCCCCC"/>
<path d="M15.1167 91.9944C14.8667 91.9944 14.6168 91.8991 14.426 91.7085L13.3588 90.6413L12.2917 91.7085C11.9102 92.0897 11.292 92.0897 10.9106 91.7085C10.5292 91.327 10.5292 90.7087 10.9106 90.3274L12.6684 88.5696C13.0499 88.1884 13.668 88.1884 14.0495 88.5696L15.8073 90.3274C16.1887 90.7089 16.1887 91.3272 15.8073 91.7085C15.6165 91.8991 15.3667 91.9944 15.1167 91.9944Z" fill="#CCCCCC"/>
<path d="M83.916 87.1805C83.666 87.1805 83.4162 87.0852 83.2253 86.8945L82.1581 85.8273L81.091 86.8945C80.7095 87.276 80.0914 87.2758 79.7099 86.8945C79.3285 86.5131 79.3285 85.8947 79.7099 85.5135L81.4677 83.7557C81.8492 83.3744 82.4673 83.3744 82.8488 83.7557L84.6066 85.5135C84.988 85.8949 84.988 86.5131 84.6066 86.8945C84.4158 87.0852 84.166 87.1805 83.916 87.1805Z" fill="#CCCCCC"/>
<path d="M13.3588 17.345C13.1088 17.345 12.859 17.2497 12.6682 17.0591C12.2867 16.6776 12.2867 16.0593 12.6682 15.678L14.6213 13.7249C15.0027 13.3437 15.6209 13.3437 16.0023 13.7249C16.3838 14.1063 16.3838 14.7247 16.0023 15.106L14.0492 17.0591C13.8586 17.2497 13.6088 17.345 13.3588 17.345Z" fill="#CCCCCC"/>
<path d="M88.7001 22.7444C88.4501 22.7444 88.2003 22.6491 88.0095 22.4585C87.628 22.0771 87.628 21.4587 88.0095 21.0774L89.9626 19.1243C90.344 18.7431 90.9622 18.7431 91.3436 19.1243C91.7251 19.5058 91.7251 20.1241 91.3436 20.5054L89.3905 22.4585C89.1999 22.6491 88.9501 22.7444 88.7001 22.7444Z" fill="#CCCCCC"/>
</g>
<defs>
<clipPath id="clip0_1010_2925">
<rect width="100" height="100" fill="white"/>
</clipPath>
</defs>
</svg>
