<svg width="100" height="103" viewBox="0 0 100 103" fill="none" xmlns="http://www.w3.org/2000/svg">
<path d="M85.2967 15.6727C88.7181 18.2524 91.0794 21.9656 91.9662 26.1716L99.0771 59.923C100.347 65.9493 98.344 72.1702 93.8517 76.1677L68.6579 98.6349C64.1657 102.632 57.8081 103.874 52.0494 101.866L19.7413 90.5611C18.0432 89.9736 16.4601 89.1264 15.0158 88.0374C11.5945 85.4577 9.23319 81.7445 8.34637 77.5385L1.23211 43.7664C-0.0375842 37.7401 1.96527 31.5192 6.45753 27.5217L31.6513 5.05445C36.1436 1.05699 42.5012 -0.184726 48.2599 1.8234L80.5679 13.1283C82.2575 13.7276 83.8524 14.5837 85.2967 15.6727ZM15.2894 87.6602C16.6982 88.7224 18.2457 89.5428 19.8912 90.1271L52.1993 101.432C57.8054 103.398 64.0117 102.188 68.3744 98.2935L93.5682 75.8263C97.9395 71.92 99.8957 65.8644 98.6523 60.0038L91.5295 26.2435C90.6624 22.1618 88.3669 18.5346 85.0402 16.0264C83.6315 14.9641 82.0839 14.1437 80.4384 13.5594L48.1303 2.25451C42.5242 0.288498 36.3179 1.4984 31.9552 5.39298L6.76139 27.8602C2.39013 31.7666 0.43397 37.8221 1.67735 43.6827L8.80016 77.4431C9.65868 81.5365 11.9627 85.1519 15.2894 87.6602Z" fill="#E61776"/>
<path d="M15.2894 87.6602C16.6982 88.7224 18.2457 89.5428 19.8912 90.1271L52.1993 101.432C57.8054 103.398 64.0117 102.188 68.3744 98.2935L93.5682 75.8263C97.9395 71.92 99.8957 65.8644 98.6523 60.0038L91.5295 26.2435C90.6624 22.1618 88.3669 18.5346 85.0402 16.0264C83.6315 14.9641 82.0839 14.1437 80.4384 13.5594L48.1303 2.25451C42.5242 0.288498 36.3179 1.4984 31.9552 5.39298L6.76139 27.8602C2.39013 31.7666 0.43397 37.8221 1.67735 43.6827L8.80016 77.4431C9.65868 81.5365 11.9627 85.1519 15.2894 87.6602Z" fill="#E61776"/>
<path opacity="0.1" d="M72.7602 12.5986H30.5595C29.4938 12.5986 28.6289 13.4635 28.6289 14.5292V43.7755H17.7675C16.1682 43.7755 14.8716 45.072 14.8716 46.6713V94.1041C14.8716 95.7034 16.1682 96.9999 17.7675 96.9999H83.2913C84.3589 96.9999 85.2219 96.135 85.2219 95.0694V25.0606L72.7602 12.5986Z" fill="#14141C"/>
<path d="M85.2221 20.4273V90.4361C85.2221 91.5017 84.3591 92.3666 83.2915 92.3666H30.5595C29.4938 92.3666 28.6289 91.5017 28.6289 90.4361V9.89592C28.6289 8.83023 29.4938 7.96533 30.5595 7.96533H72.7602L85.2221 20.4273Z" fill="#FAFAF2"/>
<path d="M77.4447 57.8052H34.0146C33.4816 57.8052 33.0493 57.373 33.0493 56.8399V26.0258C33.0493 25.4928 33.4816 25.0605 34.0146 25.0605H77.4447C77.9777 25.0605 78.41 25.4928 78.41 26.0258V56.8399C78.41 57.3731 77.9779 57.8052 77.4447 57.8052Z" fill="#CCCCCC"/>
<path d="M43.6163 57.8052H38.04V47.3044C38.04 46.7626 38.4792 46.3232 39.021 46.3232H42.6352C43.1769 46.3232 43.6162 46.7625 43.6162 47.3044V57.8052H43.6163Z" fill="#CCCCCC"/>
<path d="M51.2999 57.8053H45.7236V53.1906C45.7236 52.6489 46.1628 52.2095 46.7046 52.2095H50.3188C50.8605 52.2095 51.2997 52.6487 51.2997 53.1906V57.8053H51.2999Z" fill="#CCCCCC"/>
<path d="M58.9843 57.8052H53.408V43.7317C53.408 43.1899 53.8472 42.7507 54.3889 42.7507H58.0031C58.5449 42.7507 58.9841 43.1899 58.9841 43.7317V57.8052H58.9843Z" fill="#FAFAF2"/>
<path d="M74.3524 57.8052H68.7759V51.4778C68.7759 50.936 69.2151 50.4968 69.757 50.4968H73.3713C73.913 50.4968 74.3524 50.936 74.3524 51.4778V57.8052Z" fill="#FAFAF2"/>
<path d="M66.6683 57.8052H61.092V31.872C61.092 31.3303 61.5312 30.8909 62.073 30.8909H65.6872C66.2289 30.8909 66.6683 31.3301 66.6683 31.872V57.8052Z" fill="#FAFAF2"/>
<path d="M72.76 18.4967V7.96533L85.2219 20.4273H74.6906C73.6228 20.4273 72.76 19.5624 72.76 18.4967Z" fill="#FAFAF2"/>
<path d="M49.5248 92.3666H17.7675C16.1682 92.3666 14.8716 91.07 14.8716 89.4707V42.038C14.8716 40.4387 16.1682 39.1421 17.7675 39.1421H49.5248C51.1241 39.1421 52.4207 40.4387 52.4207 42.038V89.4707C52.4207 91.07 51.1243 92.3666 49.5248 92.3666Z" fill="#FAFAF2"/>
<path d="M46.2624 56.657H21.0294C20.3896 56.657 19.8711 56.1384 19.8711 55.4986V50.8112C19.8711 50.1714 20.3896 49.6528 21.0294 49.6528H46.2624C46.9022 49.6528 47.4207 50.1714 47.4207 50.8112V55.4986C47.4207 56.1384 46.9022 56.657 46.2624 56.657Z" fill="#CCCCCC"/>
<path d="M24.7812 64.5582H20.72C20.251 64.5582 19.8711 64.1781 19.8711 63.7094V59.9351C19.8711 59.4661 20.2512 59.0862 20.72 59.0862H24.7812C25.2501 59.0862 25.63 59.4663 25.63 59.9351V63.7094C25.63 64.1783 25.2501 64.5582 24.7812 64.5582Z" fill="#CCCCCC"/>
<path d="M31.8539 64.5582H28.0796C27.6106 64.5582 27.2307 64.1781 27.2307 63.7094V59.9351C27.2307 59.4661 27.6108 59.0862 28.0796 59.0862H31.8539C32.3228 59.0862 32.7028 59.4663 32.7028 59.9351V63.7094C32.7028 64.1783 32.3226 64.5582 31.8539 64.5582Z" fill="#CCCCCC"/>
<path d="M39.2128 64.5582H35.4385C34.9695 64.5582 34.5896 64.1781 34.5896 63.7094V59.9351C34.5896 59.4661 34.9697 59.0862 35.4385 59.0862H39.2128C39.6817 59.0862 40.0617 59.4663 40.0617 59.9351V63.7094C40.0617 64.1783 39.6815 64.5582 39.2128 64.5582Z" fill="#CCCCCC"/>
<path d="M24.7812 71.9408H20.72C20.251 71.9408 19.8711 71.5607 19.8711 71.0919V67.3176C19.8711 66.8487 20.2512 66.4688 20.72 66.4688H24.7812C25.2501 66.4688 25.63 66.8489 25.63 67.3176V71.0919C25.63 71.5607 25.2501 71.9408 24.7812 71.9408Z" fill="#CCCCCC"/>
<path d="M31.8539 71.9408H28.0796C27.6106 71.9408 27.2307 71.5607 27.2307 71.0919V67.3176C27.2307 66.8487 27.6108 66.4688 28.0796 66.4688H31.8539C32.3228 66.4688 32.7028 66.8489 32.7028 67.3176V71.0919C32.7028 71.5607 32.3226 71.9408 31.8539 71.9408Z" fill="#CCCCCC"/>
<path d="M39.2128 71.9408H35.4385C34.9695 71.9408 34.5896 71.5607 34.5896 71.0919V67.3176C34.5896 66.8487 34.9697 66.4688 35.4385 66.4688H39.2128C39.6817 66.4688 40.0617 66.8489 40.0617 67.3176V71.0919C40.0617 71.5607 39.6815 71.9408 39.2128 71.9408Z" fill="#CCCCCC"/>
<path d="M24.7812 79.3231H20.72C20.251 79.3231 19.8711 78.943 19.8711 78.4742V74.7C19.8711 74.231 20.2512 73.8511 20.72 73.8511H24.7812C25.2501 73.8511 25.63 74.2312 25.63 74.7V78.4742C25.63 78.9432 25.2501 79.3231 24.7812 79.3231Z" fill="#CCCCCC"/>
<path d="M31.8539 79.3231H28.0796C27.6106 79.3231 27.2307 78.943 27.2307 78.4742V74.7C27.2307 74.231 27.6108 73.8511 28.0796 73.8511H31.8539C32.3228 73.8511 32.7028 74.2312 32.7028 74.7V78.4742C32.7028 78.9432 32.3226 79.3231 31.8539 79.3231Z" fill="#CCCCCC"/>
<path d="M39.2128 79.3231H35.4385C34.9695 79.3231 34.5896 78.943 34.5896 78.4742V74.7C34.5896 74.231 34.9697 73.8511 35.4385 73.8511H39.2128C39.6817 73.8511 40.0617 74.2312 40.0617 74.7V78.4742C40.0617 78.9432 39.6815 79.3231 39.2128 79.3231Z" fill="#CCCCCC"/>
<path d="M24.7812 86.7057H20.72C20.251 86.7057 19.8711 86.3256 19.8711 85.8568V82.0825C19.8711 81.6136 20.2512 81.2336 20.72 81.2336H24.7812C25.2501 81.2336 25.63 81.6138 25.63 82.0825V85.8568C25.63 86.3256 25.2501 86.7057 24.7812 86.7057Z" fill="#CCCCCC"/>
<path d="M31.8539 86.7057H28.0796C27.6106 86.7057 27.2307 86.3256 27.2307 85.8568V82.0825C27.2307 81.6136 27.6108 81.2336 28.0796 81.2336H31.8539C32.3228 81.2336 32.7028 81.6138 32.7028 82.0825V85.8568C32.7028 86.3256 32.3226 86.7057 31.8539 86.7057Z" fill="#CCCCCC"/>
<path d="M39.2128 86.7057H35.4385C34.9695 86.7057 34.5896 86.3256 34.5896 85.8568V82.0825C34.5896 81.6136 34.9697 81.2336 35.4385 81.2336H39.2128C39.6817 81.2336 40.0617 81.6138 40.0617 82.0825V85.8568C40.0617 86.3256 39.6815 86.7057 39.2128 86.7057Z" fill="#CCCCCC"/>
<path d="M46.5721 64.5582H42.7979C42.3289 64.5582 41.949 64.1781 41.949 63.7094V59.9351C41.949 59.4661 42.3291 59.0862 42.7979 59.0862H46.5721C47.0411 59.0862 47.421 59.4663 47.421 59.9351V63.7094C47.421 64.1783 47.0409 64.5582 46.5721 64.5582Z" fill="#CCCCCC"/>
<path d="M46.5724 71.9408H42.7981C42.3292 71.9408 41.9492 71.5607 41.9492 71.0919V67.3176C41.9492 66.8487 42.3294 66.4688 42.7981 66.4688H46.5724C47.0413 66.4688 47.4213 66.8489 47.4213 67.3176V71.0919C47.4213 71.5607 47.0411 71.9408 46.5724 71.9408Z" fill="#CCCCCC"/>
<path d="M46.5724 86.7057H42.7981C42.3292 86.7057 41.9492 86.3256 41.9492 85.8569V74.7002C41.9492 74.2313 42.3294 73.8513 42.7981 73.8513H46.5724C47.0413 73.8513 47.4213 74.2315 47.4213 74.7002V85.8569C47.4213 86.3256 47.0411 86.7057 46.5724 86.7057Z" fill="#CCCCCC"/>
<path d="M28.3346 46.9134H21.449C20.5961 46.9134 19.9045 46.2219 19.9045 45.3689C19.9045 44.516 20.5961 43.8245 21.449 43.8245H28.3346C29.1876 43.8245 29.8791 44.516 29.8791 45.3689C29.8791 46.2219 29.1878 46.9134 28.3346 46.9134Z" fill="#CCCCCC"/>
<path d="M45.8763 46.9134C46.7292 46.9134 47.4207 46.2219 47.4207 45.3689C47.4207 44.5159 46.7292 43.8245 45.8763 43.8245C45.0233 43.8245 44.3318 44.5159 44.3318 45.3689C44.3318 46.2219 45.0233 46.9134 45.8763 46.9134Z" fill="#CCCCCC"/>
<path d="M41.4986 46.9134C42.3516 46.9134 43.043 46.2219 43.043 45.3689C43.043 44.5159 42.3516 43.8245 41.4986 43.8245C40.6456 43.8245 39.9541 44.5159 39.9541 45.3689C39.9541 46.2219 40.6456 46.9134 41.4986 46.9134Z" fill="#CCCCCC"/>
<path d="M43.1824 31.3078C46.4799 31.3078 49.153 28.6347 49.153 25.3372C49.153 22.0398 46.4799 19.3667 43.1824 19.3667C39.885 19.3667 37.2119 22.0398 37.2119 25.3372C37.2119 28.6347 39.885 31.3078 43.1824 31.3078Z" fill="#FAFAF2"/>
<path d="M46.1792 24.6744L43.56 22.0106C43.3524 21.7995 43.0123 21.7995 42.8045 22.0106L40.1853 24.6744C39.8559 25.0093 40.0932 25.5754 40.5629 25.5754H41.8361V28.2923C41.8361 28.5848 42.0732 28.8221 42.3659 28.8221H43.9986C44.2911 28.8221 44.5283 28.585 44.5283 28.2923V25.5754H45.8016C46.2711 25.5754 46.5084 25.0093 46.1792 24.6744Z" fill="#CCCCCC"/>
<path d="M60.6618 17.0625L62.6951 14.5535C63.0814 14.0769 63.8086 14.0769 64.1949 14.5535L66.2282 17.0625C66.7396 17.6936 66.2906 18.6356 65.4784 18.6356H61.4118C60.5994 18.6356 60.1504 17.6936 60.6618 17.0625Z" fill="#FAFAF2"/>
<path d="M58.9823 68.8694H76.6059C77.6721 68.8694 78.5365 68.0051 78.5365 66.9388V63.5329C78.5365 62.4666 77.6721 61.6023 76.6059 61.6023H58.9823C57.9161 61.6023 57.0518 62.4666 57.0518 63.5329V66.9388C57.0518 68.0049 57.9161 68.8694 58.9823 68.8694Z" fill="#FAFAF2"/>
<path d="M85.9045 19.7446L73.4426 7.28264C73.2615 7.10155 73.0161 7 72.7599 7H30.5593C28.9625 7 27.6634 8.29909 27.6634 9.89588V33.6757C27.6634 34.2087 28.0957 34.641 28.6287 34.641C29.1617 34.641 29.594 34.2087 29.594 33.6757V9.89588C29.594 9.36362 30.027 8.93058 30.5593 8.93058H71.7946V18.4966C71.7946 20.0934 73.0937 21.3925 74.6905 21.3925H84.2566V90.436C84.2566 90.9683 83.8235 91.4013 83.2913 91.4013H52.8635C53.1936 90.8326 53.3859 90.1744 53.3859 89.4707V42.038C53.3859 39.9089 51.6538 38.1768 49.5248 38.1768H17.7674C15.6384 38.1768 13.9062 39.9089 13.9062 42.038V89.4707C13.9062 91.5998 15.6384 93.3319 17.7674 93.3319H21.405C21.9381 93.3319 22.3703 92.8996 22.3703 92.3666C22.3703 91.8336 21.9381 91.4013 21.405 91.4013H17.7674C16.7029 91.4013 15.8368 90.5352 15.8368 89.4707V42.038C15.8368 40.9735 16.7029 40.1074 17.7674 40.1074H49.5248C50.5893 40.1074 51.4554 40.9735 51.4554 42.038V89.4707C51.4554 90.5352 50.5893 91.4013 49.5248 91.4013H27.0232C26.4902 91.4013 26.0579 91.8336 26.0579 92.3666C26.0579 92.8996 26.4902 93.3319 27.0232 93.3319H83.2913C84.8881 93.3319 86.1871 92.0328 86.1871 90.436V20.4272C86.1871 20.1712 86.0854 19.9257 85.9045 19.7446ZM73.7252 18.4966V10.2957L82.8914 19.4619H74.6905C74.1584 19.4619 73.7252 19.0289 73.7252 18.4966Z" fill="#14141C"/>
<path d="M36.2468 25.3374C36.2468 29.1619 39.3584 32.2733 43.1826 32.2733C47.0069 32.2733 50.1185 29.1619 50.1185 25.3374C50.1185 21.5129 47.0071 18.4016 43.1826 18.4016C39.3582 18.4016 36.2468 21.5129 36.2468 25.3374ZM48.1879 25.3374C48.1879 28.0974 45.9426 30.3427 43.1826 30.3427C40.4227 30.3427 38.1774 28.0974 38.1774 25.3374C38.1774 22.5777 40.4227 20.3322 43.1826 20.3322C45.9426 20.3322 48.1879 22.5775 48.1879 25.3374Z" fill="#14141C"/>
<path d="M58.0171 75.4015H67.7013C68.2343 75.4015 68.6665 74.9693 68.6665 74.4362C68.6665 73.9032 68.2343 73.4709 67.7013 73.4709H58.0171C57.484 73.4709 57.0518 73.9032 57.0518 74.4362C57.0518 74.9693 57.484 75.4015 58.0171 75.4015Z" fill="#14141C"/>
<path d="M58.0171 79.3366H74.0577C74.5907 79.3366 75.023 78.9043 75.023 78.3713C75.023 77.8383 74.5907 77.406 74.0577 77.406H58.0171C57.484 77.406 57.0518 77.8383 57.0518 78.3713C57.0518 78.9043 57.484 79.3366 58.0171 79.3366Z" fill="#14141C"/>
<path d="M58.0171 83.2712H68.6521C69.1851 83.2712 69.6174 82.8389 69.6174 82.3059C69.6174 81.7728 69.1851 81.3406 68.6521 81.3406H58.0171C57.484 81.3406 57.0518 81.7728 57.0518 82.3059C57.0518 82.8389 57.484 83.2712 58.0171 83.2712Z" fill="#14141C"/>
<path d="M70.7783 73.8473C71.3114 73.8473 71.7436 73.4152 71.7436 72.882C71.7436 72.3489 71.3114 71.9167 70.7783 71.9167C70.2452 71.9167 69.813 72.3489 69.813 72.882C69.813 73.4152 70.2452 73.8473 70.7783 73.8473Z" fill="#14141C"/>
<path d="M56.2476 15.1616C56.2476 14.6285 55.8154 14.1963 55.2823 14.1963H34.0146C33.4816 14.1963 33.0493 14.6285 33.0493 15.1616C33.0493 15.6946 33.4816 16.1269 34.0146 16.1269H55.2823C55.8154 16.1269 56.2476 15.6946 56.2476 15.1616Z" fill="#14141C"/>
<path d="M92.3415 66.5706C92.0944 66.5706 91.8474 66.4764 91.6588 66.288L90.7005 65.3297L89.7421 66.288C89.3651 66.6649 88.7541 66.6649 88.377 66.288C88 65.911 88 65.2997 88.377 64.9229L90.018 63.2819C90.3951 62.9051 91.0061 62.9051 91.3831 63.2819L93.0241 64.9229C93.4012 65.2999 93.4012 65.9112 93.0241 66.288C92.8355 66.4764 92.5886 66.5706 92.3415 66.5706Z" fill="#CCCCCC"/>
<path d="M11.2472 69.5291C11.0001 69.5291 10.7532 69.4349 10.5646 69.2465L9.60624 68.2882L8.6479 69.2465C8.27086 69.6233 7.65983 69.6233 7.28278 69.2465C6.90574 68.8695 6.90574 68.2582 7.28278 67.8814L8.92378 66.2404C9.30082 65.8636 9.91185 65.8636 10.2889 66.2404L11.9299 67.8814C12.3069 68.2584 12.3069 68.8696 11.9299 69.2465C11.7413 69.4349 11.4944 69.5291 11.2472 69.5291Z" fill="#CCCCCC"/>
<path d="M20.8595 27.8932C20.6124 27.8932 20.3655 27.799 20.1769 27.6105L19.2185 26.6522L18.2602 27.6105C17.8832 27.9874 17.2721 27.9874 16.8951 27.6105C16.518 27.2335 16.518 26.6223 16.8951 26.2454L18.5361 24.6044C18.9131 24.2276 19.5242 24.2276 19.9012 24.6044L21.5422 26.2454C21.9193 26.6225 21.9193 27.2337 21.5422 27.6105C21.3536 27.799 21.1067 27.8932 20.8595 27.8932Z" fill="#CCCCCC"/>
<path d="M9.99148 31.8713C9.82719 31.8713 9.66096 31.8294 9.50864 31.7412L9.48953 31.7302C9.02812 31.463 8.87077 30.8724 9.13797 30.411C9.40516 29.9496 9.99553 29.7921 10.4571 30.0594L10.4763 30.0704C10.9377 30.3376 11.095 30.9282 10.8278 31.3896C10.6487 31.6987 10.3247 31.8713 9.99148 31.8713Z" fill="#CCCCCC"/>
<path d="M14.7986 34.6471C14.6343 34.6471 14.4681 34.6052 14.3158 34.517L14.2967 34.506C13.8352 34.2388 13.6779 33.6482 13.9451 33.1868C14.2123 32.7254 14.8029 32.568 15.2643 32.8352L15.2834 32.8462C15.7448 33.1134 15.9021 33.704 15.6349 34.1654C15.456 34.4745 15.1318 34.6471 14.7986 34.6471Z" fill="#CCCCCC"/>
<path d="M9.99148 31.8713C9.82719 31.8713 9.66096 31.8294 9.50864 31.7412L9.48953 31.7302C9.02812 31.463 8.87077 30.8724 9.13797 30.411C9.40516 29.9496 9.99553 29.7921 10.4571 30.0594L10.4763 30.0704C10.9377 30.3376 11.095 30.9282 10.8278 31.3896C10.6487 31.6987 10.3247 31.8713 9.99148 31.8713Z" fill="#CCCCCC"/>
<path d="M14.7986 34.6471C14.6343 34.6471 14.4681 34.6052 14.3158 34.517L14.2967 34.506C13.8352 34.2388 13.6779 33.6482 13.9451 33.1868C14.2123 32.7254 14.8029 32.568 15.2643 32.8352L15.2834 32.8462C15.7448 33.1134 15.9021 33.704 15.6349 34.1654C15.456 34.4745 15.1318 34.6471 14.7986 34.6471Z" fill="#CCCCCC"/>
<path d="M14.7814 31.8714C14.4482 31.8714 14.1243 31.6986 13.9451 31.3897C13.6779 30.9285 13.8352 30.3379 14.2967 30.0706L14.3158 30.0596C14.7772 29.7924 15.3677 29.9499 15.6349 30.4111C15.9021 30.8723 15.7448 31.4629 15.2834 31.7303L15.2643 31.7413C15.1121 31.8295 14.9457 31.8714 14.7814 31.8714Z" fill="#CCCCCC"/>
<path d="M9.9743 34.6472C9.64108 34.6472 9.31713 34.4744 9.13797 34.1655C8.87077 33.7043 9.02812 33.1137 9.48953 32.8464L9.50864 32.8353C9.97005 32.5683 10.5606 32.7257 10.8278 33.1869C11.095 33.6481 10.9377 34.2387 10.4763 34.5061L10.4571 34.5171C10.305 34.6053 10.1384 34.6472 9.9743 34.6472Z" fill="#CCCCCC"/>
<path d="M14.7814 31.8714C14.4482 31.8714 14.1243 31.6986 13.9451 31.3897C13.6779 30.9285 13.8352 30.3379 14.2967 30.0706L14.3158 30.0596C14.7772 29.7924 15.3677 29.9499 15.6349 30.4111C15.9021 30.8723 15.7448 31.4629 15.2834 31.7303L15.2643 31.7413C15.1121 31.8295 14.9457 31.8714 14.7814 31.8714Z" fill="#CCCCCC"/>
<path d="M9.9743 34.6472C9.64108 34.6472 9.31713 34.4744 9.13797 34.1655C8.87077 33.7043 9.02812 33.1137 9.48953 32.8464L9.50864 32.8353C9.97005 32.5683 10.5606 32.7257 10.8278 33.1869C11.095 33.6481 10.9377 34.2387 10.4763 34.5061L10.4571 34.5171C10.305 34.6053 10.1384 34.6472 9.9743 34.6472Z" fill="#CCCCCC"/>
<path d="M12.3864 30.489C11.8534 30.489 11.4211 30.0567 11.4211 29.5237V29.5017C11.4211 28.9686 11.8534 28.5364 12.3864 28.5364C12.9195 28.5364 13.3517 28.9686 13.3517 29.5017V29.5237C13.3517 30.0567 12.9195 30.489 12.3864 30.489Z" fill="#CCCCCC"/>
<path d="M12.3867 36.0402C11.8536 36.0402 11.4214 35.608 11.4214 35.0749V35.0529C11.4214 34.5199 11.8536 34.0876 12.3867 34.0876C12.9197 34.0876 13.352 34.5199 13.352 35.0529V35.0749C13.352 35.608 12.9197 36.0402 12.3867 36.0402Z" fill="#CCCCCC"/>
<path d="M84.637 11.0236C84.4727 11.0236 84.3065 10.9817 84.1541 10.8934L84.135 10.8824C83.6736 10.6152 83.5163 10.0247 83.7835 9.56326C84.0507 9.10185 84.641 8.9445 85.1026 9.2117L85.1217 9.2227C85.5831 9.48989 85.7405 10.0805 85.4733 10.5419C85.2941 10.8508 84.97 11.0236 84.637 11.0236Z" fill="#CCCCCC"/>
<path d="M89.4441 13.7994C89.2798 13.7994 89.1136 13.7575 88.9613 13.6693L88.9422 13.6583C88.4808 13.3911 88.3234 12.8005 88.5906 12.3391C88.8578 11.8777 89.4482 11.7204 89.9098 11.9876L89.9289 11.9986C90.3903 12.2658 90.5476 12.8563 90.2804 13.3177C90.1015 13.6266 89.7773 13.7994 89.4441 13.7994Z" fill="#CCCCCC"/>
<path d="M84.637 11.0236C84.4727 11.0236 84.3065 10.9817 84.1541 10.8934L84.135 10.8824C83.6736 10.6152 83.5163 10.0247 83.7835 9.56326C84.0507 9.10185 84.641 8.9445 85.1026 9.2117L85.1217 9.2227C85.5831 9.48989 85.7405 10.0805 85.4733 10.5419C85.2941 10.8508 84.97 11.0236 84.637 11.0236Z" fill="#CCCCCC"/>
<path d="M89.4441 13.7994C89.2798 13.7994 89.1136 13.7575 88.9613 13.6693L88.9422 13.6583C88.4808 13.3911 88.3234 12.8005 88.5906 12.3391C88.8578 11.8777 89.4482 11.7204 89.9098 11.9876L89.9289 11.9986C90.3903 12.2658 90.5476 12.8563 90.2804 13.3177C90.1015 13.6266 89.7773 13.7994 89.4441 13.7994Z" fill="#CCCCCC"/>
<path d="M89.4269 11.0234C89.0937 11.0234 88.7698 10.8506 88.5906 10.5417C88.3234 10.0805 88.4808 9.48989 88.9422 9.2225L88.9613 9.2115C89.4225 8.94411 90.013 9.10184 90.2804 9.56306C90.5476 10.0243 90.3903 10.6148 89.9289 10.8822L89.9098 10.8932C89.7576 10.9815 89.591 11.0234 89.4269 11.0234Z" fill="#CCCCCC"/>
<path d="M84.6198 13.7991C84.2866 13.7991 83.9626 13.6264 83.7835 13.3175C83.5163 12.8562 83.6736 12.2657 84.135 11.9983L84.1541 11.9873C84.6157 11.7201 85.2061 11.8776 85.4733 12.3388C85.7405 12.8001 85.5831 13.3906 85.1217 13.658L85.1026 13.669C84.9503 13.7572 84.7839 13.7991 84.6198 13.7991Z" fill="#CCCCCC"/>
<path d="M89.4269 11.0234C89.0937 11.0234 88.7698 10.8506 88.5906 10.5417C88.3234 10.0805 88.4808 9.48989 88.9422 9.2225L88.9613 9.2115C89.4225 8.94411 90.013 9.10184 90.2804 9.56306C90.5476 10.0243 90.3903 10.6148 89.9289 10.8822L89.9098 10.8932C89.7576 10.9815 89.591 11.0234 89.4269 11.0234Z" fill="#CCCCCC"/>
<path d="M84.6198 13.7991C84.2866 13.7991 83.9626 13.6264 83.7835 13.3175C83.5163 12.8562 83.6736 12.2657 84.135 11.9983L84.1541 11.9873C84.6157 11.7201 85.2061 11.8776 85.4733 12.3388C85.7405 12.8001 85.5831 13.3906 85.1217 13.658L85.1026 13.669C84.9503 13.7572 84.7839 13.7991 84.6198 13.7991Z" fill="#CCCCCC"/>
<path d="M87.0319 9.64107C86.4989 9.64107 86.0667 9.20881 86.0667 8.67578V8.65377C86.0667 8.12073 86.4989 7.68848 87.0319 7.68848C87.565 7.68848 87.9972 8.12073 87.9972 8.65377V8.67578C87.9972 9.20881 87.565 9.64107 87.0319 9.64107Z" fill="#CCCCCC"/>
<path d="M87.0322 15.1923C86.4992 15.1923 86.0669 14.7601 86.0669 14.227V14.205C86.0669 13.672 86.4992 13.2397 87.0322 13.2397C87.5652 13.2397 87.9975 13.672 87.9975 14.205V14.227C87.9975 14.7601 87.5652 15.1923 87.0322 15.1923Z" fill="#CCCCCC"/>
</svg>
