<svg width="60" height="60" viewBox="0 0 60 60" fill="none" xmlns="http://www.w3.org/2000/svg">
<path d="M32.1517 59.7979C33.1864 59.5904 34.1681 59.225 35.0832 58.722L52.9752 48.7803C56.0818 47.057 58.0072 43.8045 58 40.3095L57.9684 20.1359C57.9593 16.6324 56.0297 13.3542 52.9159 11.5826L34.9942 1.35908C32.825 0.125681 30.2915 -0.289215 27.8483 0.200693C26.8136 0.408163 25.8319 0.773623 24.9168 1.27659L7.02479 11.2183C3.9182 12.9416 1.99276 16.1941 2.00002 19.6891L2.03158 39.8627C2.04071 43.3662 3.97027 46.6444 7.08412 48.416L25.0058 58.6395C27.1768 59.8814 29.7085 60.2878 32.1517 59.7979Z" fill="#737380"/>
<path d="M32.1517 59.7979C33.1864 59.5904 34.1681 59.225 35.0832 58.722L52.9752 48.7803C56.0818 47.057 58.0072 43.8045 58 40.3095L57.9684 20.1359C57.9593 16.6324 56.0297 13.3542 52.9159 11.5826L34.9942 1.35908C32.825 0.125681 30.2915 -0.289215 27.8483 0.200693C26.8136 0.408163 25.8319 0.773623 24.9168 1.27659L7.02479 11.2183C3.9182 12.9416 1.99276 16.1941 2.00002 19.6891L2.03158 39.8627C2.04071 43.3662 3.97027 46.6444 7.08412 48.416L25.0058 58.6395C27.1768 59.8814 29.7085 60.2878 32.1517 59.7979Z" fill="#737380"/>
<mask id="mask0_907_3088" style="mask-type:alpha" maskUnits="userSpaceOnUse" x="10" y="10" width="40" height="40">
<circle cx="30" cy="30" r="20" fill="#D9D9D9"/>
</mask>
<g mask="url(#mask0_907_3088)">
<path d="M6.3137 24.3002C8.06216 31.5109 15.2877 36.7931 23.7785 36.5554C32.2692 36.3176 39.1879 30.6394 40.5301 23.3421C40.763 24.3027 40.8987 25.2974 40.9273 26.3179C41.1704 34.9992 33.5674 42.2551 23.9456 42.5245C14.3238 42.7939 6.32671 35.9748 6.08363 27.2935C6.05506 26.2731 6.1349 25.2723 6.3137 24.3002Z" fill="url(#paint0_linear_907_3088)"/>
<path d="M6.26398 34.6698C11.4868 39.9399 20.4024 40.7288 27.549 36.138C34.6956 31.5472 37.685 23.1107 35.0636 16.1696C35.7594 16.8716 36.3896 17.6532 36.9414 18.5121C41.6352 25.819 38.875 35.9598 30.7764 41.1622C22.6778 46.3646 12.3075 44.6585 7.61371 37.3515C7.06194 36.4926 6.61318 35.5945 6.26398 34.6698Z" fill="url(#paint1_linear_907_3088)"/>
<path d="M4.52796 39.2321C13.1785 44.0509 23.433 42.9746 28.7811 36.1917C34.1292 29.4089 33.7037 20.2878 26.9999 13C28.1523 13.6419 28.3563 13.2869 29.4363 14.1385C38.624 21.3828 41.1591 33.4865 35.0985 41.1729C29.038 48.8592 16.6768 49.2176 7.48911 41.9732C6.40908 41.1217 5.42097 40.2029 4.52796 39.2321Z" fill="url(#paint2_linear_907_3088)"/>
<path d="M11.6262 45.9732C19.2981 47.9402 27.8984 43.7789 31.9309 35.6579C35.9634 27.537 34.0805 18.1702 27.8764 13.2471C28.8984 13.5091 29.9039 13.8799 30.88 14.3646C39.1831 18.4875 42.2097 29.2901 37.64 38.4928C33.0704 47.6956 22.6349 51.8136 14.3318 47.6906C13.3558 47.2059 12.4526 46.629 11.6262 45.9732Z" fill="url(#paint3_linear_907_3088)"/>
<path d="M18.2027 50.6999C25.9868 50.3782 32.9084 44.0207 34.405 35.2282C35.9017 26.4356 31.4732 18.1462 24.2338 15.2673C25.2707 15.2245 26.323 15.2887 27.3797 15.4686C36.3695 16.9988 42.2823 26.3165 40.5864 36.2803C38.8904 46.2441 30.2278 53.0809 21.238 51.5507C20.1813 51.3708 19.167 51.0833 18.2027 50.6999Z" fill="url(#paint4_linear_907_3088)"/>
<path d="M46.4299 40.5648C49.6973 33.0727 47.3042 24.0785 40.3134 19.2843C33.3226 14.49 24.0703 15.4977 18.2582 21.2447C18.6935 20.2467 19.2292 19.2753 19.8678 18.3441C24.1066 12.1633 31 9.33333 37.5731 11.4608C43.6667 14 41.2587 12.8058 43 14C50.922 19.4329 53.9889 30.0964 48.5559 38.0184C47.9173 38.9496 47.2041 39.7993 46.4299 40.5648Z" fill="url(#paint5_linear_907_3088)"/>
<path d="M19.5449 33.0293C19.4487 33.1117 19.5449 33.4429 19.2899 33.5959C18.95 33.7998 18.4668 33.6243 18.1568 33.5675L18.0718 33.1993L18.1284 31.5845L18.3267 30.2814L18.4684 29.1766L19.9698 27.7318L22.9726 26.627L23.8225 26.2588V22.4344L24.1624 18.4117C24.814 18.1001 27.0916 17.8225 30.9896 19.2049C34.8876 20.5874 35.6034 24.0047 36 25.6667C36 25.6667 32.392 31.4495 29.3466 34.7573C28.7965 35.3547 25.6667 35 25.6667 35C30 32.6667 30.9896 30.2814 30.3333 26.627C30.0568 25.0872 28.7708 23.9641 26.8536 23.9641C25.2103 23.9641 25.6638 25.7772 24.9273 26.967C24.1908 28.1568 22.576 28.4117 21.6695 28.8933C20.763 29.3749 20.1681 30.4797 19.8848 31.1596C19.6015 31.8395 19.8848 31.9528 19.8848 32.2644C19.8848 32.6327 19.7432 32.8593 19.5449 33.0293Z" fill="url(#paint6_linear_907_3088)"/>
<path fill-rule="evenodd" clip-rule="evenodd" d="M17.1742 21.2779C16.8492 22.0547 16.5822 22.6928 16.4855 22.9443C16.2022 23.6809 16.2588 23.9642 16.3722 24.2191C16.766 25.1052 15.7772 29.1766 15.3806 30.2248C15.3556 30.291 15.3313 30.3546 15.308 30.4158C14.9617 31.3237 14.8162 31.7053 15.2673 32.2361C15.6317 32.6648 15.915 32.9313 16.1172 33.1215C16.1822 33.1827 16.2389 33.236 16.2872 33.2843C16.2938 33.2922 16.3011 33.3011 16.3091 33.3108C16.4158 33.4404 16.6429 33.7164 16.8537 33.7375C17.0012 33.7523 17.0992 33.6979 17.1992 33.6424C17.2913 33.5913 17.3851 33.5392 17.5209 33.5392C17.6182 33.5392 17.7236 33.5492 17.8259 33.559C18.0215 33.5775 18.2055 33.595 18.2985 33.5392C18.4401 33.4542 18.5535 33.1993 18.5251 32.916C18.516 32.8251 18.4895 32.7488 18.465 32.6787C18.4133 32.5302 18.3712 32.4093 18.5251 32.2361C18.6481 32.0977 18.6376 31.7924 18.6249 31.4244C18.6142 31.1144 18.602 30.7598 18.6668 30.4231C18.8084 29.6865 20.1965 28.1001 21.103 27.5619C21.4413 27.3611 21.784 27.2864 22.135 27.2098C22.7248 27.0813 23.3379 26.9476 23.9925 26.2021C24.7049 25.3908 24.588 23.778 24.4913 22.4447C24.4496 21.8691 24.4116 21.3457 24.4458 20.9613C24.5591 19.6865 25.2957 17.8735 28.4685 18.695C31.6413 19.5166 36.0322 23.3693 36.9387 26.1171L39.9982 23.0576C38.5723 21.5279 34.8411 18.256 31.4713 16.9953C27.5336 15.5222 22.9765 16.2852 21.3334 17.3334C21.3334 17.3334 18.7234 15.3333 17.2503 14.7574C17.3716 15.0828 17.6713 15.8402 18.0149 16.7086C18.1798 17.1253 18.3549 17.5676 18.5251 18C18.1517 18.9418 17.6107 20.2348 17.1742 21.2779ZM18.3334 23.723C18.0709 24.2479 17.3334 24.0563 17.3334 24.0563C17.3334 24.0563 17.544 24.5563 17.7749 24.723C18.0058 24.8896 18.3675 24.8592 18.6667 24.6888C19.1272 24.4267 19.3334 23.3555 19.3334 23.3555C19.3334 23.3555 18.5959 23.198 18.3334 23.723Z" fill="white"/>
<path d="M20.3333 36.3333C34.5882 34.5203 34 21.3333 28.3333 18.6667C31.8744 19.4032 35.8233 23.0935 36.3333 24C34.9961 36.7592 26.6666 37.3333 20.3333 36.3333Z" fill="url(#paint7_linear_907_3088)"/>
<path d="M28.4044 51.6413C35.5421 48.7341 40.1311 40.5278 38.5785 31.8424C37.0346 23.2054 30.2416 17.6526 22.5912 17.3408C22.5483 17.3391 22.3765 17.3347 22.3335 17.3333C23.2843 16.9461 24.4141 16.6561 25.458 16.4695C34.3383 14.8821 42.9251 20.9085 44.6845 30.7509C46.4439 40.5933 41.9444 49.6314 31.791 51.4464C30.7471 51.633 29.4305 51.6752 28.4044 51.6413Z" fill="url(#paint8_linear_907_3088)"/>
<path d="M38.6015 48.203C44.3009 43.1488 45.6167 34.0544 41.3172 26.4673C37.0176 18.8802 28.5395 15.3359 21.275 17.6282C21.4544 17.4692 21.3333 17.3333 21.3333 17.3333C21.3333 17.3333 23.0866 16.2314 23.7831 15.8367C31.5404 11.4407 41.7787 14.8469 46.651 23.4446C51.5233 32.0424 49.1845 42.5759 41.4272 46.9719C40.5153 47.4887 39.5692 47.8976 38.6015 48.203Z" fill="url(#paint9_linear_907_3088)"/>
<path d="M38.6599 48.2869C44.3593 43.2327 45.6751 34.1383 41.3756 26.5512C37.0761 18.9641 28.5979 15.4198 21.3335 17.7121C21.5128 17.5531 21.3918 17.4172 21.3918 17.4172C21.3918 17.4172 23.1451 16.3153 23.8416 15.9206C31.5989 11.5246 41.8372 14.9308 46.7095 23.5285C51.5818 32.1263 49.243 42.6598 41.4857 47.0558C40.5738 47.5726 39.6276 47.9815 38.6599 48.2869Z" fill="url(#paint10_linear_907_3088)"/>
</g>
<defs>
<linearGradient id="paint0_linear_907_3088" x1="8.4" y1="33.2" x2="29.5539" y2="40.3247" gradientUnits="userSpaceOnUse">
<stop stop-color="#73737F"/>
<stop offset="1" stop-color="white"/>
</linearGradient>
<linearGradient id="paint1_linear_907_3088" x1="11.6667" y1="37.9167" x2="30.7493" y2="41.4117" gradientUnits="userSpaceOnUse">
<stop stop-color="#73737F"/>
<stop offset="1" stop-color="white"/>
</linearGradient>
<linearGradient id="paint2_linear_907_3088" x1="13.8516" y1="40.5854" x2="33.7101" y2="35.6841" gradientUnits="userSpaceOnUse">
<stop stop-color="#73737F"/>
<stop offset="1" stop-color="white"/>
</linearGradient>
<linearGradient id="paint3_linear_907_3088" x1="20.4" y1="47.6" x2="36.04" y2="37.646" gradientUnits="userSpaceOnUse">
<stop stop-color="#73737F"/>
<stop offset="1" stop-color="white"/>
</linearGradient>
<linearGradient id="paint4_linear_907_3088" x1="30.0002" y1="50.8" x2="38.22" y2="34.5147" gradientUnits="userSpaceOnUse">
<stop stop-color="#73737F"/>
<stop offset="1" stop-color="white"/>
</linearGradient>
<linearGradient id="paint5_linear_907_3088" x1="49.6" y1="37.2" x2="42.5381" y2="14.6769" gradientUnits="userSpaceOnUse">
<stop stop-color="#353540"/>
<stop offset="1" stop-color="white"/>
</linearGradient>
<linearGradient id="paint6_linear_907_3088" x1="47.6667" y1="-7.00001" x2="52.5834" y2="36.6386" gradientUnits="userSpaceOnUse">
<stop stop-color="#73737F"/>
<stop offset="1" stop-color="white"/>
</linearGradient>
<linearGradient id="paint7_linear_907_3088" x1="32.0194" y1="32.8801" x2="34.5122" y2="23.5856" gradientUnits="userSpaceOnUse">
<stop stop-color="white"/>
<stop offset="1" stop-color="white"/>
</linearGradient>
<linearGradient id="paint8_linear_907_3088" x1="36.8" y1="48" x2="38" y2="28.4" gradientUnits="userSpaceOnUse">
<stop stop-color="#73737F"/>
<stop offset="1" stop-color="white"/>
</linearGradient>
<linearGradient id="paint9_linear_907_3088" x1="41.6667" y1="41" x2="41.7524" y2="18.3387" gradientUnits="userSpaceOnUse">
<stop stop-color="#73737F"/>
<stop offset="1" stop-color="white"/>
</linearGradient>
<linearGradient id="paint10_linear_907_3088" x1="41.6668" y1="46.25" x2="42.3906" y2="24.0453" gradientUnits="userSpaceOnUse">
<stop stop-color="#73737F"/>
<stop offset="1" stop-color="white"/>
</linearGradient>
</defs>
</svg>
