<svg width="60" height="60" viewBox="0 0 60 60" fill="none" xmlns="http://www.w3.org/2000/svg">
<rect width="60" height="60" rx="30" fill="#E61776"/>
<rect x="0.5" y="0.5" width="59" height="59" rx="29.5" fill="url(#paint0_linear_294_612)" stroke="#E61776"/>
<path d="M30 23.4561C32.1205 23.4561 32.4096 23.4561 33.2771 23.4561C34.0482 23.4561 34.4337 23.6502 34.7229 23.7473C35.1084 23.9414 35.3976 24.0385 35.6867 24.3297C35.9759 24.621 36.1687 24.9122 36.2651 25.3005C36.3614 25.5917 36.4578 25.98 36.5542 26.7565C36.5542 27.6302 36.5542 27.8243 36.5542 30.057C36.5542 32.2897 36.5542 32.4838 36.5542 33.3575C36.5542 34.134 36.3614 34.5223 36.2651 34.8136C36.0723 35.2018 35.9759 35.4931 35.6867 35.7843C35.3976 36.0755 35.1084 36.2696 34.7229 36.3667C34.4337 36.4638 34.0482 36.5609 33.2771 36.6579C32.4096 36.6579 32.2169 36.6579 30 36.6579C27.7831 36.6579 27.5904 36.6579 26.7229 36.6579C25.9518 36.6579 25.5663 36.4638 25.2771 36.3667C24.8916 36.1726 24.6024 36.0755 24.3133 35.7843C24.0241 35.4931 23.8313 35.2018 23.7349 34.8136C23.6386 34.5223 23.5422 34.134 23.4458 33.3575C23.4458 32.4838 23.4458 32.2897 23.4458 30.057C23.4458 27.8243 23.4458 27.6302 23.4458 26.7565C23.4458 25.98 23.6386 25.5917 23.7349 25.3005C23.9277 24.9122 24.0241 24.621 24.3133 24.3297C24.6024 24.0385 24.8916 23.8444 25.2771 23.7473C25.5663 23.6502 25.9518 23.5532 26.7229 23.4561C27.5904 23.4561 27.8795 23.4561 30 23.4561ZM30 22C27.7831 22 27.5904 22 26.7229 22C25.8554 22 25.2771 22.1941 24.7952 22.3883C24.3133 22.5824 23.8313 22.8737 23.3494 23.359C22.8675 23.8444 22.6747 24.2327 22.3855 24.8151C22.1928 25.3005 22.0964 25.8829 22 26.7565C22 27.6302 22 27.9214 22 30.057C22 32.2897 22 32.4838 22 33.3575C22 34.2311 22.1928 34.8136 22.3855 35.2989C22.5783 35.7843 22.8675 36.2696 23.3494 36.755C23.8313 37.2404 24.2169 37.4345 24.7952 37.7257C25.2771 37.9199 25.8554 38.0169 26.7229 38.114C27.5904 38.114 27.8795 38.114 30 38.114C32.1205 38.114 32.4096 38.114 33.2771 38.114C34.1446 38.114 34.7229 37.9199 35.2048 37.7257C35.6867 37.5316 36.1687 37.2404 36.6506 36.755C37.1325 36.2696 37.3253 35.8814 37.6145 35.2989C37.8072 34.8136 37.9036 34.2311 38 33.3575C38 32.4838 38 32.1926 38 30.057C38 27.9214 38 27.6302 38 26.7565C38 25.8829 37.8072 25.3005 37.6145 24.8151C37.4217 24.3297 37.1325 23.8444 36.6506 23.359C36.1687 22.8737 35.7831 22.6795 35.2048 22.3883C34.7229 22.1941 34.1446 22.0971 33.2771 22C32.4096 22 32.2169 22 30 22Z" fill="#FAFAF2"/>
<path d="M30 25.8829C27.6867 25.8829 25.8554 27.7273 25.8554 30.057C25.8554 32.3867 27.6867 34.2311 30 34.2311C32.3133 34.2311 34.1446 32.3867 34.1446 30.057C34.1446 27.7273 32.3133 25.8829 30 25.8829ZM30 32.775C28.5542 32.775 27.3012 31.6102 27.3012 30.057C27.3012 28.6009 28.4578 27.339 30 27.339C31.4458 27.339 32.6988 28.5038 32.6988 30.057C32.6988 31.5131 31.4458 32.775 30 32.775Z" fill="#FAFAF2"/>
<path d="M34.241 26.7565C34.7733 26.7565 35.2048 26.3219 35.2048 25.7858C35.2048 25.2497 34.7733 24.8151 34.241 24.8151C33.7086 24.8151 33.2771 25.2497 33.2771 25.7858C33.2771 26.3219 33.7086 26.7565 34.241 26.7565Z" fill="#FAFAF2"/>
<defs>
<linearGradient id="paint0_linear_294_612" x1="0" y1="0" x2="60" y2="60" gradientUnits="userSpaceOnUse">
<stop stop-color="#CE0360"/>
<stop offset="0.505208" stop-color="#CE0360" stop-opacity="0"/>
<stop offset="1" stop-color="#CE0360"/>
</linearGradient>
</defs>
</svg>
