<svg width="32" height="32" viewBox="0 0 32 32" fill="none" xmlns="http://www.w3.org/2000/svg">
<rect width="32" height="32" rx="16" fill="#737380"/>
<path d="M19.125 7H12.875C11.8395 7 11 7.80589 11 8.8V23.2C11 24.1941 11.8395 25 12.875 25H19.125C20.1605 25 21 24.1941 21 23.2V8.8C21 7.80589 20.1605 7 19.125 7Z" stroke="#FAFAF2" stroke-linecap="round" stroke-linejoin="round"/>
<path d="M13 7H13.9C13.9796 7 14.0559 7.03512 14.1121 7.09763C14.1684 7.16014 14.2 7.24493 14.2 7.33333C14.2 7.51014 14.2632 7.67971 14.3757 7.80474C14.4883 7.92976 14.6409 8 14.8 8H17.2C17.3591 8 17.5117 7.92976 17.6243 7.80474C17.7368 7.67971 17.8 7.51014 17.8 7.33333C17.8 7.24493 17.8316 7.16014 17.8879 7.09763C17.9441 7.03512 18.0204 7 18.1 7H19" stroke="#FAFAF2" stroke-linecap="round" stroke-linejoin="round"/>
</svg>
