<svg width="100" height="100" viewBox="0 0 100 100" fill="none" xmlns="http://www.w3.org/2000/svg">
<path d="M53.6323 0.0256935C57.9753 -0.203543 62.2364 1.10668 65.675 3.73476L93.264 24.8275C98.19 28.5936 100.703 34.6015 99.8287 40.513L94.9591 73.7028C94.0852 79.6143 89.9612 84.6256 84.1773 86.7846L51.7026 98.8681C50.0001 99.5083 48.2171 99.8775 46.3837 99.9743C42.0408 100.204 37.7797 98.8933 34.3411 96.2652L6.73598 75.1588C1.80995 71.3928 -0.702636 65.3849 0.171299 59.4734L5.04087 26.2836C5.91481 20.3721 10.0388 15.3608 15.8226 13.2017L48.2974 1.1183C50.001 0.492532 51.799 0.12246 53.6323 0.0256935ZM46.3495 99.5127C48.1378 99.4183 49.8757 99.0514 51.5353 98.4424L84.01 86.359C89.6479 84.2656 93.6752 79.3753 94.5158 73.6248L99.3854 40.435C100.225 34.6702 97.7843 28.8178 92.987 25.1608L65.3829 4.06879C62.041 1.52251 57.8872 0.235581 53.6644 0.458468C51.8762 0.552854 50.1383 0.919754 48.4787 1.52871L16.004 13.6122C10.3661 15.7055 6.33875 20.5959 5.49813 26.3463L0.628547 59.5362C-0.211007 65.301 2.22969 71.1534 7.02695 74.8104L34.631 95.9024C37.9741 98.4631 42.1267 99.7356 46.3495 99.5127Z" fill="#E61776"/>
<path d="M46.3495 99.5127C48.1378 99.4183 49.8757 99.0514 51.5353 98.4424L84.01 86.359C89.6479 84.2656 93.6752 79.3753 94.5158 73.6248L99.3854 40.435C100.225 34.6702 97.7843 28.8178 92.987 25.1608L65.3829 4.06879C62.041 1.52251 57.8872 0.235581 53.6644 0.458468C51.8762 0.552854 50.1383 0.919754 48.4787 1.52871L16.004 13.6122C10.3661 15.7055 6.33875 20.5959 5.49813 26.3463L0.628547 59.5362C-0.211007 65.301 2.22969 71.1534 7.02695 74.8104L34.631 95.9024C37.9741 98.4631 42.1267 99.7356 46.3495 99.5127Z" fill="#E61776"/>
<path opacity="0.1" d="M97.211 39.7502C97.211 34.3069 93.0539 29.7301 87.415 28.3995V25.9797C87.415 23.8379 85.4644 22.0996 83.061 22.0996H16.6268C14.2233 22.0996 12.2727 23.8379 12.2727 25.9797V82.6716C12.1793 82.658 12.0842 82.6493 11.9864 82.6493H6.08692C5.1066 82.6493 4.31177 83.3574 4.31177 84.231V92.3131C4.31177 93.1867 5.10638 93.895 6.08692 93.895H11.9864C12.9668 93.895 13.7616 93.1869 13.7616 92.3131V87.3215C14.5279 87.92 15.5287 88.2856 16.6268 88.2856H17.3809V92.3131C17.3809 93.1867 18.1755 93.895 19.156 93.895H25.0556C26.0359 93.895 26.8307 93.1869 26.8307 92.3131V88.2856H30.8857V92.3131C30.8857 93.1867 31.6803 93.895 32.6608 93.895H38.5603C39.5406 93.895 40.3355 93.1869 40.3355 92.3131V88.2856H83.061C85.4644 88.2856 87.415 86.5474 87.415 84.4056V51.1009C93.0539 49.7704 97.211 45.1937 97.211 39.7502Z" fill="#14141C"/>
<path d="M87.4152 22.0998V79.7497C87.4152 81.8915 85.4646 83.6297 83.0612 83.6297H16.627C14.2236 83.6297 12.2729 81.8915 12.2729 79.7497V22.0998C12.2729 19.958 14.2236 18.2197 16.627 18.2197H83.0612C85.4646 18.2197 87.4152 19.958 87.4152 22.0998Z" fill="#FAFAF2"/>
<path d="M33.897 55.0825H43.0775V63.2617H33.897V55.0825Z" fill="#CCCCCC"/>
<path d="M45.2546 55.0825H54.433V63.2617H45.2546V55.0825Z" fill="#CCCCCC"/>
<path d="M45.2546 44.9604H54.433V53.1416H45.2546V44.9604Z" fill="#CCCCCC"/>
<path d="M56.6094 44.9604H65.7899V53.1416H56.6094V44.9604Z" fill="#CCCCCC"/>
<path d="M76.9592 39.646H45.0904C43.888 39.646 42.9133 38.7774 42.9133 37.706V35.9425C42.9133 34.871 43.888 34.0024 45.0904 34.0024H76.9592C78.1616 34.0024 79.1362 34.871 79.1362 35.9425V37.706C79.1362 38.7774 78.1616 39.646 76.9592 39.646Z" fill="#CCCCCC"/>
<path d="M87.4144 29.5679V22.1008C87.4144 19.9578 85.4651 18.2207 83.0604 18.2207H16.628C14.2232 18.2207 12.2739 19.9578 12.2739 22.1008V29.5679H87.4144Z" fill="#CCCCCC"/>
<path d="M11.9862 89.2386H6.0867C5.10638 89.2386 4.31177 88.5305 4.31177 87.6567V79.5746C4.31177 78.701 5.10638 77.9927 6.0867 77.9927H11.9862C12.9665 77.9927 13.7614 78.7008 13.7614 79.5746V87.6567C13.7614 88.5305 12.9665 89.2386 11.9862 89.2386Z" fill="#CCCCCC"/>
<path d="M25.0553 89.2388H19.1558C18.1755 89.2388 17.3809 88.5307 17.3809 87.6569V71.3793C17.3809 70.5057 18.1755 69.7974 19.1558 69.7974H25.0553C26.0356 69.7974 26.8305 70.5055 26.8305 71.3793V87.6569C26.8305 88.5307 26.0356 89.2388 25.0553 89.2388Z" fill="#CCCCCC"/>
<path d="M38.5597 89.2389H32.6602C31.6798 89.2389 30.885 88.5307 30.885 87.657V60.5394C30.885 59.6658 31.6796 58.9575 32.6602 58.9575H38.5597C39.54 58.9575 40.3348 59.6656 40.3348 60.5394V87.6572C40.3348 88.5307 39.54 89.2389 38.5597 89.2389Z" fill="#CCCCCC"/>
<path d="M84.0336 46.8368C91.3111 46.8368 97.2107 41.5794 97.2107 35.0942C97.2107 28.6089 91.3111 23.3516 84.0336 23.3516C76.756 23.3516 70.8564 28.6089 70.8564 35.0942C70.8564 41.5794 76.756 46.8368 84.0336 46.8368Z" fill="#CCCCCC"/>
<path d="M77.1455 44.9604V45.1069C77.0585 45.0601 76.9714 45.0112 76.8865 44.9604H77.1455Z" fill="#CCCCCC"/>
<path d="M84.0336 43.9689C89.5333 43.9689 93.9918 39.9958 93.9918 35.0948C93.9918 30.1938 89.5333 26.2207 84.0336 26.2207C78.5339 26.2207 74.0754 30.1938 74.0754 35.0948C74.0754 39.9958 78.5339 43.9689 84.0336 43.9689Z" fill="#FAFAF2"/>
<path d="M85.4521 34.1242H85.122V32.1492H87.1802C87.7813 32.1492 88.2687 31.7149 88.2687 31.1792C88.2687 30.6436 87.7813 30.2092 87.1802 30.2092H85.122V29.7215C85.122 29.1858 84.6346 28.7515 84.0335 28.7515C83.4324 28.7515 82.945 29.1858 82.945 29.7215V30.2092H82.615C80.8035 30.2092 79.3298 31.5224 79.3298 33.1367C79.3298 34.751 80.8035 36.0642 82.615 36.0642H82.945V38.0392H80.8871C80.286 38.0392 79.7986 38.4735 79.7986 39.0092C79.7986 39.5448 80.286 39.9792 80.8871 39.9792H82.945V40.4669C82.945 41.0026 83.4324 41.4369 84.0335 41.4369C84.6346 41.4369 85.122 41.0026 85.122 40.4669V39.9792H85.4521C87.2634 39.9792 88.737 38.666 88.737 37.0517C88.737 35.4374 87.2636 34.1242 85.4521 34.1242ZM82.6152 34.1242C82.0041 34.1242 81.5071 33.6813 81.5071 33.1367C81.5071 32.5921 82.0041 32.1492 82.6152 32.1492H82.9452V34.1242H82.6152ZM85.4521 38.0392H85.122V36.0642H85.4521C86.0629 36.0642 86.56 36.5071 86.56 37.0517C86.56 37.5963 86.0632 38.0392 85.4521 38.0392Z" fill="#CCCCCC"/>
<path d="M87.4142 50.9697C86.8131 50.9697 86.3257 51.4041 86.3257 51.9397V79.7485C86.3257 81.3531 84.8607 82.6586 83.0601 82.6586H46.1349C45.5338 82.6586 45.0464 83.0929 45.0464 83.6286C45.0464 84.1642 45.5338 84.5986 46.1349 84.5986H83.0601C86.0611 84.5986 88.5027 82.4228 88.5027 79.7485V51.9397C88.5027 51.4041 88.0152 50.9697 87.4142 50.9697Z" fill="#14141C"/>
<path d="M88.5032 23.0247V22.1001C88.5032 19.4257 86.0617 17.25 83.0606 17.25H16.6264C13.6254 17.25 11.1839 19.4257 11.1839 22.1001V77.0237H6.08659C4.50759 77.0237 3.22314 78.1683 3.22314 79.5754V87.6575C3.22314 89.0646 4.50759 90.2093 6.08659 90.2093H11.9861C13.5651 90.2093 14.8498 89.0646 14.8498 87.6575V84.3296C15.313 84.4726 15.7977 84.5593 16.2921 84.5865V87.6573C16.2921 89.0644 17.5767 90.2091 19.1557 90.2091H25.0552C26.6342 90.2091 27.9187 89.0644 27.9187 87.6573V84.5991H29.7966V87.6573C29.7966 89.0644 31.0813 90.2091 32.6603 90.2091H38.5598C40.1388 90.2091 41.4232 89.0644 41.4232 87.6573V75.3226H55.521C56.1219 75.3226 56.6095 74.8881 56.6095 74.3526V65.2015H78.2339C78.8348 65.2015 79.3224 64.7669 79.3224 64.2315V57.869L80.2594 57.034C80.6846 56.6551 80.6846 56.0409 80.2594 55.6622C80.0041 55.4346 79.6538 55.3467 79.3224 55.3925V47.0919C80.7983 47.5534 82.3827 47.8074 84.0331 47.8074C91.8991 47.8074 98.2987 42.1045 98.2987 35.0948C98.2992 29.4761 94.1859 24.7003 88.5032 23.0247ZM12.6728 87.6575C12.6728 87.9949 12.3647 88.2692 11.9861 88.2692H6.08659C5.708 88.2692 5.40017 87.9947 5.40017 87.6575V79.5754C5.40017 79.238 5.70822 78.9637 6.08659 78.9637H11.9861C12.3647 78.9637 12.6728 79.2382 12.6728 79.5754V87.6575ZM25.7419 87.6575C25.7419 87.9949 25.4338 88.2692 25.0555 88.2692H19.1559C18.7774 88.2692 18.4693 87.9947 18.4693 87.6575V71.3799C18.4693 71.0425 18.7774 70.7682 19.1559 70.7682H25.0555C25.434 70.7682 25.7419 71.0427 25.7419 71.3799V87.6575ZM31.7198 58.1324C30.6021 58.4803 29.7968 59.4266 29.7968 60.5398V63.2617H22.5414V55.0825H31.7198V58.1324ZM29.7968 65.2017V73.3828H27.9189V71.3799C27.9189 69.9728 26.6345 68.8282 25.0555 68.8282H22.5414V65.2017H29.7968ZM27.9189 82.6592V75.3228H29.7968V82.6592H27.9189ZM39.2464 87.6575C39.2464 87.9949 38.9384 88.2692 38.56 88.2692H32.6603C32.2817 88.2692 31.9736 87.9947 31.9736 87.6575V60.5398C31.9736 60.2024 32.2817 59.9281 32.6603 59.9281H38.5598C38.9384 59.9281 39.2462 60.2026 39.2462 60.5398V87.6575H39.2464ZM43.0773 73.3828H41.4234V65.2017H43.0773V73.3828ZM43.0773 63.2617H41.4234V60.5398C41.4234 59.1327 40.139 57.9881 38.56 57.9881H33.8968V55.0825H43.0773V63.2617ZM43.0773 53.1425H33.8968V44.9614H43.0773V53.1425ZM54.4327 73.3828H45.2544V65.2017H54.4327V73.3828ZM54.4327 63.2617H45.2544V55.0825H54.4327V63.2617ZM54.4327 53.1425H45.2544V44.9614H54.4327V53.1425ZM32.8083 43.0213C32.2074 43.0213 31.7198 43.4559 31.7198 43.9914V53.1425H21.4529C20.8521 53.1425 20.3644 53.577 20.3644 54.1125V68.828H19.1557C17.5767 68.828 16.2921 69.9726 16.2921 71.3797V82.6431C15.777 82.5956 15.2834 82.4383 14.8498 82.1867V79.5754C14.8498 78.6122 14.2474 77.7721 13.3609 77.3379V22.1001C13.3609 20.4955 14.8258 19.19 16.6264 19.19H83.0606C84.8612 19.19 86.3262 20.4955 86.3262 22.1001V22.5484C85.5792 22.4404 84.814 22.382 84.0333 22.382C76.1673 22.382 69.7677 28.0849 69.7677 35.0946C69.7677 38.0906 70.9396 40.846 72.8926 43.0213H32.8083ZM65.7903 63.2617H56.6097V55.0825H65.7903V63.2617ZM65.7903 53.1425H56.6097V44.9614H65.7903V53.1425ZM77.1456 63.2617H67.9673V55.0825H77.1456V57.0654L74.2763 59.6224L73.0012 58.4861C72.576 58.1074 71.887 58.1074 71.4619 58.4861C71.0367 58.865 71.0367 59.4792 71.4619 59.8579L73.5067 61.6802C73.7109 61.8621 73.9876 61.9642 74.2765 61.9642C74.5654 61.9642 74.8421 61.8619 75.0463 61.6802L77.1459 59.809V63.2617H77.1456ZM77.1456 53.1425H67.9673V44.9614H75.0509C75.704 45.4345 76.4046 45.8571 77.1456 46.2228V53.1425ZM84.0333 45.8674C77.3675 45.8674 71.9447 41.0348 71.9447 35.0948C71.9447 29.1548 77.3677 24.3222 84.0333 24.3222C90.6989 24.3222 96.1219 29.1548 96.1219 35.0948C96.1219 41.0348 90.6992 45.8674 84.0333 45.8674Z" fill="#14141C"/>
<path d="M21.1466 35.9425H23.065C23.6661 35.9425 24.1535 35.5081 24.1535 34.9725C24.1535 34.4368 23.6661 34.0024 23.065 34.0024H21.1466C20.5455 34.0024 20.0581 34.4368 20.0581 34.9725C20.0581 35.5081 20.5453 35.9425 21.1466 35.9425Z" fill="#14141C"/>
<path d="M30.4669 37.7061H21.1466C20.5455 37.7061 20.0581 38.1404 20.0581 38.6761C20.0581 39.2117 20.5455 39.6461 21.1466 39.6461H30.4669C31.068 39.6461 31.5554 39.2117 31.5554 38.6761C31.5554 38.1404 31.068 37.7061 30.4669 37.7061Z" fill="#14141C"/>
<path d="M84.9048 91.9539C84.6261 91.9539 84.3477 91.8592 84.135 91.6699L82.9455 90.6099L81.756 91.6699C81.3308 92.0486 80.6418 92.0486 80.2166 91.6699C79.7914 91.291 79.7914 90.6768 80.2166 90.2981L82.1759 88.5521C82.6011 88.1734 83.2901 88.1734 83.7153 88.5521L85.6746 90.2981C86.0998 90.677 86.0998 91.2912 85.6746 91.6699C85.4619 91.859 85.1835 91.9539 84.9048 91.9539Z" fill="#CCCCCC"/>
<path d="M93.2024 16.4906C92.9238 16.4906 92.6453 16.3959 92.4326 16.2065L91.2431 15.1465L90.0536 16.2065C89.6284 16.5852 88.9394 16.5852 88.5142 16.2065C88.089 15.8276 88.089 15.2134 88.5142 14.8347L90.4735 13.0887C90.8987 12.71 91.5877 12.71 92.0129 13.0887L93.9722 14.8347C94.3974 15.2136 94.3974 15.8278 93.9722 16.2065C93.7595 16.3959 93.4809 16.4906 93.2024 16.4906Z" fill="#CCCCCC"/>
<path d="M7.79495 62.534C7.51629 62.534 7.23785 62.4393 7.02515 62.25L5.83563 61.19L4.6461 62.25C4.22092 62.6289 3.5319 62.6287 3.10672 62.25C2.68155 61.8711 2.68155 61.2569 3.10672 60.8782L5.06605 59.1322C5.49122 58.7535 6.18025 58.7535 6.60542 59.1322L8.56475 60.8782C8.98992 61.2571 8.98992 61.8711 8.56475 62.25C8.35205 62.4391 8.07339 62.534 7.79495 62.534Z" fill="#CCCCCC"/>
<path d="M8.60821 16.4585C8.32955 16.4585 8.05111 16.3638 7.83841 16.1745C7.41324 15.7956 7.41324 15.1814 7.83841 14.8027L10.0154 12.8626C10.4406 12.4839 11.1296 12.4839 11.5548 12.8626C11.98 13.2415 11.98 13.8557 11.5548 14.2344L9.37779 16.1745C9.16531 16.3638 8.88687 16.4585 8.60821 16.4585Z" fill="#CCCCCC"/>
<path d="M3.65899 51.2861C3.38033 51.2861 3.10189 51.1914 2.88919 51.0021C2.46402 50.6232 2.46402 50.009 2.88919 49.6303L5.06622 47.6903C5.49139 47.3116 6.18042 47.3116 6.6056 47.6903C7.03077 48.0692 7.03077 48.6834 6.6056 49.0621L4.42857 51.0021C4.21609 51.1914 3.93743 51.2861 3.65899 51.2861Z" fill="#CCCCCC"/>
</svg>
