<svg width="100" height="101" viewBox="0 0 100 101" fill="none" xmlns="http://www.w3.org/2000/svg">
<path d="M99.99 58.5838C99.8654 62.8669 98.2029 66.9412 95.2854 70.0979L71.8706 95.4252C67.69 99.9474 61.4572 101.913 55.5976 100.562L22.6963 93.0114C16.8368 91.6601 12.1457 87.1931 10.4518 81.3342L0.980331 48.442C0.477049 46.717 0.252147 44.9356 0.30476 43.1275C0.429388 38.8444 2.09184 34.7702 5.00932 31.6134L28.4391 6.27148C32.6198 1.74927 38.8526 -0.216321 44.7121 1.13496L77.6134 8.68526C83.473 10.0365 88.164 14.5036 89.8579 20.3625L99.3294 53.2547C99.8181 54.9796 100.043 56.7757 99.99 58.5838ZM0.770696 43.1324C0.719379 44.8961 0.945576 46.6329 1.42103 48.3132L10.8925 81.2054C12.5325 86.9154 17.1101 91.2776 22.8107 92.5827L55.712 100.133C61.4273 101.438 67.4982 99.5303 71.5589 95.1254L94.9742 69.7833C97.8017 66.7146 99.432 62.7438 99.5532 58.5792C99.6045 56.8156 99.3783 55.0787 98.9028 53.3985L89.4313 20.5062C87.7914 14.7962 83.2138 10.4341 77.5131 9.12896L44.6118 1.57866C38.8966 0.273364 32.8257 2.18136 28.7649 6.58623L5.34971 31.9283C2.50762 34.9969 0.891875 38.9679 0.770696 43.1324Z" fill="#E61776"/>
<path d="M0.770696 43.1324C0.719379 44.8961 0.945576 46.6329 1.42103 48.3132L10.8925 81.2054C12.5325 86.9154 17.1101 91.2776 22.8107 92.5827L55.712 100.133C61.4273 101.438 67.4982 99.5303 71.5589 95.1254L94.9742 69.7833C97.8017 66.7146 99.432 62.7438 99.5532 58.5792C99.6045 56.8156 99.3783 55.0787 98.9028 53.3985L89.4313 20.5062C87.7914 14.7962 83.2138 10.4341 77.5131 9.12896L44.6118 1.57866C38.8966 0.273364 32.8257 2.18136 28.7649 6.58623L5.34971 31.9283C2.50762 34.9969 0.891875 38.9679 0.770696 43.1324Z" fill="#E61776"/>
<path opacity="0.1" d="M80.276 28.9294C82.0252 24.0628 81.8485 19.4597 81.2115 14.2913C81.0943 13.3413 80.3468 12.5936 79.3968 12.4764C72.7277 11.6533 67.0014 11.596 60.4349 15.455C56.5783 14.2604 52.4796 13.6163 48.2302 13.6163C25.4805 13.6163 7.03833 32.0585 7.03833 54.8082C7.03833 62.7997 9.3166 70.258 13.2552 76.5738C12.3524 77.911 11.4744 79.2157 10.6532 80.4397C9.51122 82.1416 11.5448 84.1752 13.2467 83.0333C14.2453 82.3632 15.2978 81.6554 16.3778 80.927C23.9323 90.129 35.3953 96.0001 48.2302 96.0001C70.9799 96.0001 89.4221 77.5579 89.4221 54.8082C89.4219 45.0043 85.9948 36.0023 80.276 28.9294Z" fill="#14141C"/>
<path d="M40.6877 90.322C40.7129 90.3266 40.738 90.331 40.7629 90.3356V90.3366C40.7378 90.332 40.7129 90.3266 40.6877 90.322Z" fill="#FAFAF2"/>
<path d="M33.6118 88.3408C33.8139 88.4175 34.016 88.4939 34.2195 88.5674C34.016 88.4937 33.8137 88.4177 33.6118 88.3408Z" fill="#FAFAF2"/>
<path d="M34.2192 88.5674C34.2562 88.5807 34.2936 88.5932 34.3306 88.6065C34.2936 88.5932 34.2562 88.5807 34.2192 88.5674Z" fill="#FAFAF2"/>
<path d="M33.1885 88.1772C33.3291 88.2325 33.4701 88.2872 33.6114 88.341C33.4701 88.2874 33.3291 88.2325 33.1885 88.1772Z" fill="#FAFAF2"/>
<path d="M34.3311 88.6067C34.7776 88.7666 35.2279 88.9189 35.6813 89.0638C35.2279 88.9189 34.7776 88.7668 34.3311 88.6067Z" fill="#FAFAF2"/>
<path d="M38.1802 89.7756C38.2441 89.7917 38.3081 89.8075 38.3721 89.8231C38.3081 89.8075 38.2441 89.7917 38.1802 89.7756Z" fill="#FAFAF2"/>
<path d="M38.3723 89.823C39.136 90.0106 39.9081 90.1773 40.6878 90.3217C39.9081 90.1775 39.1362 90.0108 38.3723 89.823Z" fill="#FAFAF2"/>
<path d="M35.9509 89.1487C36.6856 89.3778 37.4287 89.5871 38.1802 89.7755C37.4285 89.5869 36.6854 89.378 35.9509 89.1487Z" fill="#FAFAF2"/>
<path d="M35.6809 89.0635C35.7706 89.0922 35.8606 89.1204 35.9507 89.1487C35.8606 89.1206 35.7706 89.0922 35.6809 89.0635Z" fill="#FAFAF2"/>
<path d="M32.4668 87.8865C32.7063 87.9858 32.947 88.0826 33.1888 88.1773C32.947 88.0824 32.7063 87.9858 32.4668 87.8865Z" fill="#FAFAF2"/>
<path d="M29.4421 86.4866C29.7333 86.6363 30.0264 86.783 30.3217 86.9259C30.0264 86.7832 29.7335 86.6361 29.4421 86.4866Z" fill="#FAFAF2"/>
<path d="M31.8022 87.605C32.0226 87.701 32.2444 87.7942 32.4669 87.8865C32.2444 87.7942 32.0226 87.701 31.8022 87.605Z" fill="#FAFAF2"/>
<path d="M28.1658 85.8044C28.4852 85.9831 28.8086 86.1557 29.1332 86.326C28.8086 86.1559 28.4854 85.9831 28.1658 85.8044Z" fill="#FAFAF2"/>
<path d="M29.1333 86.3259C29.2361 86.3797 29.3389 86.4333 29.4422 86.4865C29.3389 86.4333 29.2361 86.3797 29.1333 86.3259Z" fill="#FAFAF2"/>
<path d="M31.3411 87.3999C31.4943 87.4689 31.6476 87.5376 31.8019 87.6047C31.6476 87.5376 31.4943 87.4691 31.3411 87.3999Z" fill="#FAFAF2"/>
<path d="M30.3218 86.9258C30.4445 86.9852 30.5683 87.0426 30.6919 87.1007C30.5683 87.0426 30.4443 86.9852 30.3218 86.9258Z" fill="#FAFAF2"/>
<path d="M30.6919 87.1008C30.9073 87.2024 31.1237 87.3021 31.3412 87.4001C31.1237 87.3023 30.9075 87.2024 30.6919 87.1008Z" fill="#FAFAF2"/>
<path d="M40.7631 90.3355C43.1851 90.7791 45.6796 91.0157 48.23 91.0157C64.8294 91.0157 79.1338 81.1977 85.6535 67.0512L69.3656 14.4613C63.1865 10.76 55.9564 8.6311 48.23 8.6311C28.0477 8.6311 11.255 23.1452 7.72412 42.3077L40.7631 90.3355Z" fill="#FAFAF2"/>
<path d="M35.0529 15.7661C36.2318 15.7661 36.836 16.4908 37.236 16.9704C37.5846 17.3885 37.6539 17.4277 37.824 17.4277C37.9935 17.4277 38.0627 17.3885 38.4108 16.9706C38.8104 16.491 39.4146 15.7661 40.5931 15.7661C41.7718 15.7661 42.376 16.4908 42.7758 16.9706C43.1242 17.3885 43.1933 17.4277 43.3632 17.4277C43.9367 17.4277 44.4017 17.8926 44.4017 18.4662C44.4017 19.0399 43.9367 19.5047 43.3632 19.5047C42.1843 19.5047 41.5803 18.7801 41.1805 18.3003C40.8322 17.8824 40.763 17.8431 40.5933 17.8431C40.4238 17.8431 40.3547 17.8824 40.0066 18.3003C39.6069 18.7799 39.0027 19.5047 37.8242 19.5047C36.6453 19.5047 36.0409 18.7801 35.6411 18.3005C35.2926 17.8824 35.2232 17.8431 35.0533 17.8431C34.8832 17.8431 34.8138 17.8824 34.4653 18.3005C34.0655 18.7801 33.4613 19.5047 32.2822 19.5047C31.7087 19.5047 31.2437 19.0399 31.2437 18.4662C31.2437 17.8926 31.7087 17.4277 32.2822 17.4277C32.4521 17.4277 32.5214 17.3885 32.87 16.9704C33.2696 16.491 33.874 15.7661 35.0529 15.7661Z" fill="#CCCCCC"/>
<path d="M60.4406 70.6262C61.6195 70.6262 62.2237 71.3509 62.6237 71.8305C62.9722 72.2486 63.0416 72.2878 63.2117 72.2878C63.3812 72.2878 63.4504 72.2486 63.7985 71.8307C64.1981 71.3511 64.8023 70.6262 65.9808 70.6262C67.1595 70.6262 67.7637 71.3509 68.1635 71.8307C68.5118 72.2486 68.581 72.2878 68.7509 72.2878C69.3244 72.2878 69.7894 72.7527 69.7894 73.3263C69.7894 73.9 69.3244 74.3648 68.7509 74.3648C67.572 74.3648 66.968 73.6402 66.5682 73.1604C66.2199 72.7425 66.1507 72.7032 65.981 72.7032C65.8115 72.7032 65.7424 72.7425 65.3942 73.1604C64.9946 73.64 64.3904 74.3648 63.2119 74.3648C62.033 74.3648 61.4286 73.6402 61.0288 73.1606C60.6803 72.7425 60.6109 72.7032 60.441 72.7032C60.2709 72.7032 60.2015 72.7425 59.853 73.1606C59.4532 73.6402 58.849 74.3648 57.6699 74.3648C57.0964 74.3648 56.6313 73.9 56.6313 73.3263C56.6313 72.7527 57.0964 72.2878 57.6699 72.2878C57.8398 72.2878 57.9091 72.2486 58.2576 71.8305C58.6573 71.3509 59.2617 70.6262 60.4406 70.6262Z" fill="#CCCCCC"/>
<path d="M55.1078 77.1165C56.2867 77.1165 56.8909 77.8411 57.291 78.3207C57.6395 78.7388 57.7089 78.7781 57.879 78.7781C58.0484 78.7781 58.1176 78.7388 58.4657 78.3209C58.8653 77.8413 59.4695 77.1165 60.648 77.1165C61.8267 77.1165 62.4309 77.8411 62.8308 78.3209C63.1791 78.7388 63.2482 78.7781 63.4181 78.7781C63.9916 78.7781 64.4567 79.2429 64.4567 79.8166C64.4567 80.3902 63.9916 80.8551 63.4181 80.8551C62.2392 80.8551 61.6352 80.1304 61.2354 79.6506C60.8871 79.2327 60.8179 79.1935 60.6482 79.1935C60.4788 79.1935 60.4096 79.2327 60.0615 79.6506C59.6619 80.1302 59.0577 80.8551 57.8792 80.8551C56.7003 80.8551 56.0959 80.1304 55.696 79.6508C55.3475 79.2327 55.2781 79.1935 55.1082 79.1935C54.9381 79.1935 54.8688 79.2327 54.5202 79.6508C54.1204 80.1304 53.5162 80.8551 52.3371 80.8551C51.7636 80.8551 51.2986 80.3902 51.2986 79.8166C51.2986 79.2429 51.7636 78.7781 52.3371 78.7781C52.507 78.7781 52.5764 78.7388 52.9249 78.3207C53.3245 77.8411 53.9289 77.1165 55.1078 77.1165Z" fill="#CCCCCC"/>
<path d="M44.5351 73.3059V82.3554C44.5351 82.9058 44.317 83.4355 43.9265 83.8239L41.3697 86.3807C40.9813 86.7691 40.7632 87.2987 40.7632 87.8491V90.3374C21.5779 86.8252 7.03882 70.0221 7.03882 49.8232C7.03882 47.256 7.27352 44.7449 7.72423 42.3086H21.5509C22.1013 42.3086 22.6288 42.5267 23.0193 42.9172L27.6407 47.5385C28.0312 47.929 28.2492 48.4565 28.2492 49.007V51.867C28.2492 52.4195 28.0312 52.947 27.6407 53.3354L25.5304 55.4457C25.142 55.8362 24.9239 56.3637 24.9239 56.9141V61.845C24.9239 62.3954 25.142 62.925 25.5304 63.3134L32.8374 70.6203C33.2278 71.0108 33.7554 71.2289 34.3079 71.2289H42.4581C43.6046 71.2289 44.5351 72.1594 44.5351 73.3059Z" fill="#CCCCCC"/>
<path d="M89.4213 49.8231C89.4213 55.9731 88.0733 61.8095 85.6536 67.0519L78.4503 59.8486C78.0608 59.4591 77.8419 58.9307 77.8419 58.3799V52.239C77.8419 51.6882 77.623 51.1598 77.2336 50.7704L74.3399 47.8767C73.9504 47.4872 73.422 47.2683 72.8712 47.2683H70.1678C69.617 47.2683 69.0886 47.4872 68.6991 47.8767L64.2228 52.3531C63.8333 52.7425 63.3049 52.9614 62.7541 52.9614H49.9857C49.4346 52.9614 48.9063 52.7425 48.5168 52.3529L41.9985 45.8329C41.6091 45.4435 41.3904 44.9153 41.3904 44.3645V40.7991C41.3904 40.2482 41.6093 39.7199 41.9987 39.3304L46.1636 35.1656C46.553 34.7761 46.7719 34.2478 46.7719 33.6969V28.4199C46.7719 27.8693 46.9906 27.3411 47.3799 26.9514L51.2624 23.0672C51.6519 22.6776 52.1805 22.4586 52.7315 22.4586H60.5068C61.0576 22.4586 61.5858 22.2399 61.9752 21.8505L69.3654 14.4622C81.3791 21.6567 89.4213 34.8 89.4213 49.8231Z" fill="#CCCCCC"/>
<path d="M12.642 50.2242C13.2156 50.2242 13.6805 49.7593 13.6805 49.1857C13.6805 48.6122 13.2156 48.1472 12.642 48.1472C12.0685 48.1472 11.6035 48.6122 11.6035 49.1857C11.6035 49.7593 12.0685 50.2242 12.642 50.2242Z" fill="#FAFAF2"/>
<path d="M16.3471 50.2242C16.9206 50.2242 17.3856 49.7593 17.3856 49.1857C17.3856 48.6122 16.9206 48.1472 16.3471 48.1472C15.7735 48.1472 15.3086 48.6122 15.3086 49.1857C15.3086 49.7593 15.7735 50.2242 16.3471 50.2242Z" fill="#FAFAF2"/>
<path d="M20.0514 50.2242C20.625 50.2242 21.0899 49.7593 21.0899 49.1857C21.0899 48.6122 20.625 48.1472 20.0514 48.1472C19.4779 48.1472 19.0129 48.6122 19.0129 49.1857C19.0129 49.7593 19.4779 50.2242 20.0514 50.2242Z" fill="#FAFAF2"/>
<path d="M32.3642 77.1808C32.9377 77.1808 33.4027 76.7158 33.4027 76.1423C33.4027 75.5687 32.9377 75.1038 32.3642 75.1038C31.7906 75.1038 31.3257 75.5687 31.3257 76.1423C31.3257 76.7158 31.7906 77.1808 32.3642 77.1808Z" fill="#FAFAF2"/>
<path d="M36.0683 77.1808C36.6418 77.1808 37.1068 76.7158 37.1068 76.1423C37.1068 75.5687 36.6418 75.1038 36.0683 75.1038C35.4947 75.1038 35.0298 75.5687 35.0298 76.1423C35.0298 76.7158 35.4947 77.1808 36.0683 77.1808Z" fill="#FAFAF2"/>
<path d="M39.7731 77.1808C40.3467 77.1808 40.8116 76.7158 40.8116 76.1423C40.8116 75.5687 40.3467 75.1038 39.7731 75.1038C39.1996 75.1038 38.7346 75.5687 38.7346 76.1423C38.7346 76.7158 39.1996 77.1808 39.7731 77.1808Z" fill="#FAFAF2"/>
<path d="M63.1333 41.9502L64.2113 54.7238C64.4092 57.0694 63.5632 59.383 61.8987 61.0473L59.2788 63.6672C58.4677 64.4783 57.1526 64.4783 56.3415 63.6672L53.3911 60.7168L50.7888 49.787L63.1333 41.9502Z" fill="#CCCCCC"/>
<path d="M56.0862 58.0216L53.3913 60.7165L45.6956 53.0208L50.789 49.7869L56.0864 55.0843C56.8973 55.8956 56.8973 57.2105 56.0862 58.0216Z" fill="#FAFAF2"/>
<path d="M46.7504 25.567L33.9767 24.489C31.6312 24.2911 29.3176 25.1371 27.6533 26.8016L25.0334 29.4215C24.2223 30.2326 24.2223 31.5477 25.0334 32.3588L27.9848 35.3102L38.9136 37.9115L46.7504 25.567Z" fill="#CCCCCC"/>
<path d="M38.9133 37.9111L35.6791 43.0046L27.9849 35.3103L30.6798 32.6154C31.4909 31.8043 32.806 31.8043 33.6171 32.6154L38.9133 37.9111Z" fill="#FAFAF2"/>
<path d="M69.2943 7.2998C63.9128 8.0683 58.5271 10.6916 51.9555 17.2632C46.0962 23.1225 38.0333 33.3808 33.9187 41.2444L34.2724 42.6366L46.2532 54.6156L47.4587 54.7826C55.3223 50.6638 65.5786 42.603 71.4378 36.7458C78.0095 30.1741 80.6327 24.7864 81.3992 19.4048L69.2943 7.2998Z" fill="#FAFAF2"/>
<path d="M81.3998 19.4043C78.2407 19.6232 75.0068 18.5244 72.5908 16.1085C70.1749 13.6925 69.0763 10.4586 69.2951 7.29944C72.5746 6.83087 75.8526 7.05415 79.3951 7.49177C80.3453 7.60788 81.0929 8.35539 81.2104 9.30708C81.6468 12.848 81.8684 16.1247 81.3998 19.4043Z" fill="#CCCCCC"/>
<path d="M33.9175 41.2427C33.1362 42.7348 32.4958 44.1411 32.0401 45.4148C31.7689 46.1729 31.9573 47.018 32.5266 47.5873L41.1133 56.1741C41.6826 56.7434 42.528 56.9318 43.2861 56.6605C44.5595 56.2048 45.9658 55.5645 47.458 54.7831L33.9175 41.2427Z" fill="#CCCCCC"/>
<path d="M64.2181 31.8561C68.2903 31.8561 71.5915 28.555 71.5915 24.4828C71.5915 20.4106 68.2903 17.1094 64.2181 17.1094C60.1459 17.1094 56.8447 20.4106 56.8447 24.4828C56.8447 28.555 60.1459 31.8561 64.2181 31.8561Z" fill="#14141C"/>
<path d="M60.79 27.911C58.8997 26.0208 58.8997 22.9449 60.79 21.0544C62.6803 19.1641 65.7562 19.1641 67.6465 21.0546C69.5367 22.9451 69.5367 26.0205 67.6465 27.9108C65.756 29.8013 62.6803 29.8015 60.79 27.911Z" fill="#FAFAF2"/>
<path d="M54.8375 39.4678V37.1304C56.2557 36.6873 57.288 35.3616 57.288 33.7993C57.2878 31.8755 55.7227 30.3105 53.799 30.3103C51.8753 30.3103 50.3101 31.8755 50.3101 33.7993C50.3101 34.7611 50.7014 35.6335 51.3332 36.2651C51.7276 36.6595 52.2155 36.9599 52.7605 37.1302V39.4676C52.7605 39.7545 52.8768 40.0141 53.0648 40.2021C53.2528 40.39 53.5124 40.5061 53.7992 40.5063C54.3725 40.5066 54.8375 40.0415 54.8375 39.4678ZM52.3871 33.7995C52.3871 33.021 53.0203 32.3875 53.799 32.3875C54.1883 32.3875 54.5413 32.5458 54.7968 32.8015C55.0525 33.0571 55.2108 33.41 55.2108 33.7993C55.2108 34.5777 54.5775 35.2112 53.7988 35.2112C53.0206 35.2114 52.3871 34.5779 52.3871 33.7995Z" fill="#CCCCCC"/>
<path d="M41.4892 43.5987C42.0627 43.5987 42.5277 43.1338 42.5277 42.5602C42.5277 41.9867 42.0627 41.5217 41.4892 41.5217C40.9156 41.5217 40.4507 41.9867 40.4507 42.5602C40.4507 43.1338 40.9156 43.5987 41.4892 43.5987Z" fill="#CCCCCC"/>
<path d="M43.8151 45.9247C44.3887 45.9247 44.8536 45.4597 44.8536 44.8862C44.8536 44.3126 44.3887 43.8477 43.8151 43.8477C43.2416 43.8477 42.7766 44.3126 42.7766 44.8862C42.7766 45.4597 43.2416 45.9247 43.8151 45.9247Z" fill="#CCCCCC"/>
<path d="M46.1408 48.2506C46.7144 48.2506 47.1793 47.7856 47.1793 47.2121C47.1793 46.6385 46.7144 46.1736 46.1408 46.1736C45.5672 46.1736 45.1023 46.6385 45.1023 47.2121C45.1023 47.7856 45.5672 48.2506 46.1408 48.2506Z" fill="#CCCCCC"/>
<path d="M33.9468 63.5532C32.3905 65.1095 21.1362 72.754 13.2461 78.0487C11.5444 79.1906 9.51055 77.1568 10.6525 75.4551C15.9472 67.565 23.5916 56.3107 25.1479 54.7544C27.5776 52.3247 31.5171 52.3247 33.9468 54.7544C36.3765 57.1841 36.3765 61.1233 33.9468 63.5532Z" fill="#FAFAF2"/>
<path d="M33.9469 59.4061C33.1242 60.2288 27.1742 64.2703 23.0027 67.0697C22.1029 67.6735 21.0277 66.5982 21.6315 65.6984C24.4306 61.527 28.4721 55.5772 29.295 54.7542C30.5796 53.4696 32.6622 53.4696 33.9469 54.7542C35.2313 56.0389 35.2313 58.1215 33.9469 59.4061Z" fill="#CCCCCC"/>
<path d="M81.4447 23.7441C81.5426 23.45 81.6344 23.1551 81.7201 22.8593C83.0058 18.4224 82.8586 14.1816 82.2421 9.1793C82.0664 7.75447 80.9487 6.63662 79.5239 6.4607C74.5208 5.843 70.2798 5.69512 65.8435 6.98037C60.971 8.39191 56.325 11.426 51.2222 16.5292C49.1915 18.5597 46.7576 21.2783 44.2781 24.3159L34.0652 23.454C31.4091 23.2297 28.8048 24.1822 26.9201 26.0671L24.3002 28.687C23.0853 29.9018 23.0853 31.8781 24.3002 33.093L28.9313 37.7239C29.134 37.9268 29.3998 38.0281 29.6655 38.0281C29.9311 38.0281 30.1972 37.9268 30.3997 37.7239C30.8054 37.3184 30.8054 36.6608 30.3997 36.2554L25.7686 31.6245C25.5725 31.4284 25.4645 31.1676 25.4645 30.8901C25.4645 30.6126 25.5725 30.3517 25.7686 30.1557L28.3885 27.5357C29.8398 26.0847 31.8437 25.3505 33.8903 25.5237L42.7139 26.2683C37.777 32.5428 32.9565 39.7732 31.0629 45.0648C30.6585 46.1954 30.9451 47.4738 31.793 48.3216L40.3797 56.9084C40.9723 57.5012 41.7751 57.8196 42.5905 57.8196C42.9422 57.8196 43.2961 57.7604 43.6367 57.6384C44.7647 57.2347 45.9827 56.6949 47.259 56.0524L55.6088 64.4022C56.2161 65.0096 57.0137 65.3132 57.8113 65.3132C58.6088 65.3132 59.4068 65.0096 60.0139 64.4022L62.6351 61.781C64.5188 59.8976 65.4709 57.2937 65.2474 54.637L64.385 44.4239C67.4228 41.9443 70.1416 39.5105 72.1721 37.4798C76.1643 33.4878 78.89 29.7751 80.5635 26.0145C85.6829 32.942 88.3826 41.1418 88.3826 49.8227C88.3826 71.9642 70.3701 89.9775 48.2298 89.9775C36.5423 89.9775 25.5597 84.9547 17.9165 76.1569C27.9243 69.3983 33.5601 65.4085 34.6813 64.2876H34.6811C37.512 61.4568 37.512 56.8508 34.6811 54.0201C31.8501 51.1893 27.2443 51.1897 24.4138 54.0201C23.3358 55.0978 19.6049 60.3512 13.3092 69.6535C9.88218 63.6275 8.07705 56.8062 8.07705 49.8224C8.07705 27.6819 26.0895 9.66968 48.2298 9.66968C50.0611 9.66968 51.9138 9.79638 53.7362 10.0465C54.3051 10.1233 54.8285 9.72659 54.9064 9.15874C54.9842 8.59047 54.5867 8.06665 54.0186 7.98876C52.103 7.72581 50.1554 7.59267 48.23 7.59267C24.9444 7.59267 6.00024 26.5369 6.00024 49.8224C6.00024 57.5101 8.07995 65.0116 12.0196 71.5627C11.306 72.6208 10.5634 73.7247 9.79079 74.8762C8.99363 76.0636 9.13757 77.541 10.1489 78.5523C10.7246 79.128 11.4514 79.4225 12.1897 79.4225C12.7482 79.4225 13.3136 79.2539 13.8252 78.9106C14.635 78.3672 15.4209 77.8388 16.1847 77.3246C24.2289 86.6969 35.8529 92.0543 48.2298 92.0543C71.5154 92.0543 90.4596 73.1091 90.4596 49.8224C90.4596 40.2553 87.3422 31.2432 81.4447 23.7441ZM63.1776 54.8112C63.3498 56.8569 62.6168 58.8618 61.1665 60.3122L58.5453 62.9332C58.1405 63.3378 57.4818 63.338 57.077 62.9334L49.1769 55.0333C53.4286 52.6659 58.1519 49.3553 62.4324 45.9875L63.1776 54.8112ZM70.7035 36.0112C63.3822 43.3322 50.4778 52.9841 42.9363 55.6829C42.5585 55.8181 42.1309 55.723 41.848 55.4399L33.2612 46.8532C32.9785 46.5703 32.8832 46.143 33.0184 45.7648C35.7164 38.2244 45.3683 25.3195 52.6902 17.9977C60.6831 10.0049 66.894 8.07329 73.2011 8.07329C75.1942 8.07329 77.1981 8.26645 79.2693 8.52193C79.7468 8.58091 80.1215 8.95561 80.1802 9.43332C81.2437 18.0591 81.2212 25.4932 70.7035 36.0112ZM12.6674 77.186C12.1409 77.5399 11.7303 77.197 11.6173 77.0838C11.5039 76.9704 11.1618 76.56 11.5149 76.0335C19.6425 63.9222 24.7448 56.6261 25.8824 55.4883C26.8929 54.4781 28.2203 53.9727 29.5475 53.9727C30.8749 53.9727 32.2021 54.4781 33.2126 55.4883C35.2333 57.5093 35.2333 60.7976 33.2126 62.8187H33.2124C32.0748 63.9567 24.7785 69.0591 12.6674 77.186Z" fill="#14141C"/>
<path d="M75.1952 43.5987C75.7688 43.5987 76.2337 43.1338 76.2337 42.5602C76.2337 41.9867 75.7688 41.5217 75.1952 41.5217C74.6217 41.5217 74.1567 41.9867 74.1567 42.5602C74.1567 43.1338 74.6217 43.5987 75.1952 43.5987Z" fill="#FAFAF2"/>
<path d="M78.8998 43.5987C79.4734 43.5987 79.9383 43.1338 79.9383 42.5602C79.9383 41.9867 79.4734 41.5217 78.8998 41.5217C78.3263 41.5217 77.8613 41.9867 77.8613 42.5602C77.8613 43.1338 78.3263 43.5987 78.8998 43.5987Z" fill="#FAFAF2"/>
<path d="M82.6042 43.5987C83.1777 43.5987 83.6427 43.1338 83.6427 42.5602C83.6427 41.9867 83.1777 41.5217 82.6042 41.5217C82.0306 41.5217 81.5657 41.9867 81.5657 42.5602C81.5657 43.1338 82.0306 43.5987 82.6042 43.5987Z" fill="#FAFAF2"/>
<path d="M13.6801 16.0918C13.1064 16.0918 12.6416 15.6269 12.6416 15.0533C12.6416 14.4235 12.1289 13.9109 11.4992 13.9109C10.9255 13.9109 10.4607 13.4461 10.4607 12.8724C10.4607 12.2987 10.9255 11.8339 11.4992 11.8339C12.1289 11.8339 12.6416 11.3213 12.6416 10.6913C12.6416 10.1177 13.1064 9.65283 13.6801 9.65283C14.2537 9.65283 14.7186 10.1177 14.7186 10.6913C14.7186 11.3213 15.2312 11.8339 15.8609 11.8339C16.4346 11.8339 16.8994 12.2987 16.8994 12.8724C16.8994 13.4461 16.4346 13.9109 15.8609 13.9109C15.2312 13.9109 14.7186 14.4235 14.7186 15.0533C14.7186 15.6267 14.2537 16.0918 13.6801 16.0918Z" fill="#CCCCCC"/>
<path d="M10.2582 91.2927C9.68451 91.2927 9.21968 90.8279 9.21968 90.2542C9.21968 89.6245 8.70707 89.1119 8.07732 89.1119C7.50365 89.1119 7.03882 88.647 7.03882 88.0734C7.03882 87.4997 7.50365 87.0349 8.07732 87.0349C8.70707 87.0349 9.21968 86.5223 9.21968 85.8925C9.21968 85.3188 9.68451 84.854 10.2582 84.854C10.8319 84.854 11.2967 85.3188 11.2967 85.8925C11.2967 86.5223 11.8093 87.0349 12.439 87.0349C13.0127 87.0349 13.4775 87.4997 13.4775 88.0734C13.4775 88.647 13.0127 89.1119 12.439 89.1119C11.8093 89.1119 11.2967 89.6245 11.2967 90.2542C11.2967 90.8279 10.8316 91.2927 10.2582 91.2927Z" fill="#CCCCCC"/>
<path d="M86.6307 86.6492C86.0571 86.6492 85.5922 86.1843 85.5922 85.6107C85.5922 84.9809 85.0796 84.4683 84.4499 84.4683C83.8762 84.4683 83.4114 84.0035 83.4114 83.4298C83.4114 82.8561 83.8762 82.3913 84.4499 82.3913C85.0796 82.3913 85.5922 81.8787 85.5922 81.249C85.5922 80.6753 86.0571 80.2104 86.6307 80.2104C87.2044 80.2104 87.6692 80.6753 87.6692 81.249C87.6692 81.8787 88.1819 82.3913 88.8116 82.3913C89.3853 82.3913 89.8501 82.8561 89.8501 83.4298C89.8501 84.0035 89.3853 84.4683 88.8116 84.4683C88.1819 84.4683 87.6692 84.9809 87.6692 85.6107C87.6692 86.1841 87.2042 86.6492 86.6307 86.6492Z" fill="#CCCCCC"/>
<path d="M76.2337 94.2346C75.9681 94.2346 75.702 94.1332 75.4995 93.9303L73.3186 91.7494C72.913 91.344 72.913 90.6864 73.3186 90.281L75.4995 88.1001C75.9047 87.6945 76.5627 87.6945 76.9679 88.1001L79.1488 90.281C79.5544 90.6864 79.5544 91.344 79.1488 91.7494L76.9679 93.9303C76.7654 94.1332 76.4994 94.2346 76.2337 94.2346ZM75.5215 91.0152L76.2337 91.7274L76.9459 91.0152L76.2337 90.303L75.5215 91.0152Z" fill="#CCCCCC"/>
<path d="M90.9925 21.8239C90.7269 21.8239 90.4608 21.7226 90.2583 21.5196L88.0774 19.3388C87.6718 18.9334 87.6718 18.2758 88.0774 17.8703L90.2583 15.6895C90.6635 15.2838 91.3215 15.2838 91.7267 15.6895L93.9076 17.8703C94.3132 18.2758 94.3132 18.9334 93.9076 19.3388L91.7267 21.5196C91.524 21.7226 91.2582 21.8239 90.9925 21.8239ZM90.2803 18.6046L90.9925 19.3168L91.7047 18.6046L90.9925 17.8924L90.2803 18.6046Z" fill="#CCCCCC"/>
</svg>
