<svg width="101" height="101" viewBox="0 0 101 101" fill="none" xmlns="http://www.w3.org/2000/svg">
<path d="M98.8147 37.5939C100.447 41.5558 100.59 45.9538 99.2127 50.0257L88.1571 82.6983C86.1831 88.532 81.2931 92.8677 75.3917 94.0226L42.2705 100.541C36.3691 101.696 30.2644 99.5291 26.3293 94.8698L4.27144 68.6961C3.10866 67.3261 2.17709 65.7912 1.48803 64.1187C-0.144248 60.1569 -0.287147 55.7588 1.08999 51.6869L12.1534 18.9949C14.1273 13.1612 19.0174 8.82542 24.9188 7.67058L58.04 1.15221C63.9414 -0.00264019 70.046 2.16401 73.9812 6.82335L96.039 32.9971C97.1884 34.3728 98.1256 35.9214 98.8147 37.5939ZM1.91549 63.9332C2.5876 65.5646 3.50223 67.0584 4.62134 68.3988L26.6792 94.5725C30.5044 99.118 36.4627 101.235 42.2002 100.103L75.3214 93.5844C81.0723 92.4464 85.838 88.2293 87.7502 82.5516L98.8002 49.8653C100.131 45.9105 100.001 41.62 98.414 37.7678C97.7418 36.1365 96.8272 34.6427 95.7081 33.3022L73.6503 7.12853C69.825 2.58309 63.8668 0.466043 58.1293 1.59826L25.0081 8.11662C19.2572 9.25463 14.4915 13.4718 12.5792 19.1494L1.52919 51.8357C0.184956 55.7964 0.328392 60.081 1.91549 63.9332Z" fill="#E61776"/>
<path d="M1.91549 63.9332C2.5876 65.5646 3.50223 67.0584 4.62134 68.3988L26.6792 94.5725C30.5044 99.118 36.4627 101.235 42.2002 100.103L75.3214 93.5844C81.0723 92.4464 85.838 88.2293 87.7502 82.5516L98.8002 49.8653C100.131 45.9105 100.001 41.62 98.414 37.7678C97.7418 36.1365 96.8272 34.6427 95.7081 33.3022L73.6503 7.12853C69.825 2.58309 63.8668 0.466043 58.1293 1.59826L25.0081 8.11662C19.2572 9.25463 14.4915 13.4718 12.5792 19.1494L1.52919 51.8357C0.184956 55.7964 0.328392 60.081 1.91549 63.9332Z" fill="#E61776"/>
<path opacity="0.1" d="M7.24546 63.0913H8.0825V27.182C8.0825 26.0889 8.96963 25.2018 10.0627 25.2018H86.9281C88.0211 25.2018 88.9083 26.0889 88.9083 27.182V53.8986L93.7209 58.7113C94.1077 59.098 94.1077 59.7248 93.7209 60.1115L91.2013 62.6311C90.8146 63.0178 90.1879 63.0178 89.8011 62.6311L88.9081 61.738V77.9323C88.9081 79.0253 88.0209 79.9125 86.9279 79.9125H60.3108V91.5849H63.5407C64.197 91.5849 64.7289 92.1168 64.7289 92.7731V94.8117C64.7289 95.4679 64.197 95.9998 63.5407 95.9998H33.4526C32.7964 95.9998 32.2645 95.4679 32.2645 94.8117V92.7731C32.2645 92.1168 32.7964 91.5849 33.4526 91.5849H36.6813V79.9127H30.9231V84.8212C30.9231 85.3679 30.4797 85.8113 29.933 85.8113H7.24546C6.69873 85.8113 6.25536 85.3679 6.25536 84.8212V64.0814C6.25536 63.5346 6.69853 63.0913 7.24546 63.0913Z" fill="#14141C"/>
<path d="M8.08466 65.8217L9.07475 66.8118H87.9203L88.9084 65.8217V29.1029L87.9203 28.1128H9.07475L8.08466 29.1029V65.8217Z" fill="#FAFAF2"/>
<path d="M8.08344 29.104V22.4299C8.08344 21.3368 8.97057 20.4497 10.0636 20.4497H86.929C88.0221 20.4497 88.9092 21.3368 88.9092 22.4299V29.104H8.08344Z" fill="#CCCCCC"/>
<path d="M8.08421 65.8219V73.1803C8.08421 74.2734 8.97133 75.1605 10.0644 75.1605H86.9297C88.0228 75.1605 88.9099 74.2734 88.9099 73.1803V65.8219H8.08421Z" fill="#CCCCCC"/>
<path d="M60.3115 75.1605H36.6818V86.8318H60.3115V75.1605Z" fill="#FAFAF2"/>
<path d="M33.4531 91.2476H63.5414C64.1976 91.2476 64.7295 90.7157 64.7295 90.0595V88.0209C64.7295 87.3646 64.1976 86.8328 63.5414 86.8328H33.4531C32.7968 86.8328 32.2649 87.3646 32.2649 88.0209V90.0595C32.2649 90.7157 32.7968 91.2476 33.4531 91.2476Z" fill="#CCCCCC"/>
<path d="M19.8638 16.099V65.8475C19.8638 66.8055 20.6404 67.5822 21.5984 67.5822H25.5687L27.1834 66.5921H69.264L71.4222 67.5822H75.3945C76.3525 67.5822 77.1292 66.8055 77.1292 65.8475V16.099L76.1391 15.1089H20.8539L19.8638 16.099Z" fill="#CCCCCC"/>
<path d="M25.5696 20.7229V67.5961H71.4231V20.7229C71.4231 20.1764 70.9795 19.7328 70.433 19.7328H26.5597C26.0132 19.7328 25.5696 20.1764 25.5696 20.7229Z" fill="#FAFAF2"/>
<path d="M19.8641 16.099V8.72452C19.8641 7.7665 20.6407 6.98987 21.5987 6.98987H75.3947C76.3528 6.98987 77.1294 7.7665 77.1294 8.72452V16.099H19.8641Z" fill="#FAFAF2"/>
<path d="M71.1647 12.9223C70.6179 12.9223 70.1746 12.4791 70.1746 11.9322C70.1746 11.3854 70.6179 10.9421 71.1647 10.9421C71.7115 10.9421 72.1548 11.3854 72.1548 11.9322C72.1548 12.4791 71.7115 12.9223 71.1647 12.9223Z" fill="#CCCCCC"/>
<path d="M67.6332 12.9225C67.0864 12.9225 66.6431 12.4792 66.6431 11.9324C66.6431 11.3855 67.0864 10.9423 67.6332 10.9423C68.18 10.9423 68.6233 11.3855 68.6233 11.9324C68.6233 12.4792 68.18 12.9225 67.6332 12.9225Z" fill="#CCCCCC"/>
<path d="M64.1007 12.9225C63.5539 12.9225 63.1106 12.4792 63.1106 11.9324C63.1106 11.3855 63.5539 10.9423 64.1007 10.9423C64.6475 10.9423 65.0908 11.3855 65.0908 11.9324C65.0908 12.4792 64.6475 12.9225 64.1007 12.9225Z" fill="#CCCCCC"/>
<path d="M31.084 43.4654L65.9077 42.2773L66.8984 39.607V25.4583C66.8984 24.6425 66.2371 23.9811 65.4212 23.9811H31.5705C30.7547 23.9811 30.0933 24.6425 30.0933 25.4583V41.2046L31.084 43.4654Z" fill="#FAFAF2"/>
<path d="M66.8984 41.2049V44.7606C66.8984 45.5764 66.237 46.2378 65.4212 46.2378H31.5705C30.7546 46.2378 30.0933 45.5764 30.0933 44.7606V39.6073L35.4408 34.6623C36.3232 33.8465 37.6845 33.8465 38.5669 34.6625L43.5095 39.2344L52.5735 30.8576C53.4554 30.0426 54.8158 30.0424 55.698 30.8574L66.8984 41.2049Z" fill="#CCCCCC"/>
<path d="M33.0221 53.2856H31.628C31.0813 53.2856 30.6379 52.8423 30.6379 52.2955V50.9015C30.6379 50.3547 31.0813 49.9114 31.628 49.9114H33.0221C33.5688 49.9114 34.0122 50.3547 34.0122 50.9015V52.2955C34.0122 52.8423 33.5688 53.2856 33.0221 53.2856Z" fill="#CCCCCC"/>
<path d="M30.6379 56.1393C30.6379 56.686 31.0813 57.1294 31.628 57.1294H36.7629C37.3096 57.1294 37.753 56.686 37.753 56.1393C37.753 55.5925 37.3096 55.1492 36.7629 55.1492H31.628C31.0813 55.1492 30.6379 55.5923 30.6379 56.1393Z" fill="#CCCCCC"/>
<path d="M39.5352 58.9906H31.628C31.0813 58.9906 30.6379 59.434 30.6379 59.9807C30.6379 60.5274 31.0813 60.9708 31.628 60.9708H39.5352C40.0819 60.9708 40.5253 60.5274 40.5253 59.9807C40.5253 59.434 40.0819 58.9906 39.5352 58.9906Z" fill="#CCCCCC"/>
<path d="M45.7382 53.2856H44.3441C43.7974 53.2856 43.354 52.8423 43.354 52.2955V50.9015C43.354 50.3547 43.7974 49.9114 44.3441 49.9114H45.7382C46.2849 49.9114 46.7283 50.3547 46.7283 50.9015V52.2955C46.7283 52.8423 46.2851 53.2856 45.7382 53.2856Z" fill="#CCCCCC"/>
<path d="M43.354 56.1393C43.354 56.686 43.7974 57.1294 44.3441 57.1294H49.479C50.0257 57.1294 50.4691 56.686 50.4691 56.1393C50.4691 55.5925 50.0257 55.1492 49.479 55.1492H44.3441C43.7974 55.1492 43.354 55.5923 43.354 56.1393Z" fill="#CCCCCC"/>
<path d="M52.2512 58.9906H44.3441C43.7974 58.9906 43.354 59.434 43.354 59.9807C43.354 60.5274 43.7974 60.9708 44.3441 60.9708H52.2512C52.798 60.9708 53.2413 60.5274 53.2413 59.9807C53.2413 59.434 52.798 58.9906 52.2512 58.9906Z" fill="#CCCCCC"/>
<path d="M58.8497 53.2856H57.4557C56.9089 53.2856 56.4656 52.8423 56.4656 52.2955V50.9015C56.4656 50.3547 56.9089 49.9114 57.4557 49.9114H58.8497C59.3965 49.9114 59.8398 50.3547 59.8398 50.9015V52.2955C59.8398 52.8423 59.3965 53.2856 58.8497 53.2856Z" fill="#CCCCCC"/>
<path d="M56.4656 56.1393C56.4656 56.686 56.9089 57.1294 57.4557 57.1294H62.5905C63.1373 57.1294 63.5806 56.686 63.5806 56.1393C63.5806 55.5925 63.1373 55.1492 62.5905 55.1492H57.4557C56.9089 55.1492 56.4656 55.5923 56.4656 56.1393Z" fill="#CCCCCC"/>
<path d="M65.3628 58.9906H57.4557C56.9089 58.9906 56.4656 59.434 56.4656 59.9807C56.4656 60.5274 56.9089 60.9708 57.4557 60.9708H65.3628C65.9095 60.9708 66.3529 60.5274 66.3529 59.9807C66.3529 59.434 65.9095 58.9906 65.3628 58.9906Z" fill="#CCCCCC"/>
<path d="M90.2546 50.4932L80.9089 41.1477L76.9893 45.0673L86.3348 54.4131L87.6079 54.5261L90.1495 51.9845L90.2546 50.4932Z" fill="#CCCCCC"/>
<path d="M90.2544 50.4929L93.7207 53.9593C94.1074 54.346 94.1074 54.9729 93.7207 55.3595L91.2011 57.8789C90.8144 58.2656 90.1876 58.2656 89.8009 57.8789L86.3346 54.4125L90.2544 50.4929Z" fill="#FAFAF2"/>
<path d="M73.7868 49.2845C67.5242 49.2845 62.4474 44.2077 62.4474 37.9451C62.4474 31.6825 67.5242 26.6057 73.7868 26.6057C80.0494 26.6057 85.1262 31.6825 85.1262 37.9451C85.1262 44.2077 80.0494 49.2845 73.7868 49.2845Z" fill="#FAFAF2"/>
<path d="M65.5343 39.2792C64.7947 34.7171 67.8934 30.4194 72.4553 29.6798C77.0173 28.9403 81.315 32.0391 82.0545 36.6011C82.794 41.1632 79.6954 45.461 75.1334 46.2005C70.5715 46.94 66.2738 43.8412 65.5343 39.2792Z" fill="#CCCCCC"/>
<path d="M77.3185 38.935C76.7717 38.935 76.3284 38.4917 76.3284 37.9449C76.3284 37.3981 76.7717 36.9548 77.3185 36.9548C77.8653 36.9548 78.3086 37.3981 78.3086 37.9449C78.3086 38.4917 77.8653 38.935 77.3185 38.935Z" fill="#FAFAF2"/>
<path d="M73.787 38.9352C73.2402 38.9352 72.7969 38.4919 72.7969 37.9451C72.7969 37.3982 73.2402 36.955 73.787 36.955C74.3338 36.955 74.7771 37.3982 74.7771 37.9451C74.7771 38.4919 74.3338 38.9352 73.787 38.9352Z" fill="#FAFAF2"/>
<path d="M70.2545 38.9352C69.7077 38.9352 69.2644 38.4919 69.2644 37.9451C69.2644 37.3982 69.7077 36.955 70.2545 36.955C70.8013 36.955 71.2446 37.3982 71.2446 37.9451C71.2446 38.4919 70.8013 38.9352 70.2545 38.9352Z" fill="#FAFAF2"/>
<path d="M7.24522 81.0589H29.9328C30.4795 81.0589 30.9229 80.6155 30.9229 80.0688V63.144L29.9328 62.1539H7.24522L6.25512 63.144V80.0688C6.25512 80.6155 6.69829 81.0589 7.24522 81.0589Z" fill="#FAFAF2"/>
<path d="M6.25512 63.1441V59.3291C6.25512 58.7824 6.69849 58.339 7.24522 58.339H29.9328C30.4795 58.339 30.9229 58.7824 30.9229 59.3291V63.1441H6.25512Z" fill="#CCCCCC"/>
<path d="M7.09416 57.3566V22.4297C7.09416 20.7919 8.42664 19.4594 10.0645 19.4594H18.8744V8.72475C18.8744 7.22238 20.0967 6 21.5991 6H75.3952C76.8975 6 78.1199 7.22238 78.1199 8.72475V19.4594H86.9298C88.5676 19.4594 89.9001 20.7919 89.9001 22.4297V48.7364L94.4241 53.2604C95.1928 54.0337 95.1918 55.2889 94.4221 56.0586L91.9011 58.5796C91.5152 58.9653 91.0082 59.1584 90.5013 59.1584C90.2981 59.1584 90.0956 59.1259 89.9001 59.064V73.1802C89.9001 74.818 88.5676 76.1505 86.9298 76.1505H61.3017V85.8428H63.5411C64.7421 85.8428 65.7193 86.82 65.7193 88.021V90.0596C65.7193 91.2606 64.7421 92.2378 63.5411 92.2378H33.4526C32.2516 92.2378 31.2744 91.2606 31.2744 90.0596V88.021C31.2744 86.82 32.2516 85.8428 33.4526 85.8428H35.692V76.1505H31.9132V80.0689C31.9132 81.1608 31.0249 82.0491 29.933 82.0491H25.39C24.8433 82.0491 24.3999 81.6059 24.3999 81.059C24.3999 80.5121 24.8433 80.0689 25.39 80.0689H29.933V59.3291H7.24545V80.0687H19.5409C20.0876 80.0687 20.531 80.5119 20.531 81.0588C20.531 81.6057 20.0876 82.0489 19.5409 82.0489H7.24545C6.15356 82.0489 5.26524 81.1606 5.26524 80.0687V59.3291C5.26524 58.2885 6.07278 57.4345 7.09416 57.3566ZM73.7869 27.5956C68.0803 27.5956 63.4375 32.2382 63.4375 37.945C63.4375 43.6513 68.0801 48.2941 73.7869 48.2941C79.4936 48.2941 84.1362 43.6515 84.1362 37.945C84.136 32.2382 79.4934 27.5956 73.7869 27.5956ZM65.908 28.4695V25.4574C65.908 25.1901 65.6902 24.9703 65.4209 24.9703H31.5714C31.3021 24.9703 31.0843 25.1901 31.0843 25.4574V44.7604C31.0843 45.0297 31.3021 45.2475 31.5714 45.2475H63.8605C62.3514 43.2018 61.4573 40.6762 61.4573 37.9448C61.4573 34.14 63.1906 30.7331 65.908 28.4695ZM87.9199 22.4297C87.9199 21.8838 87.4758 21.4396 86.9298 21.4396H78.1199V26.4036C82.7867 28.1616 86.1162 32.6709 86.1162 37.9448C86.1162 39.9756 85.6195 41.8915 84.7461 43.5824L87.9199 46.756V22.4297ZM90.5011 57.1792L93.0219 54.6584L83.6706 45.3073C82.9562 46.264 82.1065 47.1137 81.15 47.8281L90.5011 57.1792ZM33.4526 87.823C33.3435 87.823 33.2546 87.9117 33.2546 88.021V90.0596C33.2546 90.1689 33.3435 90.2576 33.4526 90.2576H63.5409C63.65 90.2576 63.7389 90.1689 63.7389 90.0596V88.021C63.7389 87.9117 63.65 87.823 63.5409 87.823H33.4526ZM59.3213 85.8428V76.1505H37.672V85.8428H59.3213ZM20.8546 57.3489H29.933C31.0249 57.3489 31.9132 58.2372 31.9132 59.3291V66.5921H75.3952C75.8057 66.5921 76.1397 66.258 76.1397 65.8475V54.6554C76.1397 54.1085 76.5831 53.6653 77.1298 53.6653C77.6766 53.6653 78.1199 54.1085 78.1199 54.6554V65.8477C78.1199 67.3501 76.8975 68.5725 75.3952 68.5725H31.9132V74.1705H86.9298C87.4758 74.1705 87.9199 73.7263 87.9199 73.1804V57.3984L79.4253 48.9038C77.7342 49.7774 75.8179 50.2743 73.7869 50.2743C70.6803 50.2743 67.8405 49.1168 65.67 47.2139C65.588 47.2222 65.5053 47.2279 65.4209 47.2279H31.5714C30.211 47.2279 29.1041 46.121 29.1041 44.7606V25.4576C29.1041 24.0972 30.211 22.9903 31.5714 22.9903H65.4209C66.7813 22.9903 67.8882 24.0972 67.8882 25.4576V27.121C69.6415 26.1618 71.6514 25.6154 73.7869 25.6154C74.5916 25.6154 75.3777 25.6954 76.1397 25.8434V8.72475C76.1397 8.31426 75.8057 7.9802 75.3952 7.9802H21.5991C21.1886 7.9802 20.8546 8.31426 20.8546 8.72475V57.3489ZM9.07436 57.3489H18.8744V21.4396H10.0645C9.51852 21.4396 9.07436 21.8838 9.07436 22.4297V57.3489Z" fill="#14141C"/>
<path d="M13.7145 77.2434H10.7869C10.4588 77.2434 10.1929 76.9774 10.1929 76.6493V74.4483C10.1929 74.1202 10.4588 73.8542 10.7869 73.8542H13.7145C14.0426 73.8542 14.3085 74.1202 14.3085 74.4483V76.6493C14.3085 76.9774 14.0426 77.2434 13.7145 77.2434Z" fill="#CCCCCC"/>
<path d="M20.0528 77.2433H17.1253C16.7972 77.2433 16.5312 76.9774 16.5312 76.6493V71.28C16.5312 70.9519 16.7972 70.6859 17.1253 70.6859H20.0528C20.3809 70.6859 20.6469 70.9519 20.6469 71.28V76.6493C20.6469 76.9774 20.3809 77.2433 20.0528 77.2433Z" fill="#CCCCCC"/>
<path d="M26.3924 77.2435H23.4647C23.1365 77.2435 22.8706 76.9775 22.8706 76.6494V66.9236C22.8706 66.5955 23.1365 66.3296 23.4647 66.3296H26.3922C26.7203 66.3296 26.9863 66.5955 26.9863 66.9236V76.6494C26.9865 76.9775 26.7203 77.2435 26.3924 77.2435Z" fill="#CCCCCC"/>
<path d="M12.25 15.0017C12.7968 15.0017 13.2401 14.5585 13.2401 14.0116C13.2401 13.4112 13.7286 12.9224 14.3292 12.9224C14.876 12.9224 15.3193 12.4793 15.3193 11.9323C15.3193 11.3854 14.876 10.9422 14.3292 10.9422C13.7286 10.9422 13.2401 10.4535 13.2401 9.85314C13.2401 9.30621 12.7968 8.86304 12.25 8.86304C11.7033 8.86304 11.2599 9.30621 11.2599 9.85314C11.2599 10.4535 10.7714 10.9422 10.1708 10.9422C9.62409 10.9422 9.18072 11.3854 9.18072 11.9323C9.18072 12.4793 9.62409 12.9224 10.1708 12.9224C10.7714 12.9224 11.2599 13.4112 11.2599 14.0116C11.2599 14.5585 11.7031 15.0017 12.25 15.0017Z" fill="#CCCCCC"/>
<path d="M24.9278 94.614C25.4745 94.614 25.9179 94.1708 25.9179 93.6239C25.9179 93.0235 26.4064 92.5347 27.007 92.5347C27.5537 92.5347 27.9971 92.0916 27.9971 91.5446C27.9971 90.9977 27.5537 90.5545 27.007 90.5545C26.4064 90.5545 25.9179 90.0658 25.9179 89.4654C25.9179 88.9185 25.4745 88.4753 24.9278 88.4753C24.381 88.4753 23.9377 88.9185 23.9377 89.4654C23.9377 90.0658 23.4491 90.5545 22.8486 90.5545C22.3018 90.5545 21.8585 90.9977 21.8585 91.5446C21.8585 92.0916 22.3018 92.5347 22.8486 92.5347C23.4491 92.5347 23.9377 93.0235 23.9377 93.6239C23.9377 94.1708 24.381 94.614 24.9278 94.614Z" fill="#CCCCCC"/>
<path d="M81.72 89.9012C82.2667 89.9012 82.7101 89.458 82.7101 88.9111C82.7101 88.3107 83.1986 87.822 83.7992 87.822C84.3459 87.822 84.7893 87.3788 84.7893 86.8319C84.7893 86.2849 84.3459 85.8418 83.7992 85.8418C83.1986 85.8418 82.7101 85.3531 82.7101 84.7527C82.7101 84.2057 82.2667 83.7626 81.72 83.7626C81.1733 83.7626 80.7299 84.2057 80.7299 84.7527C80.7299 85.3531 80.2414 85.8418 79.6408 85.8418C79.0941 85.8418 78.6507 86.2849 78.6507 86.8319C78.6507 87.3788 79.0941 87.822 79.6408 87.822C80.2414 87.822 80.7299 88.3107 80.7299 88.9111C80.7299 89.458 81.1733 89.9012 81.72 89.9012Z" fill="#CCCCCC"/>
<path d="M86.3348 15.0016C86.5883 15.0016 86.8416 14.905 87.035 14.7115L89.1142 12.6323C89.501 12.2458 89.501 11.6188 89.1142 11.2323L87.035 9.15309C86.6483 8.76635 86.0216 8.76635 85.6348 9.15309L83.5556 11.2323C83.1689 11.6188 83.1689 12.2458 83.5556 12.6323L85.6348 14.7115C85.8281 14.905 86.0814 15.0016 86.3348 15.0016ZM87.0139 11.9323L86.3348 12.6113L85.6558 11.9323L86.3348 11.2533L87.0139 11.9323Z" fill="#CCCCCC"/>
<path d="M71.047 85.7245C71.3005 85.7245 71.5537 85.6279 71.7472 85.4344L73.8264 83.3552C74.2131 82.9687 74.2131 82.3417 73.8264 81.9552L71.7472 79.876C71.3605 79.4893 70.7337 79.4893 70.347 79.876L68.2678 81.9552C67.8811 82.3417 67.8811 82.9687 68.2678 83.3552L70.347 85.4344C70.5403 85.6279 70.7937 85.7245 71.047 85.7245ZM71.726 82.6552L71.047 83.3342L70.368 82.6552L71.047 81.9762L71.726 82.6552Z" fill="#CCCCCC"/>
</svg>
