<svg width="100" height="104" viewBox="0 0 100 104" fill="none" xmlns="http://www.w3.org/2000/svg">
<path d="M92.6529 24.692C95.3919 27.9873 96.8391 32.1429 96.7382 36.4401L95.9233 70.9229C95.7778 77.0798 92.4023 82.676 87.1133 85.5373L57.4403 101.631C52.1514 104.493 45.6784 104.244 40.5334 100.969L11.6769 82.5596C10.1587 81.5985 8.81195 80.411 7.65572 79.0199C4.91678 75.7247 3.46952 71.5691 3.57042 67.2718L4.38693 32.7682C4.53241 26.6113 7.9079 21.0151 13.1969 18.1538L42.8698 2.05975C48.1588 -0.801549 54.6318 -0.552895 59.7768 2.72178L88.6333 21.1314C90.1405 22.1021 91.4967 23.301 92.6529 24.692ZM8.00846 78.7155C9.13626 80.0723 10.4545 81.2256 11.9223 82.1716L40.7788 100.581C45.785 103.78 52.1034 104.025 57.2427 101.234L86.9157 85.14C92.066 82.3396 95.3581 76.8937 95.4912 70.9042L96.2967 36.41C96.3883 32.2382 94.9854 28.1815 92.3222 24.9775C91.1944 23.6206 89.8761 22.4673 88.4084 21.5214L59.5519 3.11172C54.5457 -0.086989 48.2273 -0.331936 43.088 2.45891L13.415 18.5529C8.26474 21.3533 4.9726 26.7992 4.83949 32.7888L4.03401 67.2829C3.93135 71.4642 5.34534 75.5114 8.00846 78.7155Z" fill="#E61776"/>
<path d="M8.00846 78.7155C9.13626 80.0723 10.4545 81.2256 11.9223 82.1716L40.7788 100.581C45.785 103.78 52.1034 104.025 57.2427 101.234L86.9157 85.14C92.066 82.3396 95.3581 76.8937 95.4912 70.9042L96.2967 36.41C96.3883 32.2382 94.9854 28.1815 92.3222 24.9775C91.1944 23.6206 89.8761 22.4673 88.4084 21.5214L59.5519 3.11172C54.5457 -0.086989 48.2273 -0.331936 43.088 2.45891L13.415 18.5529C8.26474 21.3533 4.9726 26.7992 4.83949 32.7888L4.03401 67.2829C3.93135 71.4642 5.34534 75.5114 8.00846 78.7155Z" fill="#E61776"/>
<path opacity="0.1" d="M92.8184 54.3562C92.8184 50.7762 90.3312 47.7789 86.991 46.993V26.5597C86.991 25.5156 86.1435 24.6681 85.0994 24.6681H60.0101C56.8449 22.074 52.7973 20.5168 48.3857 20.5168C43.9749 20.5168 39.9293 22.0747 36.7647 24.6681H27.0394C27.6126 23.6032 27.9387 22.3855 27.9387 21.0913C27.9387 16.9126 24.551 13.5249 20.3723 13.5249C16.1933 13.5249 12.8059 16.9126 12.8059 21.0913C12.8059 22.3853 13.1312 23.603 13.7038 24.6681H11.6732C10.629 24.6681 9.78158 25.5156 9.78158 26.5597V45.7789C7.49162 47.0798 5.9458 49.5391 5.9458 52.3608C5.9458 55.1825 7.49162 57.6417 9.78158 58.9426V75.0395C9.78158 76.0837 10.629 76.9311 11.6732 76.9311H37.0993V88.0813H34.0139C33.387 88.0813 32.879 88.5894 32.879 89.2163V91.1637C32.879 91.7906 33.387 92.2987 34.0139 92.2987H62.756C63.3829 92.2987 63.8909 91.7906 63.8909 91.1637V89.2163C63.8909 88.5894 63.3829 88.0813 62.756 88.0813H59.6717V80.3267C60.6081 80.6873 61.6241 80.8868 62.6875 80.8868C64.7202 80.8868 66.584 80.1644 68.0366 78.9627L72.8624 84.4863C71.7146 85.8129 71.0185 87.5413 71.0185 89.4334C71.0185 93.6124 74.4062 96.9998 78.5849 96.9998C82.7636 96.9998 86.1513 93.6124 86.1513 89.4334C86.1513 85.2547 82.7636 81.8671 78.5849 81.8671C76.9801 81.8671 75.4929 82.3681 74.2685 83.2205L69.3531 77.5945C69.5166 77.3815 69.6685 77.1596 69.8113 76.9313H85.0994C86.1435 76.9313 86.991 76.0839 86.991 75.0397V61.7196C90.3312 60.9335 92.8184 57.9362 92.8184 54.3562Z" fill="#14141C"/>
<path d="M86.9893 63.4703L86.0435 64.4161H10.7256L9.78174 63.4703V28.3944L10.7256 27.4486H86.0435L86.9893 28.3944V63.4703Z" fill="#FAFAF2"/>
<path d="M86.9894 22.0198V28.3945H9.78003V22.0198C9.78003 20.9756 10.6275 20.1282 11.6716 20.1282H85.0978C86.142 20.1282 86.9894 20.9756 86.9894 22.0198Z" fill="#CCCCCC"/>
<path d="M86.9892 63.4703V70.4995C86.9892 71.5437 86.1418 72.3911 85.0976 72.3911H11.6714C10.6272 72.3911 9.77979 71.5437 9.77979 70.4995V63.4703H86.9892Z" fill="#CCCCCC"/>
<path d="M37.0984 72.3911H59.6708V83.5402H37.0984V72.3911Z" fill="#FAFAF2"/>
<path d="M62.7562 87.7587H34.0141C33.3872 87.7587 32.8792 87.2506 32.8792 86.6238V84.6763C32.8792 84.0495 33.3872 83.5414 34.0141 83.5414H62.7562C63.3831 83.5414 63.8912 84.0495 63.8912 84.6763V86.6238C63.8912 87.2506 63.3831 87.7587 62.7562 87.7587Z" fill="#CCCCCC"/>
<path d="M48.3853 52.6796C58.5204 52.6796 66.7366 44.4634 66.7366 34.3283C66.7366 24.1931 58.5204 15.9769 48.3853 15.9769C38.2501 15.9769 30.0339 24.1931 30.0339 34.3283C30.0339 44.4634 38.2501 52.6796 48.3853 52.6796Z" fill="#FAFAF2"/>
<path d="M48.3856 48.5282C56.228 48.5282 62.5855 42.1707 62.5855 34.3284C62.5855 26.486 56.228 20.1285 48.3856 20.1285C40.5433 20.1285 34.1858 26.486 34.1858 34.3284C34.1858 42.1707 40.5433 48.5282 48.3856 48.5282Z" fill="#CCCCCC"/>
<path d="M50.4046 32.14C50.9271 32.14 51.3504 31.7167 51.3504 31.1942C51.3504 30.6718 50.9271 30.2484 50.4046 30.2484H46.4563C45.9338 30.2484 45.5105 30.6718 45.5105 31.1942V37.462C45.5105 37.9845 45.9338 38.4078 46.4563 38.4078H50.4046C50.9271 38.4078 51.3504 37.9845 51.3504 37.462C51.3504 36.9396 50.9271 36.5162 50.4046 36.5162H47.4021V35.274H49.5585C50.081 35.274 50.5043 34.8507 50.5043 34.3282C50.5043 33.8058 50.081 33.3824 49.5585 33.3824H47.4021V32.1402H50.4046V32.14Z" fill="#FAFAF2"/>
<path d="M55.9653 30.2484H54.8536C53.5499 30.2484 52.4895 31.3088 52.4895 32.6125V36.0437C52.4895 37.3474 53.5499 38.4078 54.8536 38.4078H55.9653C57.269 38.4078 58.3294 37.3474 58.3294 36.0437V32.6125C58.3294 31.3088 57.2688 30.2484 55.9653 30.2484ZM56.4378 36.0435C56.4378 36.304 56.2258 36.516 55.9653 36.516H54.8536C54.5932 36.516 54.3811 36.304 54.3811 36.0435V32.6125C54.3811 32.3521 54.5932 32.14 54.8536 32.14H55.9653C56.2258 32.14 56.4378 32.3521 56.4378 32.6125V36.0435Z" fill="#FAFAF2"/>
<path d="M40.955 32.1401H42.9137C43.4362 32.1401 43.8595 31.7168 43.8595 31.1943C43.8595 30.6719 43.4362 30.2485 42.9137 30.2485H40.955C39.5696 30.2485 38.4424 31.3757 38.4424 32.7613C38.4424 34.1467 39.5696 35.2739 40.955 35.2739H41.3467C41.6893 35.2739 41.9679 35.5528 41.9679 35.8951C41.9679 36.2375 41.6891 36.5162 41.3467 36.5162H39.3882C38.8657 36.5162 38.4424 36.9395 38.4424 37.462C38.4424 37.9844 38.8657 38.4078 39.3882 38.4078H41.3467C42.7323 38.4078 43.8595 37.2806 43.8595 35.8951C43.8595 34.5096 42.7323 33.3823 41.3467 33.3823H40.955C40.6124 33.3823 40.334 33.1037 40.334 32.7613C40.334 32.419 40.6126 32.1401 40.955 32.1401Z" fill="#FAFAF2"/>
<path d="M85.2519 57.3828C89.4307 57.3828 92.8183 53.9952 92.8183 49.8164C92.8183 45.6376 89.4307 42.25 85.2519 42.25C81.0731 42.25 77.6855 45.6376 77.6855 49.8164C77.6855 53.9952 81.0731 57.3828 85.2519 57.3828Z" fill="#CCCCCC"/>
<path d="M88.8609 52.0877L87.3556 50.5824C87.9836 49.3837 87.7946 47.8653 86.7885 46.8592C85.5495 45.6204 83.5338 45.6204 82.2948 46.8592C81.056 48.098 81.056 50.114 82.2948 51.3529C82.9143 51.9722 83.7279 52.282 84.5417 52.282C85.0496 52.282 85.5573 52.1613 86.0181 51.92L87.5234 53.4253C87.7082 53.6099 87.9501 53.7022 88.1923 53.7022C88.4344 53.7022 88.6763 53.6099 88.8611 53.4253C89.2302 53.0561 89.2302 52.4572 88.8609 52.0877ZM83.6326 50.0153C83.1313 49.514 83.1313 48.6982 83.6326 48.1969C83.8832 47.9463 84.2125 47.8209 84.5419 47.8209C84.8712 47.8209 85.2003 47.9463 85.4511 48.1969C85.9524 48.6982 85.9524 49.514 85.4511 50.0153C84.9499 50.5166 84.1338 50.5168 83.6326 50.0153Z" fill="#FAFAF2"/>
<path d="M78.5847 92.4599C82.7635 92.4599 86.1511 89.0723 86.1511 84.8935C86.1511 80.7147 82.7635 77.3271 78.5847 77.3271C74.4059 77.3271 71.0183 80.7147 71.0183 84.8935C71.0183 89.0723 74.4059 92.4599 78.5847 92.4599Z" fill="#CCCCCC"/>
<path d="M82.1937 87.1649L80.6884 85.6596C81.3164 84.4608 81.1274 82.9425 80.1213 81.9363C78.8823 80.6975 76.8666 80.6975 75.6276 81.9363C74.3888 83.1751 74.3888 85.1912 75.6276 86.43C76.2471 87.0493 77.0607 87.3592 77.8744 87.3592C78.3823 87.3592 78.89 87.2385 79.3508 86.9971L80.8562 88.5024C81.041 88.6871 81.2829 88.7794 81.525 88.7794C81.7671 88.7794 82.0091 88.6871 82.1939 88.5024C82.5629 88.1332 82.5629 87.5343 82.1937 87.1649ZM76.9653 85.0926C76.4641 84.5914 76.4641 83.7755 76.9653 83.2742C77.216 83.0236 77.5453 82.8982 77.8746 82.8982C78.2039 82.8982 78.5331 83.0236 78.7839 83.2742C79.2852 83.7755 79.2852 84.5914 78.7839 85.0926C78.2826 85.5939 77.4666 85.5939 76.9653 85.0926Z" fill="#FAFAF2"/>
<path d="M13.5122 55.3874C17.691 55.3874 21.0786 51.9998 21.0786 47.821C21.0786 43.6422 17.691 40.2546 13.5122 40.2546C9.33339 40.2546 5.9458 43.6422 5.9458 47.821C5.9458 51.9998 9.33339 55.3874 13.5122 55.3874Z" fill="#CCCCCC"/>
<path d="M17.1212 50.0924L15.6159 48.587C16.2439 47.3883 16.0549 45.8699 15.0488 44.8638C13.8098 43.625 11.7941 43.625 10.5551 44.8638C9.31627 46.1026 9.31627 48.1187 10.5551 49.3575C11.1746 49.9768 11.9882 50.2866 12.8019 50.2866C13.3098 50.2866 13.8175 50.166 14.2783 49.9246L15.7836 51.4299C15.9685 51.6145 16.2104 51.7069 16.4525 51.7069C16.6946 51.7069 16.9366 51.6145 17.1214 51.4299C17.4906 51.0607 17.4906 50.4618 17.1212 50.0924ZM11.8928 48.0201C11.3915 47.5189 11.3915 46.703 11.8928 46.2017C12.1435 45.9511 12.4728 45.8257 12.8021 45.8257C13.1314 45.8257 13.4606 45.9511 13.7114 46.2017C14.2127 46.703 14.2127 47.5189 13.7114 48.0201C13.2101 48.5214 12.3941 48.5214 11.8928 48.0201Z" fill="#FAFAF2"/>
<path d="M20.3721 24.1179C24.5509 24.1179 27.9385 20.7303 27.9385 16.5515C27.9385 12.3727 24.5509 8.98511 20.3721 8.98511C16.1933 8.98511 12.8057 12.3727 12.8057 16.5515C12.8057 20.7303 16.1933 24.1179 20.3721 24.1179Z" fill="#FAFAF2"/>
<path d="M23.9811 18.8227L22.4757 17.3174C23.1037 16.1187 22.9148 14.6003 21.9086 13.5941C20.6696 12.3553 18.6539 12.3553 17.4149 13.5941C16.1761 14.833 16.1761 16.849 17.4149 18.0878C18.0344 18.7071 18.848 19.017 19.6618 19.017C20.1697 19.017 20.6774 18.8963 21.1382 18.6549L22.6435 20.1603C22.8283 20.3449 23.0703 20.4372 23.3124 20.4372C23.5545 20.4372 23.7964 20.3449 23.9813 20.1603C24.3505 19.791 24.3505 19.1921 23.9811 18.8227ZM18.7527 16.7503C18.2514 16.249 18.2514 15.4332 18.7527 14.9319C19.0033 14.6812 19.3326 14.5558 19.662 14.5558C19.9913 14.5558 20.3204 14.6812 20.5713 14.9319C21.0725 15.4332 21.0725 16.249 20.5713 16.7503C20.07 17.2516 19.2541 17.2517 18.7527 16.7503Z" fill="#CCCCCC"/>
<path d="M62.6872 76.347C67.3249 76.347 71.0845 72.5874 71.0845 67.9496C71.0845 63.3119 67.3249 59.5522 62.6872 59.5522C58.0494 59.5522 54.2898 63.3119 54.2898 67.9496C54.2898 72.5874 58.0494 76.347 62.6872 76.347Z" fill="#FAFAF2"/>
<path d="M65.8295 66.851C65.8295 65.1183 64.4196 63.7085 62.6869 63.7085C60.9542 63.7085 59.5444 65.1183 59.5444 66.851C59.5444 67.7056 59.8883 68.4806 60.4439 69.0477C59.8883 69.6148 59.5444 70.3898 59.5444 71.2444C59.5444 71.7669 59.9678 72.1902 60.4902 72.1902C61.0127 72.1902 61.436 71.7669 61.436 71.2444C61.436 70.5548 61.9973 69.9935 62.6869 69.9935C63.3766 69.9935 63.9379 70.5548 63.9379 71.2444C63.9379 71.7669 64.3612 72.1902 64.8837 72.1902C65.4061 72.1902 65.8295 71.7669 65.8295 71.2444C65.8295 70.3898 65.4856 69.6148 64.93 69.0477C65.4856 68.4806 65.8295 67.7056 65.8295 66.851ZM62.6869 65.6001C63.3766 65.6001 63.9379 66.1613 63.9379 66.851C63.9379 67.5407 63.3766 68.1019 62.6869 68.1019C61.9973 68.1019 61.436 67.5407 61.436 66.851C61.436 66.1613 61.9971 65.6001 62.6869 65.6001Z" fill="#CCCCCC"/>
<path d="M72.9377 23.8557H56.5618C56.0395 23.8557 55.616 23.4322 55.616 22.9099V10.6644C55.616 10.1422 56.0395 9.71863 56.5618 9.71863H72.9377C73.46 9.71863 73.8835 10.1422 73.8835 10.6644V22.9099C73.8835 23.4322 73.46 23.8557 72.9377 23.8557Z" fill="#FAFAF2"/>
<path d="M93.7641 49.8165C93.7641 46.0602 91.3173 42.8666 87.9347 41.74V22.02C87.9347 20.4555 86.6619 19.1826 85.0973 19.1826H74.8295V17.8449C74.8295 17.3225 74.4062 16.8991 73.8837 16.8991C73.3613 16.8991 72.9379 17.3225 72.9379 17.8449V22.91H56.5618V10.6646H72.9379V12.2573C72.9379 12.7798 73.3613 13.2031 73.8837 13.2031C74.4062 13.2031 74.8295 12.7798 74.8295 12.2573V10.6646C74.8295 9.62156 73.981 8.77299 72.9379 8.77299H56.5618C55.5188 8.77299 54.6702 9.62156 54.6702 10.6646V16.0783C52.6558 15.3828 50.548 15.0306 48.3853 15.0306C43.879 15.0306 39.7288 16.584 36.441 19.1826H28.4662C28.7364 18.3536 28.8843 17.4698 28.8843 16.5516C28.8843 11.858 25.0657 8.03943 20.3721 8.03943C15.6785 8.03943 11.8599 11.858 11.8599 16.5516C11.8599 17.4698 12.0078 18.3536 12.2779 19.1826H11.6711C10.1066 19.1826 8.8337 20.4555 8.8337 22.02V40.7151C6.52633 42.2393 5 44.8549 5 47.8213C5 50.7877 6.52614 53.4032 8.8337 54.9274V70.5C8.8337 72.0646 10.1066 73.3374 11.6711 73.3374H36.1531V82.596H34.0137C32.8665 82.596 31.933 83.5295 31.933 84.6768V86.6242C31.933 87.7715 32.8665 88.705 34.0137 88.705H62.7558C63.9031 88.705 64.8366 87.7715 64.8366 86.6242V84.6768C64.8366 83.5295 63.9031 82.596 62.7558 82.596H60.6166V77.059C61.2832 77.2105 61.9755 77.2931 62.6872 77.2931C64.9548 77.2931 67.0358 76.4805 68.6555 75.132L72.2365 79.2307C70.8918 80.7364 70.0723 82.7209 70.0723 84.8938C70.0723 89.5874 73.8909 93.406 78.5845 93.406C83.2782 93.406 87.0967 89.5874 87.0967 84.8938C87.0967 80.2001 83.2782 76.3816 78.5845 76.3816C76.7438 76.3816 75.0391 76.9708 73.6452 77.9677L69.9834 73.7761C70.0977 73.6331 70.2078 73.4867 70.3137 73.337H85.0973C86.6619 73.337 87.9347 72.0642 87.9347 70.4996V57.8929C91.3173 56.7665 93.7641 53.5729 93.7641 49.8165ZM74.8293 22.91V21.0742H85.0971C85.6186 21.0742 86.0429 21.4985 86.0429 22.02V41.3425C85.7823 41.3183 85.5186 41.3045 85.2517 41.3045C80.5581 41.3045 76.7395 45.1231 76.7395 49.8167C76.7395 51.4635 77.2109 53.0016 78.0239 54.3059L68.9086 60.9874C67.2552 59.5083 65.0747 58.6068 62.687 58.6068C60.9344 58.6068 59.2938 59.0927 57.8906 59.9356L52.0679 53.2712C60.9531 51.5471 67.6829 43.7097 67.6829 34.3291C67.6829 30.9552 66.8158 27.696 65.1669 24.802H72.9376C73.9808 24.8016 74.8293 23.9529 74.8293 22.91ZM54.67 18.0935V22.91C54.67 23.9531 55.5186 24.8016 56.5616 24.8016H62.9512C64.8097 27.6339 65.7917 30.9162 65.7917 34.3287C65.7917 43.9255 57.9831 51.7333 48.3852 51.7333C38.7881 51.7333 30.9804 43.9257 30.9804 34.3287C30.9804 24.7307 38.7879 16.922 48.3852 16.922C50.5584 16.9222 52.6693 17.3168 54.67 18.0935ZM34.3735 21.0742C33.144 22.3736 32.093 23.8435 31.2594 25.444L26.9526 21.9446C27.179 21.6688 27.3873 21.3775 27.5781 21.0744H34.3735V21.0742ZM20.3721 9.93103C24.0227 9.93103 26.9927 12.901 26.9927 16.5516C26.9927 20.2022 24.0227 23.1722 20.3721 23.1722C16.7215 23.1722 13.7515 20.2022 13.7515 16.5516C13.7515 12.901 16.7215 9.93103 20.3721 9.93103ZM10.7253 22.02C10.7253 21.4985 11.1496 21.0742 11.6711 21.0742H13.1658C14.6738 23.4684 17.3395 25.0638 20.3721 25.0638C22.3359 25.0638 24.1451 24.3936 25.5868 23.2723L30.4456 27.2202C29.5706 29.4211 29.089 31.8197 29.089 34.3287C29.089 36.4357 29.4296 38.4647 30.0567 40.3642L21.0455 43.8642C19.6185 41.1585 16.778 39.3089 13.5124 39.3089C12.5363 39.3089 11.5992 39.4761 10.7255 39.7799V22.02H10.7253ZM6.8916 47.8211C6.8916 44.1705 9.8616 41.2005 13.5122 41.2005C17.1628 41.2005 20.1328 44.1705 20.1328 47.8211C20.1328 51.4717 17.1628 54.4417 13.5122 54.4417C9.8616 54.4417 6.8916 51.4717 6.8916 47.8211ZM62.945 84.6766V86.624C62.945 86.7284 62.8602 86.8132 62.7558 86.8132H34.0137C33.9093 86.8132 33.8246 86.7284 33.8246 86.624V84.6766C33.8246 84.5722 33.9093 84.4875 34.0137 84.4875H62.7558C62.8602 84.4875 62.945 84.5722 62.945 84.6766ZM58.7252 82.5959H38.0445V73.3372H50.0004C50.5229 73.3372 50.9462 72.9139 50.9462 72.3914C50.9462 71.869 50.5229 71.4456 50.0004 71.4456H11.6711C11.1496 71.4456 10.7253 71.0214 10.7253 70.4998V55.8625C11.5992 56.1662 12.5363 56.3335 13.5122 56.3335C18.2058 56.3335 22.0244 52.5149 22.0244 47.8213C22.0244 47.0622 21.9232 46.3265 21.7357 45.6257L30.7377 42.1294C33.7396 48.8944 40.5199 53.6251 48.3852 53.6251C48.8673 53.6251 49.3455 53.6067 49.819 53.5717L56.3717 61.0717C54.512 62.7808 53.344 65.2312 53.344 67.95C53.344 71.6859 55.549 74.915 58.725 76.4088V82.5959H58.7252ZM62.6874 75.4014C58.5784 75.4014 55.2356 72.0585 55.2356 67.9498C55.2356 63.8408 58.5784 60.498 62.6874 60.498C66.7961 60.498 70.1389 63.8408 70.1389 67.9498C70.1387 72.0585 66.7961 75.4014 62.6874 75.4014ZM85.2053 84.8938C85.2053 88.5444 82.2353 91.5144 78.5847 91.5144C74.9341 91.5144 71.9641 88.5444 71.9641 84.8938C71.9641 81.2432 74.9341 78.2732 78.5847 78.2732C82.2353 78.2732 85.2053 81.2432 85.2053 84.8938ZM86.0431 70.4998C86.0431 71.0214 85.6188 71.4456 85.0973 71.4456H71.3494C71.7871 70.365 72.0303 69.1856 72.0303 67.95C72.0303 65.8696 71.3463 63.9462 70.1921 62.3919L79.1963 55.7919C80.7408 57.3568 82.8845 58.3291 85.2519 58.3291C85.5188 58.3291 85.7823 58.3151 86.0431 58.2911V70.4998ZM85.2519 56.4371C81.6013 56.4371 78.6313 53.4671 78.6313 49.8165C78.6313 46.1659 81.6013 43.1959 85.2519 43.1959C88.9025 43.1959 91.8725 46.1659 91.8725 49.8165C91.8725 53.4671 88.9025 56.4371 85.2519 56.4371Z" fill="#14141C"/>
<path d="M59.4609 18.7297C59.4609 19.252 59.8845 19.6755 60.4067 19.6755H69.4734C69.9956 19.6755 70.4192 19.252 70.4192 18.7297C70.4192 18.2075 69.9956 17.7839 69.4734 17.7839H60.4067C59.8843 17.7839 59.4609 18.2073 59.4609 18.7297Z" fill="#CCCCCC"/>
<path d="M59.4609 14.8448C59.4609 15.3671 59.8845 15.7906 60.4067 15.7906H65.6902C66.2124 15.7906 66.636 15.3671 66.636 14.8448C66.636 14.3226 66.2124 13.899 65.6902 13.899H60.4067C59.8843 13.899 59.4609 14.3226 59.4609 14.8448Z" fill="#CCCCCC"/>
<path d="M22.6419 85.717C22.1195 85.717 21.6961 85.2936 21.6961 84.7712C21.6961 84.1977 21.2293 83.7308 20.6558 83.7308C20.1333 83.7308 19.71 83.3075 19.71 82.785C19.71 82.2625 20.1333 81.8392 20.6558 81.8392C21.2293 81.8392 21.6961 81.3724 21.6961 80.7988C21.6961 80.2764 22.1195 79.853 22.6419 79.853C23.1644 79.853 23.5877 80.2764 23.5877 80.7988C23.5877 81.3724 24.0546 81.8392 24.6281 81.8392C25.1506 81.8392 25.5739 82.2625 25.5739 82.785C25.5739 83.3075 25.1506 83.7308 24.6281 83.7308C24.0546 83.7308 23.5877 84.1977 23.5877 84.7712C23.5877 85.2936 23.1642 85.717 22.6419 85.717Z" fill="#CCCCCC"/>
<path d="M38.442 12.864C37.9195 12.864 37.4962 12.4406 37.4962 11.9182C37.4962 11.3446 37.0293 10.8778 36.4558 10.8778C35.9333 10.8778 35.51 10.4544 35.51 9.93198C35.51 9.40952 35.9333 8.98618 36.4558 8.98618C37.0293 8.98618 37.4962 8.51933 37.4962 7.9458C37.4962 7.42334 37.9195 7 38.442 7C38.9644 7 39.3878 7.42334 39.3878 7.9458C39.3878 8.51933 39.8546 8.98618 40.4282 8.98618C40.9506 8.98618 41.374 9.40952 41.374 9.93198C41.374 10.4544 40.9506 10.8778 40.4282 10.8778C39.8546 10.8778 39.3878 11.3446 39.3878 11.9182C39.3878 12.4406 38.9644 12.864 38.442 12.864Z" fill="#CCCCCC"/>
<path d="M13.7865 90.7856C13.264 90.7856 12.8407 90.3622 12.8407 89.8398C12.8407 89.2663 12.3738 88.7994 11.8003 88.7994C11.2778 88.7994 10.8545 88.3761 10.8545 87.8536C10.8545 87.3311 11.2778 86.9078 11.8003 86.9078C12.3738 86.9078 12.8407 86.441 12.8407 85.8674C12.8407 85.345 13.264 84.9216 13.7865 84.9216C14.3089 84.9216 14.7323 85.345 14.7323 85.8674C14.7323 86.441 15.1991 86.9078 15.7726 86.9078C16.2951 86.9078 16.7184 87.3311 16.7184 87.8536C16.7184 88.3761 16.2951 88.7994 15.7726 88.7994C15.1991 88.7994 14.7323 89.2663 14.7323 89.8398C14.7323 90.3622 14.3089 90.7856 13.7865 90.7856Z" fill="#CCCCCC"/>
<path d="M83.1404 15.5978C82.8985 15.5978 82.6562 15.5055 82.4717 15.3207L80.4856 13.3345C80.1161 12.9653 80.1161 12.3664 80.4856 11.9971L82.4717 10.011C82.8408 9.64153 83.4401 9.64153 83.8091 10.011L85.7953 11.9971C86.1647 12.3664 86.1647 12.9653 85.7953 13.3345L83.8091 15.3207C83.6245 15.5053 83.3824 15.5978 83.1404 15.5978ZM82.4918 12.6658L83.1404 13.3144L83.7891 12.6658L83.1404 12.0172L82.4918 12.6658Z" fill="#CCCCCC"/>
<path d="M92.2239 80.8978C91.982 80.8978 91.7397 80.8055 91.5552 80.6207L89.5691 78.6345C89.1996 78.2653 89.1996 77.6664 89.5691 77.2972L91.5552 75.311C91.9243 74.9416 92.5235 74.9416 92.8926 75.311L94.8788 77.2972C95.2482 77.6664 95.2482 78.2653 94.8788 78.6345L92.8926 80.6207C92.7082 80.8055 92.466 80.8978 92.2239 80.8978ZM91.5755 77.9659L92.2241 78.6145L92.8727 77.9659L92.2241 77.3172L91.5755 77.9659Z" fill="#CCCCCC"/>
</svg>
