<svg width="60" height="60" viewBox="0 0 60 60" fill="none" xmlns="http://www.w3.org/2000/svg">
<rect width="60" height="60" rx="30" fill="#737380"/>
<path d="M39 25.751C38.4286 26.0062 37.7755 26.1764 37.1225 26.2614C37.7755 25.8361 38.3469 25.1556 38.5918 24.39C37.9388 24.8153 37.2857 25.0705 36.4694 25.2406C35.898 24.5601 35 24.1348 34.102 24.1348C32.3061 24.1348 30.8367 25.666 30.8367 27.5374C30.8367 27.7926 30.8367 28.0478 30.9184 28.303C28.2245 28.1329 25.7755 26.7718 24.1429 24.7302C23.898 25.2406 23.7347 25.8361 23.7347 26.4316C23.7347 27.6225 24.3061 28.6433 25.2041 29.2387C24.6327 29.2387 24.1429 29.0686 23.7347 28.8134C23.7347 30.4297 24.8775 31.8758 26.3469 32.131C26.102 32.2161 25.7755 32.2161 25.449 32.2161C25.2041 32.2161 25.0408 32.2161 24.7959 32.131C25.2041 33.4921 26.4286 34.5129 27.898 34.5129C26.7551 35.4486 25.3673 35.959 23.8163 35.959C23.5714 35.959 23.3265 35.959 23 35.8739C24.4694 36.8097 26.1837 37.4051 28.0612 37.4051C34.102 37.4051 37.3673 32.2161 37.3673 27.7076V27.2822C38.0204 27.027 38.5918 26.4316 39 25.751Z" fill="#FAFAF2"/>
</svg>
