<svg width="16" height="17" viewBox="0 0 16 17" fill="none" xmlns="http://www.w3.org/2000/svg">
<path d="M8 1.45609C10.1205 1.45609 10.4096 1.45609 11.2771 1.45609C12.0482 1.45609 12.4337 1.65023 12.7229 1.7473C13.1084 1.94145 13.3976 2.03852 13.6867 2.32974C13.9759 2.62095 14.1687 2.91217 14.2651 3.30046C14.3614 3.59168 14.4578 3.97997 14.5542 4.75655C14.5542 5.6302 14.5542 5.82434 14.5542 8.05701C14.5542 10.2897 14.5542 10.4838 14.5542 11.3575C14.5542 12.134 14.3614 12.5223 14.2651 12.8136C14.0723 13.2018 13.9759 13.4931 13.6867 13.7843C13.3976 14.0755 13.1084 14.2696 12.7229 14.3667C12.4337 14.4638 12.0482 14.5609 11.2771 14.6579C10.4096 14.6579 10.2169 14.6579 8 14.6579C5.78313 14.6579 5.59036 14.6579 4.72289 14.6579C3.95181 14.6579 3.56627 14.4638 3.27711 14.3667C2.89157 14.1726 2.60241 14.0755 2.31325 13.7843C2.0241 13.4931 1.83133 13.2018 1.73494 12.8136C1.63855 12.5223 1.54217 12.134 1.44578 11.3575C1.44578 10.4838 1.44578 10.2897 1.44578 8.05701C1.44578 5.82434 1.44578 5.6302 1.44578 4.75655C1.44578 3.97997 1.63855 3.59168 1.73494 3.30046C1.92771 2.91217 2.0241 2.62095 2.31325 2.32974C2.60241 2.03852 2.89157 1.84438 3.27711 1.7473C3.56627 1.65023 3.95181 1.55316 4.72289 1.45609C5.59036 1.45609 5.87952 1.45609 8 1.45609ZM8 0C5.78313 0 5.59036 0 4.72289 0C3.85542 0 3.27711 0.194145 2.79518 0.38829C2.31325 0.582435 1.83133 0.873652 1.3494 1.35901C0.867471 1.84438 0.674699 2.23267 0.385543 2.8151C0.192772 3.30046 0.0963856 3.8829 0 4.75655C0 5.6302 0 5.92142 0 8.05701C0 10.2897 0 10.4838 0 11.3575C0 12.2311 0.192772 12.8136 0.385543 13.2989C0.578314 13.7843 0.867471 14.2696 1.3494 14.755C1.83133 15.2404 2.21687 15.4345 2.79518 15.7257C3.27711 15.9199 3.85542 16.0169 4.72289 16.114C5.59036 16.114 5.87952 16.114 8 16.114C10.1205 16.114 10.4096 16.114 11.2771 16.114C12.1446 16.114 12.7229 15.9199 13.2048 15.7257C13.6867 15.5316 14.1687 15.2404 14.6506 14.755C15.1325 14.2696 15.3253 13.8814 15.6145 13.2989C15.8072 12.8136 15.9036 12.2311 16 11.3575C16 10.4838 16 10.1926 16 8.05701C16 5.92142 16 5.6302 16 4.75655C16 3.8829 15.8072 3.30046 15.6145 2.8151C15.4217 2.32974 15.1325 1.84438 14.6506 1.35901C14.1687 0.873652 13.7831 0.679507 13.2048 0.38829C12.7229 0.194145 12.1446 0.0970724 11.2771 0C10.4096 0 10.2169 0 8 0Z" fill="#FAFAF2"/>
<path d="M8 3.8829C5.68675 3.8829 3.85542 5.72727 3.85542 8.05701C3.85542 10.3867 5.68675 12.2311 8 12.2311C10.3133 12.2311 12.1446 10.3867 12.1446 8.05701C12.1446 5.72727 10.3133 3.8829 8 3.8829ZM8 10.775C6.55422 10.775 5.30121 9.61017 5.30121 8.05701C5.30121 6.60092 6.45783 5.33898 8 5.33898C9.44578 5.33898 10.6988 6.50385 10.6988 8.05701C10.6988 9.51309 9.44578 10.775 8 10.775Z" fill="#FAFAF2"/>
<path d="M12.241 4.75655C12.7733 4.75655 13.2048 4.32194 13.2048 3.78582C13.2048 3.24971 12.7733 2.8151 12.241 2.8151C11.7086 2.8151 11.2771 3.24971 11.2771 3.78582C11.2771 4.32194 11.7086 4.75655 12.241 4.75655Z" fill="#FAFAF2"/>
</svg>
