<svg width="11" height="12" viewBox="0 0 11 12" fill="none" xmlns="http://www.w3.org/2000/svg">
<path d="M5.92266 11.9596C6.12589 11.9181 6.31873 11.845 6.49848 11.7444L10.013 9.75607C10.6232 9.4114 11.0014 8.76091 11 8.06191L10.9938 4.02717C10.992 3.32648 10.613 2.67085 10.0013 2.31652L6.48099 0.271816C6.05492 0.0251361 5.55725 -0.0578431 5.07734 0.0401385C4.87411 0.0816325 4.68127 0.154725 4.50152 0.255318L0.987013 2.24365C0.37679 2.58832 -0.00142159 3.23881 4.01605e-06 3.93781L0.00620368 7.97255C0.00799704 8.67325 0.387017 9.32887 0.998666 9.6832L4.51901 11.7279C4.94545 11.9763 5.44275 12.0576 5.92266 11.9596Z" fill="#E61776"/>
<path d="M5.92266 11.9596C6.12589 11.9181 6.31873 11.845 6.49848 11.7444L10.013 9.75607C10.6232 9.4114 11.0014 8.76091 11 8.06191L10.9938 4.02717C10.992 3.32648 10.613 2.67085 10.0013 2.31652L6.48099 0.271816C6.05492 0.0251361 5.55725 -0.0578431 5.07734 0.0401385C4.87411 0.0816325 4.68127 0.154725 4.50152 0.255318L0.987013 2.24365C0.37679 2.58832 -0.00142159 3.23881 4.01605e-06 3.93781L0.00620368 7.97255C0.00799704 8.67325 0.387017 9.32887 0.998666 9.6832L4.51901 11.7279C4.94545 11.9763 5.44275 12.0576 5.92266 11.9596Z" fill="#E61776"/>
</svg>
