<svg width="237" height="60" viewBox="0 0 237 60" fill="none" xmlns="http://www.w3.org/2000/svg">
<path d="M32.1517 59.7979C33.1864 59.5904 34.1681 59.225 35.0832 58.722L52.9752 48.7803C56.0818 47.057 58.0072 43.8045 58 40.3095L57.9684 20.1359C57.9593 16.6324 56.0297 13.3542 52.9159 11.5826L34.9942 1.35908C32.825 0.125681 30.2915 -0.289215 27.8483 0.200693C26.8136 0.408163 25.8319 0.773623 24.9168 1.27659L7.02479 11.2183C3.9182 12.9416 1.99276 16.1941 2.00002 19.6891L2.03158 39.8627C2.04071 43.3662 3.97027 46.6444 7.08412 48.416L25.0058 58.6395C27.1768 59.8814 29.7085 60.2878 32.1517 59.7979Z" fill="#737380"/>
<path d="M32.1517 59.7979C33.1864 59.5904 34.1681 59.225 35.0832 58.722L52.9752 48.7803C56.0818 47.057 58.0072 43.8045 58 40.3095L57.9684 20.1359C57.9593 16.6324 56.0297 13.3542 52.9159 11.5826L34.9942 1.35908C32.825 0.125681 30.2915 -0.289215 27.8483 0.200693C26.8136 0.408163 25.8319 0.773623 24.9168 1.27659L7.02479 11.2183C3.9182 12.9416 1.99276 16.1941 2.00002 19.6891L2.03158 39.8627C2.04071 43.3662 3.97027 46.6444 7.08412 48.416L25.0058 58.6395C27.1768 59.8814 29.7085 60.2878 32.1517 59.7979Z" fill="#737380"/>
<mask id="mask0_222_614" style="mask-type:alpha" maskUnits="userSpaceOnUse" x="10" y="10" width="40" height="40">
<circle cx="30" cy="30" r="20" fill="#D9D9D9"/>
</mask>
<g mask="url(#mask0_222_614)">
<path d="M6.3137 24.3002C8.06216 31.5109 15.2877 36.7931 23.7785 36.5554C32.2692 36.3176 39.1879 30.6394 40.5301 23.3421C40.763 24.3027 40.8987 25.2974 40.9273 26.3179C41.1704 34.9992 33.5674 42.2551 23.9456 42.5245C14.3238 42.7939 6.32671 35.9748 6.08363 27.2935C6.05506 26.2731 6.1349 25.2723 6.3137 24.3002Z" fill="url(#paint0_linear_222_614)"/>
<path d="M6.26398 34.6698C11.4868 39.9399 20.4024 40.7288 27.549 36.138C34.6956 31.5472 37.685 23.1107 35.0636 16.1696C35.7594 16.8716 36.3896 17.6532 36.9414 18.5121C41.6352 25.819 38.875 35.9598 30.7764 41.1622C22.6778 46.3646 12.3075 44.6585 7.61371 37.3515C7.06194 36.4926 6.61318 35.5945 6.26398 34.6698Z" fill="url(#paint1_linear_222_614)"/>
<path d="M4.52796 39.2321C13.1785 44.0509 23.433 42.9746 28.7811 36.1917C34.1292 29.4089 33.7037 20.2878 26.9999 13C28.1523 13.6419 28.3563 13.2869 29.4363 14.1385C38.624 21.3828 41.1591 33.4865 35.0985 41.1729C29.038 48.8592 16.6768 49.2176 7.48911 41.9732C6.40908 41.1217 5.42097 40.2029 4.52796 39.2321Z" fill="url(#paint2_linear_222_614)"/>
<path d="M11.6262 45.9732C19.2981 47.9402 27.8984 43.7789 31.9309 35.6579C35.9634 27.537 34.0805 18.1702 27.8764 13.2471C28.8984 13.5091 29.9039 13.8799 30.88 14.3646C39.1831 18.4875 42.2097 29.2901 37.64 38.4928C33.0704 47.6956 22.6349 51.8136 14.3318 47.6906C13.3558 47.2059 12.4526 46.629 11.6262 45.9732Z" fill="url(#paint3_linear_222_614)"/>
<path d="M18.2027 50.6999C25.9868 50.3782 32.9084 44.0207 34.405 35.2282C35.9017 26.4356 31.4732 18.1462 24.2338 15.2673C25.2707 15.2245 26.323 15.2887 27.3797 15.4686C36.3695 16.9988 42.2823 26.3165 40.5864 36.2803C38.8904 46.2441 30.2278 53.0809 21.238 51.5507C20.1813 51.3708 19.167 51.0833 18.2027 50.6999Z" fill="url(#paint4_linear_222_614)"/>
<path d="M46.4299 40.5648C49.6973 33.0727 47.3042 24.0785 40.3134 19.2843C33.3226 14.49 24.0703 15.4977 18.2582 21.2447C18.6935 20.2467 19.2292 19.2753 19.8678 18.3441C24.1066 12.1633 31 9.33333 37.5731 11.4608C43.6667 14 41.2587 12.8058 43 14C50.922 19.4329 53.9889 30.0964 48.5559 38.0184C47.9173 38.9496 47.2041 39.7993 46.4299 40.5648Z" fill="url(#paint5_linear_222_614)"/>
<path d="M19.5449 33.0293C19.4487 33.1117 19.5449 33.4429 19.2899 33.5959C18.95 33.7998 18.4668 33.6243 18.1568 33.5675L18.0718 33.1993L18.1284 31.5845L18.3267 30.2814L18.4684 29.1766L19.9698 27.7318L22.9726 26.627L23.8225 26.2588V22.4344L24.1624 18.4117C24.814 18.1001 27.0916 17.8225 30.9896 19.2049C34.8876 20.5874 35.6034 24.0047 36 25.6667C36 25.6667 32.392 31.4495 29.3466 34.7573C28.7965 35.3547 25.6667 35 25.6667 35C30 32.6667 30.9896 30.2814 30.3333 26.627C30.0568 25.0872 28.7708 23.9641 26.8536 23.9641C25.2103 23.9641 25.6638 25.7772 24.9273 26.967C24.1908 28.1568 22.576 28.4117 21.6695 28.8933C20.763 29.3749 20.1681 30.4797 19.8848 31.1596C19.6015 31.8395 19.8848 31.9528 19.8848 32.2644C19.8848 32.6327 19.7432 32.8593 19.5449 33.0293Z" fill="url(#paint6_linear_222_614)"/>
<path fill-rule="evenodd" clip-rule="evenodd" d="M17.1742 21.2779C16.8492 22.0547 16.5822 22.6928 16.4855 22.9443C16.2022 23.6809 16.2588 23.9642 16.3722 24.2191C16.766 25.1052 15.7772 29.1766 15.3806 30.2248C15.3556 30.291 15.3313 30.3546 15.308 30.4158C14.9617 31.3237 14.8162 31.7053 15.2673 32.2361C15.6317 32.6648 15.915 32.9313 16.1172 33.1215C16.1822 33.1827 16.2389 33.236 16.2872 33.2843C16.2938 33.2922 16.3011 33.3011 16.3091 33.3108C16.4158 33.4404 16.6429 33.7164 16.8537 33.7375C17.0012 33.7523 17.0992 33.6979 17.1992 33.6424C17.2913 33.5913 17.3851 33.5392 17.5209 33.5392C17.6182 33.5392 17.7236 33.5492 17.8259 33.559C18.0215 33.5775 18.2055 33.595 18.2985 33.5392C18.4401 33.4542 18.5535 33.1993 18.5251 32.916C18.516 32.8251 18.4895 32.7488 18.465 32.6787C18.4133 32.5302 18.3712 32.4093 18.5251 32.2361C18.6481 32.0977 18.6376 31.7924 18.6249 31.4244C18.6142 31.1144 18.602 30.7598 18.6668 30.4231C18.8084 29.6865 20.1965 28.1001 21.103 27.5619C21.4413 27.3611 21.784 27.2864 22.135 27.2098C22.7248 27.0813 23.3379 26.9476 23.9925 26.2021C24.7049 25.3908 24.588 23.778 24.4913 22.4447C24.4496 21.8691 24.4116 21.3457 24.4458 20.9613C24.5591 19.6865 25.2957 17.8735 28.4685 18.695C31.6413 19.5166 36.0322 23.3693 36.9387 26.1171L39.9982 23.0576C38.5723 21.5279 34.8411 18.256 31.4713 16.9953C27.5336 15.5222 22.9765 16.2852 21.3334 17.3334C21.3334 17.3334 18.7234 15.3333 17.2503 14.7574C17.3716 15.0828 17.6713 15.8402 18.0149 16.7086C18.1798 17.1253 18.3549 17.5676 18.5251 18C18.1517 18.9418 17.6107 20.2348 17.1742 21.2779ZM18.3334 23.723C18.0709 24.2479 17.3334 24.0563 17.3334 24.0563C17.3334 24.0563 17.544 24.5563 17.7749 24.723C18.0058 24.8896 18.3675 24.8592 18.6667 24.6888C19.1272 24.4267 19.3334 23.3555 19.3334 23.3555C19.3334 23.3555 18.5959 23.198 18.3334 23.723Z" fill="white"/>
<path d="M20.3333 36.3333C34.5882 34.5203 34 21.3333 28.3333 18.6667C31.8744 19.4032 35.8233 23.0935 36.3333 24C34.9961 36.7592 26.6666 37.3333 20.3333 36.3333Z" fill="url(#paint7_linear_222_614)"/>
<path d="M28.4044 51.6413C35.5421 48.7341 40.1311 40.5278 38.5785 31.8424C37.0346 23.2054 30.2416 17.6526 22.5912 17.3408C22.5483 17.3391 22.3765 17.3347 22.3335 17.3333C23.2843 16.9461 24.4141 16.6561 25.458 16.4695C34.3383 14.8821 42.9251 20.9085 44.6845 30.7509C46.4439 40.5933 41.9444 49.6314 31.791 51.4464C30.7471 51.633 29.4305 51.6752 28.4044 51.6413Z" fill="url(#paint8_linear_222_614)"/>
<path d="M38.6015 48.203C44.3009 43.1488 45.6167 34.0544 41.3172 26.4673C37.0176 18.8802 28.5395 15.3359 21.275 17.6282C21.4544 17.4692 21.3333 17.3333 21.3333 17.3333C21.3333 17.3333 23.0866 16.2314 23.7831 15.8367C31.5404 11.4407 41.7787 14.8469 46.651 23.4446C51.5233 32.0424 49.1845 42.5759 41.4272 46.9719C40.5153 47.4887 39.5692 47.8976 38.6015 48.203Z" fill="url(#paint9_linear_222_614)"/>
<path d="M38.6599 48.2869C44.3593 43.2327 45.6751 34.1383 41.3756 26.5512C37.0761 18.9641 28.5979 15.4198 21.3335 17.7121C21.5128 17.5531 21.3918 17.4172 21.3918 17.4172C21.3918 17.4172 23.1451 16.3153 23.8416 15.9206C31.5989 11.5246 41.8372 14.9308 46.7095 23.5285C51.5818 32.1263 49.243 42.6598 41.4857 47.0558C40.5738 47.5726 39.6276 47.9815 38.6599 48.2869Z" fill="url(#paint10_linear_222_614)"/>
</g>
<path d="M80.7034 41.724C78.9327 41.724 77.3434 41.3507 75.9354 40.604C74.5274 39.8573 73.4287 38.8227 72.6394 37.5C71.85 36.156 71.4554 34.6413 71.4554 32.956C71.4554 31.2707 71.85 29.7667 72.6394 28.444C73.4287 27.1213 74.5167 26.0867 75.9034 25.34C77.3114 24.5933 78.9114 24.22 80.7034 24.22C82.3887 24.22 83.8607 24.5613 85.1194 25.244C86.3994 25.9267 87.3594 26.908 87.9994 28.188L84.9274 29.98C84.4367 29.1907 83.818 28.604 83.0714 28.22C82.346 27.8147 81.546 27.612 80.6714 27.612C79.178 27.612 77.9407 28.1027 76.9594 29.084C75.978 30.044 75.4874 31.3347 75.4874 32.956C75.4874 34.5773 75.9674 35.8787 76.9274 36.86C77.9087 37.82 79.1567 38.3 80.6714 38.3C81.546 38.3 82.346 38.108 83.0714 37.724C83.818 37.3187 84.4367 36.7213 84.9274 35.932L87.9994 37.724C87.338 39.004 86.3674 39.996 85.0874 40.7C83.8287 41.3827 82.3674 41.724 80.7034 41.724ZM99.2071 41.724C97.4791 41.724 95.9218 41.3507 94.5351 40.604C93.1485 39.8573 92.0605 38.8227 91.2711 37.5C90.5031 36.156 90.1191 34.6413 90.1191 32.956C90.1191 31.2707 90.5031 29.7667 91.2711 28.444C92.0605 27.1213 93.1485 26.0867 94.5351 25.34C95.9218 24.5933 97.4791 24.22 99.2071 24.22C100.956 24.22 102.524 24.5933 103.911 25.34C105.298 26.0867 106.375 27.1213 107.143 28.444C107.932 29.7667 108.327 31.2707 108.327 32.956C108.327 34.6413 107.932 36.156 107.143 37.5C106.375 38.8227 105.298 39.8573 103.911 40.604C102.524 41.3507 100.956 41.724 99.2071 41.724ZM99.2071 38.3C100.679 38.3 101.895 37.8093 102.855 36.828C103.815 35.8467 104.295 34.556 104.295 32.956C104.295 31.356 103.815 30.0653 102.855 29.084C101.895 28.1027 100.679 27.612 99.2071 27.612C97.7351 27.612 96.5191 28.1027 95.5591 29.084C94.6205 30.0653 94.1511 31.356 94.1511 32.956C94.1511 34.556 94.6205 35.8467 95.5591 36.828C96.5191 37.8093 97.7351 38.3 99.2071 38.3ZM116.28 26.908C117.432 25.116 119.459 24.22 122.36 24.22V28.028C122.019 27.964 121.709 27.932 121.432 27.932C119.875 27.932 118.659 28.3907 117.784 29.308C116.909 30.204 116.472 31.5053 116.472 33.212V41.5H112.472V24.412H116.28V26.908ZM142.653 17.756V41.5H138.813V39.292C138.152 40.1027 137.33 40.7107 136.349 41.116C135.389 41.5213 134.322 41.724 133.149 41.724C131.506 41.724 130.024 41.3613 128.701 40.636C127.4 39.9107 126.376 38.8867 125.629 37.564C124.882 36.22 124.509 34.684 124.509 32.956C124.509 31.228 124.882 29.7027 125.629 28.38C126.376 27.0573 127.4 26.0333 128.701 25.308C130.024 24.5827 131.506 24.22 133.149 24.22C134.28 24.22 135.314 24.412 136.253 24.796C137.192 25.18 137.992 25.756 138.653 26.524V17.756H142.653ZM133.629 38.3C134.589 38.3 135.453 38.0867 136.221 37.66C136.989 37.212 137.597 36.5827 138.045 35.772C138.493 34.9613 138.717 34.0227 138.717 32.956C138.717 31.8893 138.493 30.9507 138.045 30.14C137.597 29.3293 136.989 28.7107 136.221 28.284C135.453 27.836 134.589 27.612 133.629 27.612C132.669 27.612 131.805 27.836 131.037 28.284C130.269 28.7107 129.661 29.3293 129.213 30.14C128.765 30.9507 128.541 31.8893 128.541 32.956C128.541 34.0227 128.765 34.9613 129.213 35.772C129.661 36.5827 130.269 37.212 131.037 37.66C131.805 38.0867 132.669 38.3 133.629 38.3ZM154.734 24.22C157.251 24.22 159.171 24.828 160.494 26.044C161.838 27.2387 162.51 29.052 162.51 31.484V41.5H158.734V39.42C158.243 40.1667 157.539 40.7427 156.622 41.148C155.726 41.532 154.638 41.724 153.358 41.724C152.078 41.724 150.958 41.5107 149.998 41.084C149.038 40.636 148.291 40.028 147.758 39.26C147.246 38.4707 146.99 37.5853 146.99 36.604C146.99 35.068 147.555 33.8413 148.686 32.924C149.838 31.9853 151.641 31.516 154.094 31.516H158.51V31.26C158.51 30.0653 158.147 29.148 157.422 28.508C156.718 27.868 155.662 27.548 154.254 27.548C153.294 27.548 152.345 27.6973 151.406 27.996C150.489 28.2947 149.71 28.7107 149.07 29.244L147.502 26.332C148.398 25.6493 149.475 25.1267 150.734 24.764C151.993 24.4013 153.326 24.22 154.734 24.22ZM154.19 38.812C155.193 38.812 156.078 38.588 156.846 38.14C157.635 37.6707 158.19 37.0093 158.51 36.156V34.172H154.382C152.078 34.172 150.926 34.9293 150.926 36.444C150.926 37.1693 151.214 37.7453 151.79 38.172C152.366 38.5987 153.166 38.812 154.19 38.812Z" fill="#FAFAF2"/>
<path d="M194.619 24.412L188.315 41.5H184.475L180.059 29.724L175.579 41.5H171.739L165.467 24.412H169.243L173.755 37.02L178.459 24.412H181.819L186.427 37.084L191.067 24.412H194.619ZM213.285 33.052C213.285 33.3293 213.264 33.724 213.221 34.236H199.813C200.048 35.4947 200.656 36.4973 201.637 37.244C202.64 37.9693 203.877 38.332 205.349 38.332C207.226 38.332 208.773 37.7133 209.989 36.476L212.133 38.94C211.365 39.8573 210.394 40.5507 209.221 41.02C208.048 41.4893 206.725 41.724 205.253 41.724C203.376 41.724 201.722 41.3507 200.293 40.604C198.864 39.8573 197.754 38.8227 196.965 37.5C196.197 36.156 195.813 34.6413 195.813 32.956C195.813 31.292 196.186 29.7987 196.933 28.476C197.701 27.132 198.757 26.0867 200.101 25.34C201.445 24.5933 202.96 24.22 204.645 24.22C206.309 24.22 207.792 24.5933 209.093 25.34C210.416 26.0653 211.44 27.1 212.165 28.444C212.912 29.7667 213.285 31.3027 213.285 33.052ZM204.645 27.42C203.365 27.42 202.277 27.804 201.381 28.572C200.506 29.3187 199.973 30.3213 199.781 31.58H209.477C209.306 30.3427 208.784 29.34 207.909 28.572C207.034 27.804 205.946 27.42 204.645 27.42ZM226.919 24.22C228.583 24.22 230.066 24.5827 231.367 25.308C232.69 26.0333 233.724 27.0573 234.471 28.38C235.218 29.7027 235.591 31.228 235.591 32.956C235.591 34.684 235.218 36.22 234.471 37.564C233.724 38.8867 232.69 39.9107 231.367 40.636C230.066 41.3613 228.583 41.724 226.919 41.724C225.746 41.724 224.668 41.5213 223.687 41.116C222.727 40.7107 221.916 40.1027 221.255 39.292V41.5H217.447V17.756H221.447V26.492C222.13 25.7453 222.93 25.18 223.847 24.796C224.786 24.412 225.81 24.22 226.919 24.22ZM226.471 38.3C227.943 38.3 229.148 37.8093 230.087 36.828C231.047 35.8467 231.527 34.556 231.527 32.956C231.527 31.356 231.047 30.0653 230.087 29.084C229.148 28.1027 227.943 27.612 226.471 27.612C225.511 27.612 224.647 27.836 223.879 28.284C223.111 28.7107 222.503 29.3293 222.055 30.14C221.607 30.9507 221.383 31.8893 221.383 32.956C221.383 34.0227 221.607 34.9613 222.055 35.772C222.503 36.5827 223.111 37.212 223.879 37.66C224.647 38.0867 225.511 38.3 226.471 38.3Z" fill="#E61776"/>
<defs>
<linearGradient id="paint0_linear_222_614" x1="8.4" y1="33.2" x2="29.5539" y2="40.3247" gradientUnits="userSpaceOnUse">
<stop stop-color="#73737F"/>
<stop offset="1" stop-color="white"/>
</linearGradient>
<linearGradient id="paint1_linear_222_614" x1="11.6667" y1="37.9167" x2="30.7493" y2="41.4117" gradientUnits="userSpaceOnUse">
<stop stop-color="#73737F"/>
<stop offset="1" stop-color="white"/>
</linearGradient>
<linearGradient id="paint2_linear_222_614" x1="13.8516" y1="40.5854" x2="33.7101" y2="35.6841" gradientUnits="userSpaceOnUse">
<stop stop-color="#73737F"/>
<stop offset="1" stop-color="white"/>
</linearGradient>
<linearGradient id="paint3_linear_222_614" x1="20.4" y1="47.6" x2="36.04" y2="37.646" gradientUnits="userSpaceOnUse">
<stop stop-color="#73737F"/>
<stop offset="1" stop-color="white"/>
</linearGradient>
<linearGradient id="paint4_linear_222_614" x1="30.0002" y1="50.8" x2="38.22" y2="34.5147" gradientUnits="userSpaceOnUse">
<stop stop-color="#73737F"/>
<stop offset="1" stop-color="white"/>
</linearGradient>
<linearGradient id="paint5_linear_222_614" x1="45.4167" y1="37.9167" x2="42.5329" y2="14.6481" gradientUnits="userSpaceOnUse">
<stop stop-color="#73737F"/>
<stop offset="1" stop-color="white"/>
</linearGradient>
<linearGradient id="paint6_linear_222_614" x1="47.6667" y1="-7.00001" x2="52.5834" y2="36.6386" gradientUnits="userSpaceOnUse">
<stop stop-color="#73737F"/>
<stop offset="1" stop-color="white"/>
</linearGradient>
<linearGradient id="paint7_linear_222_614" x1="32.0194" y1="32.8801" x2="34.5122" y2="23.5856" gradientUnits="userSpaceOnUse">
<stop stop-color="white"/>
<stop offset="1" stop-color="white"/>
</linearGradient>
<linearGradient id="paint8_linear_222_614" x1="36.8" y1="48" x2="38" y2="28.4" gradientUnits="userSpaceOnUse">
<stop stop-color="#73737F"/>
<stop offset="1" stop-color="white"/>
</linearGradient>
<linearGradient id="paint9_linear_222_614" x1="41.6667" y1="41" x2="41.7524" y2="18.3387" gradientUnits="userSpaceOnUse">
<stop stop-color="#73737F"/>
<stop offset="1" stop-color="white"/>
</linearGradient>
<linearGradient id="paint10_linear_222_614" x1="41.6668" y1="46.25" x2="42.3906" y2="24.0453" gradientUnits="userSpaceOnUse">
<stop stop-color="#73737F"/>
<stop offset="1" stop-color="white"/>
</linearGradient>
</defs>
</svg>
