<svg width="12" height="20" viewBox="0 0 12 20" fill="none" xmlns="http://www.w3.org/2000/svg">
<path d="M9.125 1H2.875C1.83947 1 1 1.80589 1 2.8V17.2C1 18.1941 1.83947 19 2.875 19H9.125C10.1605 19 11 18.1941 11 17.2V2.8C11 1.80589 10.1605 1 9.125 1Z" stroke="#FAFAF2" stroke-linecap="round" stroke-linejoin="round"/>
<path d="M3 1H3.9C3.97957 1 4.05587 1.03512 4.11213 1.09763C4.16839 1.16014 4.2 1.24493 4.2 1.33333C4.2 1.51014 4.26321 1.67971 4.37574 1.80474C4.48826 1.92976 4.64087 2 4.8 2H7.2C7.35913 2 7.51174 1.92976 7.62426 1.80474C7.73679 1.67971 7.8 1.51014 7.8 1.33333C7.8 1.24493 7.83161 1.16014 7.88787 1.09763C7.94413 1.03512 8.02044 1 8.1 1H9" stroke="#FAFAF2" stroke-linecap="round" stroke-linejoin="round"/>
</svg>
