<svg width="16" height="14" viewBox="0 0 16 14" fill="none" xmlns="http://www.w3.org/2000/svg">
<path d="M16 1.75102C15.4286 2.00622 14.7755 2.17636 14.1225 2.26143C14.7755 1.83609 15.3469 1.15557 15.5918 0.389967C14.9388 0.8153 14.2857 1.0705 13.4694 1.24063C12.898 0.5601 12 0.134766 11.102 0.134766C9.30612 0.134766 7.83673 1.66596 7.83673 3.53742C7.83673 3.79262 7.83674 4.04782 7.91837 4.30301C5.22449 4.13288 2.77551 2.77182 1.14285 0.730228C0.897955 1.24063 0.734689 1.83609 0.734689 2.43156C0.734689 3.62249 1.30612 4.64329 2.20408 5.23875C1.63265 5.23875 1.14285 5.06862 0.734689 4.81342C0.734689 6.42968 1.87754 7.8758 3.34693 8.131C3.10203 8.21607 2.77551 8.21607 2.44898 8.21607C2.20408 8.21607 2.04081 8.21607 1.79592 8.131C2.20408 9.49207 3.42857 10.5129 4.89796 10.5129C3.7551 11.4486 2.36735 11.959 0.816327 11.959C0.571429 11.959 0.326531 11.959 0 11.8739C1.46939 12.8097 3.18367 13.4051 5.06122 13.4051C11.102 13.4051 14.3673 8.21607 14.3673 3.70755V3.28222C15.0204 3.02702 15.5918 2.43155 16 1.75102Z" fill="#FAFAF2"/>
</svg>
